<svg width="279" height="46" viewBox="0 0 279 46" fill="none" xmlns="http://www.w3.org/2000/svg">
<path d="M17.125 2.6875C19.2083 2.8125 20.9583 2.91667 22.375 3C23.8333 3.04167 25.0417 3.08333 26 3.125C27.0833 3.16667 28 3.16667 28.75 3.125C29.5 3.08333 30.5208 2.97917 31.8125 2.8125C32.8958 2.6875 34.3333 2.5 36.125 2.25C37.9583 1.95833 40.2292 1.58333 42.9375 1.125C41.9792 2.08333 41.2292 2.95833 40.6875 3.75C40.1875 4.5 39.7917 5.14583 39.5 5.6875C39.1667 6.35417 38.9375 6.91667 38.8125 7.375C38.7292 7.79167 38.8125 8.83333 39.0625 10.5C39.3125 12.1667 39.6667 14.1458 40.125 16.4375C40.5833 18.6875 41.0833 21.1042 41.625 23.6875C42.1667 26.2292 42.7083 28.625 43.25 30.875C43.7917 33.0833 44.2708 34.9792 44.6875 36.5625C45.1458 38.1042 45.4792 39.0208 45.6875 39.3125C46.3125 40.1875 46.7083 40.7708 46.875 41.0625C47.0417 41.3125 47.3333 41.5417 47.75 41.75C47.9167 41.8333 48.1875 41.9583 48.5625 42.125C48.8958 42.2917 49.3333 42.5 49.875 42.75C50.4583 43 51.1875 43.2917 52.0625 43.625C50.4375 43.7083 49.0417 43.7708 47.875 43.8125C46.7083 43.8125 45.75 43.8333 45 43.875C44.125 43.9167 43.375 43.9583 42.75 44C42.125 44 41.375 44.0417 40.5 44.125C39.75 44.2083 38.7708 44.2917 37.5625 44.375C36.3958 44.4583 35.0208 44.5417 33.4375 44.625C34.2708 44.0417 34.9375 43.5208 35.4375 43.0625C35.9792 42.5625 36.3958 42.1458 36.6875 41.8125C37.0208 41.3958 37.25 41.0208 37.375 40.6875C37.4583 40.3125 37.5208 39.75 37.5625 39C37.6042 38.3333 37.6042 37.4583 37.5625 36.375C37.5208 35.25 37.4167 33.7917 37.25 32L20.8125 33.6875C20.3958 34.3958 20.0833 35.0208 19.875 35.5625C19.6667 36.0625 19.5208 36.5 19.4375 36.875C19.3125 37.3333 19.2708 37.7083 19.3125 38C19.3958 38.3333 19.5417 38.7292 19.75 39.1875C19.9583 39.6042 20.25 40.1042 20.625 40.6875C21.0417 41.2292 21.6458 41.875 22.4375 42.625C21.3958 42.5833 20.3333 42.5625 19.25 42.5625C18.1667 42.5625 17.1667 42.5833 16.25 42.625C15.1667 42.6667 14.1042 42.7083 13.0625 42.75C12.0208 42.7917 10.8333 42.8542 9.5 42.9375C8.375 43.0208 7.0625 43.125 5.5625 43.25C4.02083 43.3333 2.375 43.4583 0.625 43.625C1.70833 43.125 2.625 42.625 3.375 42.125C4.125 41.5833 4.75 41.0833 5.25 40.625C5.83333 40.125 6.33333 39.6458 6.75 39.1875C7.04167 38.7708 7.625 37.8125 8.5 36.3125C9.375 34.7708 10.3542 32.9583 11.4375 30.875C12.5625 28.7917 13.7292 26.5625 14.9375 24.1875C16.1875 21.8125 17.3125 19.5833 18.3125 17.5C19.3125 15.375 20.125 13.5417 20.75 12C21.375 10.4583 21.6875 9.45833 21.6875 9C21.6042 8.45833 21.3958 7.85417 21.0625 7.1875C20.7708 6.60417 20.3125 5.9375 19.6875 5.1875C19.1042 4.4375 18.25 3.60417 17.125 2.6875ZM36.5 27.375C36.25 25.9167 36.0208 24.6667 35.8125 23.625C35.6042 22.5417 35.4375 21.6458 35.3125 20.9375C35.1458 20.1042 35.0208 19.375 34.9375 18.75C34.8125 18.1667 34.6667 17.4167 34.5 16.5C34.3333 15.7083 34.125 14.7292 33.875 13.5625C33.6667 12.3542 33.3958 10.9167 33.0625 9.25C30.6875 14 28.8333 17.6875 27.5 20.3125C26.2083 22.8958 25.2708 24.7917 24.6875 26C23.9792 27.4167 23.5833 28.25 23.5 28.5L36.5 27.375ZM49.75 1.125C50.7083 1.375 51.5833 1.5625 52.375 1.6875C53.2083 1.77083 53.9167 1.83333 54.5 1.875C55.2083 1.91667 55.8542 1.9375 56.4375 1.9375C57.0208 1.9375 57.75 1.89583 58.625 1.8125C60.1667 1.6875 62.3542 1.375 65.1875 0.875C64.7292 1.20833 64.2917 1.54167 63.875 1.875C63.5 2.16667 63.1667 2.45833 62.875 2.75L61.9375 3.6875C61.3958 4.4375 60.8542 5.70833 60.3125 7.5C59.8542 9.04167 59.3542 11.2083 58.8125 14C58.3125 16.7917 57.8542 20.5 57.4375 25.125C59.4792 23.125 61.3958 21.625 63.1875 20.625C65.0208 19.5833 66.625 18.8333 68 18.375C69.625 17.875 71.1042 17.6042 72.4375 17.5625C74.1458 17.6875 75.625 18.0417 76.875 18.625C78.1667 19.1667 79.25 19.8333 80.125 20.625C81.0417 21.375 81.7708 22.1667 82.3125 23C82.8958 23.7917 83.3333 24.5 83.625 25.125C83.7917 25.5417 83.9167 26.3125 84 27.4375C84.125 28.5208 84.1458 29.7708 84.0625 31.1875C83.9792 32.6042 83.75 34.1042 83.375 35.6875C83.0417 37.2292 82.4792 38.6667 81.6875 40C80.9375 41.2917 79.9375 42.375 78.6875 43.25C77.4792 44.125 75.9583 44.6042 74.125 44.6875C72 44.6875 69.9375 44.4375 67.9375 43.9375C66.2292 43.5208 64.4167 42.7917 62.5 41.75C60.625 40.6667 59.0208 39.125 57.6875 37.125C57.6875 37.625 57.6875 38.125 57.6875 38.625C57.6875 39.0833 57.7083 39.4792 57.75 39.8125C57.7917 40.2708 57.8333 40.6667 57.875 41C57.9167 41.375 58.0208 41.7708 58.1875 42.1875C58.3125 42.5208 58.5 42.9375 58.75 43.4375C59.0417 43.8958 59.4167 44.3542 59.875 44.8125C59.4167 44.7708 58.9583 44.75 58.5 44.75C58.0417 44.7083 57.5833 44.7083 57.125 44.75C56.625 44.7917 56.125 44.8333 55.625 44.875C55.125 44.9167 54.6042 44.9792 54.0625 45.0625C53.6042 45.1458 53.0625 45.25 52.4375 45.375C51.8125 45.5 51.1667 45.6458 50.5 45.8125C50.625 45.4375 50.7292 44.8958 50.8125 44.1875C50.8958 43.4375 50.9792 42.625 51.0625 41.75C51.1875 40.8333 51.2708 39.875 51.3125 38.875C51.3958 37.875 51.4792 36.875 51.5625 35.875C51.7292 33.5833 51.875 31.0833 52 28.375C52.125 24.1667 52.1458 20.25 52.0625 16.625C52.0208 15.0833 51.9375 13.5208 51.8125 11.9375C51.7292 10.3542 51.6042 8.875 51.4375 7.5C51.2708 6.08333 51.0417 4.83333 50.75 3.75C50.5 2.625 50.1667 1.75 49.75 1.125ZM57.875 31.5625C58.5417 32.7708 59.25 33.8125 60 34.6875C60.75 35.5208 61.5 36.2292 62.25 36.8125C63 37.3958 63.7292 37.8542 64.4375 38.1875C65.1875 38.5208 65.8958 38.7708 66.5625 38.9375C68.1042 39.3542 69.625 39.3958 71.125 39.0625C72.625 38.6458 73.7917 37.8125 74.625 36.5625C75.4583 35.3125 76.1042 33.8958 76.5625 32.3125C76.7708 31.5625 76.8958 30.6042 76.9375 29.4375C77.0208 28.2708 76.8958 27.1458 76.5625 26.0625C76.2708 24.9375 75.7292 23.9583 74.9375 23.125C74.1458 22.25 73 21.7292 71.5 21.5625C70.4583 21.5625 69.25 21.8542 67.875 22.4375C66.6667 22.9375 65.2292 23.7708 63.5625 24.9375C61.8958 26.0625 60 27.75 57.875 30V31.5625ZM103.75 17C104.833 17 105.958 17.2083 107.125 17.625C108.292 18 109.417 18.5 110.5 19.125C111.583 19.7083 112.562 20.3542 113.438 21.0625C114.354 21.7292 115.104 22.375 115.688 23C116.729 24.125 117.438 25.6458 117.812 27.5625C118.229 29.4375 118.312 31.375 118.062 33.375C117.812 35.3333 117.229 37.1875 116.312 38.9375C115.396 40.6875 114.125 41.9792 112.5 42.8125C111.333 43.3958 110.188 43.8542 109.062 44.1875C107.938 44.5208 106.854 44.7708 105.812 44.9375C104.771 45.1042 103.792 45.1875 102.875 45.1875C101.958 45.1875 101.167 45.1667 100.5 45.125C99.25 45.0417 97.9375 44.6042 96.5625 43.8125C95.2292 43.0208 93.9583 42.0417 92.75 40.875C91.5833 39.7083 90.5833 38.4375 89.75 37.0625C88.9167 35.6458 88.4167 34.3125 88.25 33.0625C88 31.3542 87.9583 29.5625 88.125 27.6875C88.2917 25.8125 88.8958 24.0833 89.9375 22.5C91.0208 20.9167 92.6458 19.6042 94.8125 18.5625C97.0208 17.5208 100 17 103.75 17ZM101.688 41.25C102.146 41.3333 102.771 41.2292 103.562 40.9375C104.354 40.6042 105.125 40.0833 105.875 39.375C106.667 38.6667 107.354 37.7708 107.938 36.6875C108.562 35.5625 108.938 34.2083 109.062 32.625C109.188 31.0833 109.188 29.6667 109.062 28.375C108.979 27.0833 108.792 25.9583 108.5 25C108.208 24 107.875 23.1875 107.5 22.5625C107.125 21.9375 106.729 21.5 106.312 21.25C105.604 20.875 104.75 20.5833 103.75 20.375C102.75 20.125 101.896 20.1667 101.188 20.5C100.854 20.6667 100.438 21.0208 99.9375 21.5625C99.4375 22.1042 98.9375 22.7917 98.4375 23.625C97.9375 24.4167 97.4792 25.3333 97.0625 26.375C96.6875 27.4167 96.4167 28.5 96.25 29.625C96.0833 30.75 96.0417 31.9583 96.125 33.25C96.25 34.5417 96.5208 35.7708 96.9375 36.9375C97.3542 38.0625 97.9375 39.0417 98.6875 39.875C99.4792 40.6667 100.479 41.125 101.688 41.25ZM121.375 16.25C122.458 16.4583 123.396 16.625 124.188 16.75C125.021 16.8333 125.729 16.9167 126.312 17C126.979 17.0833 127.562 17.1458 128.062 17.1875C128.562 17.2292 129.146 17.2708 129.812 17.3125C130.938 17.3542 132.521 17.3542 134.562 17.3125C133.354 17.2292 132.396 17.5417 131.688 18.25C131.021 18.9167 130.521 19.6875 130.188 20.5625C129.771 21.6042 129.542 22.8125 129.5 24.1875C129.417 26.0208 129.458 27.6875 129.625 29.1875C129.833 30.6458 130.188 31.8958 130.688 32.9375C131.229 33.9375 131.938 34.6875 132.812 35.1875C133.688 35.6458 134.812 35.7708 136.188 35.5625C137.562 35.3542 138.604 34.875 139.312 34.125C140.062 33.3333 140.604 32.375 140.938 31.25C141.271 30.0833 141.458 28.7708 141.5 27.3125C141.583 25.8542 141.646 24.3333 141.688 22.75C141.688 21.1667 141.667 20.0417 141.625 19.375C141.625 18.6667 141.604 18.2083 141.562 18C141.521 17.7917 141.458 17.7083 141.375 17.75C141.292 17.75 141.188 17.6458 141.062 17.4375C140.979 17.2708 140.854 17.1042 140.688 16.9375C140.562 16.7708 140.396 16.5833 140.188 16.375C139.979 16.125 139.75 15.875 139.5 15.625C140.583 15.6667 141.542 15.7083 142.375 15.75C143.25 15.75 143.979 15.7708 144.562 15.8125C145.229 15.8542 145.812 15.8958 146.312 15.9375C146.771 15.9792 147.375 16.0417 148.125 16.125C148.75 16.2083 149.562 16.2917 150.562 16.375C151.562 16.4583 152.75 16.5833 154.125 16.75C153.167 16.9583 152.396 17.2708 151.812 17.6875C151.229 18.1042 150.771 18.5208 150.438 18.9375C150.062 19.3958 149.792 19.8958 149.625 20.4375C149.5 21.1458 149.5 22.2292 149.625 23.6875C149.708 24.9792 149.917 26.75 150.25 29C150.583 31.25 151.104 34.2083 151.812 37.875L146.875 40.8125L145.875 32.5C144.667 34.5417 143.375 36.125 142 37.25C140.667 38.3333 139.417 39.125 138.25 39.625C136.875 40.2083 135.542 40.5417 134.25 40.625C132.542 40.625 131.062 40.5208 129.812 40.3125C128.604 40.0625 127.562 39.75 126.688 39.375C125.812 39 125.104 38.5833 124.562 38.125C124.062 37.625 123.688 37.125 123.438 36.625C122.854 35.5833 122.542 34.25 122.5 32.625C122.458 30.9583 122.521 29.3125 122.688 27.6875C122.854 26.0208 123.042 24.5 123.25 23.125C123.458 21.75 123.521 20.8125 123.438 20.3125C123.354 19.9375 123.229 19.5208 123.062 19.0625C122.896 18.6875 122.688 18.2708 122.438 17.8125C122.188 17.3125 121.833 16.7917 121.375 16.25ZM154.312 5.625C155.562 5.75 156.604 5.85417 157.438 5.9375C158.312 6.02083 159.021 6.08333 159.562 6.125C160.188 6.16667 160.688 6.1875 161.062 6.1875C161.438 6.22917 161.938 6.22917 162.562 6.1875C163.104 6.14583 163.812 6.10417 164.688 6.0625C165.562 5.97917 166.667 5.85417 168 5.6875C167.708 6.10417 167.479 6.47917 167.312 6.8125C167.146 7.10417 167 7.375 166.875 7.625L166.5 8.375C166.417 8.625 166.333 8.875 166.25 9.125C166.167 9.33333 166.083 9.58333 166 9.875C165.958 10.1667 165.917 10.4792 165.875 10.8125H175.5L174.625 15.875L165.812 15.375C165.604 17.5 165.458 19.1458 165.375 20.3125C165.292 21.4792 165.208 22.3333 165.125 22.875L165 24C164.875 25.5833 164.75 27.3125 164.625 29.1875C164.5 31.0208 164.458 32.7292 164.5 34.3125C164.542 35.8958 164.688 37.2292 164.938 38.3125C165.188 39.3542 165.625 39.875 166.25 39.875C166.875 39.875 167.458 39.7083 168 39.375C168.542 39.0417 169 38.6458 169.375 38.1875C169.792 37.7292 170.104 37.2708 170.312 36.8125C170.521 36.3125 170.625 35.9375 170.625 35.6875C170.625 35.4375 170.562 35.1458 170.438 34.8125C170.229 34.1875 169.854 33.3958 169.312 32.4375C170.521 32.7292 171.583 33.0208 172.5 33.3125C172.958 33.4792 173.375 33.6458 173.75 33.8125C174.167 33.9792 174.646 34.1667 175.188 34.375C175.646 34.5833 176.229 34.8333 176.938 35.125C177.646 35.4167 178.479 35.7708 179.438 36.1875C178.521 36.3542 177.854 36.625 177.438 37C177.188 37.1667 177 37.3542 176.875 37.5625C176.583 38.0208 176.25 38.6458 175.875 39.4375C175.5 40.1875 174.938 40.9375 174.188 41.6875C173.438 42.4375 172.417 43.1042 171.125 43.6875C169.875 44.2708 168.188 44.6042 166.062 44.6875C163.854 44.7708 162.167 44.3958 161 43.5625C159.875 42.7292 159.042 41.7708 158.5 40.6875C158 39.5625 157.708 38.4583 157.625 37.375C157.542 36.2917 157.479 35.5625 157.438 35.1875C157.396 34.8125 157.396 33.875 157.438 32.375C157.479 30.875 157.542 29.2292 157.625 27.4375C157.708 25.6042 157.792 23.8542 157.875 22.1875C157.958 20.4792 158 19.2292 158 18.4375C158 18.0208 158.021 17.5833 158.062 17.125C158.062 16.75 158.062 16.3542 158.062 15.9375C158.104 15.4792 158.125 15.0417 158.125 14.625L149.062 14.5625L148.688 11L157.812 11.25C157.729 10.7917 157.625 10.375 157.5 10C157.417 9.58333 157.333 9.25 157.25 9C157.125 8.70833 157 8.45833 156.875 8.25C156.708 8.04167 156.521 7.8125 156.312 7.5625C156.104 7.35417 155.833 7.08333 155.5 6.75C155.167 6.41667 154.771 6.04167 154.312 5.625ZM196.125 0.1875C197.458 0.229167 198.625 0.25 199.625 0.25C200.625 0.208333 201.438 0.1875 202.062 0.1875H203.875C204.333 0.145833 204.896 0.125 205.562 0.125C206.146 0.125 206.854 0.125 207.688 0.125C208.521 0.125 209.479 0.145833 210.562 0.1875C210.896 1.35417 211.271 2.5 211.688 3.625C212.146 4.70833 212.542 5.6875 212.875 6.5625C213.292 7.60417 213.708 8.58333 214.125 9.5C214.542 10.4167 215.042 11.5208 215.625 12.8125C216.125 13.8958 216.729 15.2292 217.438 16.8125C218.146 18.3542 218.979 20.125 219.938 22.125C220.396 20.8333 220.812 19.6458 221.188 18.5625C221.604 17.4792 221.958 16.5417 222.25 15.75C222.583 14.8333 222.854 14 223.062 13.25C223.271 12.5 223.5 11.5833 223.75 10.5C223.958 9.58333 224.188 8.47917 224.438 7.1875C224.729 5.89583 225.021 4.39583 225.312 2.6875C226.521 2.6875 227.604 2.6875 228.562 2.6875C229.521 2.6875 230.354 2.66667 231.062 2.625C231.854 2.625 232.562 2.60417 233.188 2.5625C233.854 2.5625 234.75 2.52083 235.875 2.4375C236.833 2.35417 238.104 2.29167 239.688 2.25C241.312 2.16667 243.312 2.0625 245.688 1.9375C244.812 2.5625 244.104 3.1875 243.562 3.8125C243.062 4.39583 242.667 4.91667 242.375 5.375C242.042 5.91667 241.833 6.4375 241.75 6.9375C241.667 7.35417 241.583 8.3125 241.5 9.8125C241.458 11.3125 241.396 13.1042 241.312 15.1875C241.271 17.2292 241.229 19.4167 241.188 21.75C241.188 24.0833 241.208 26.2917 241.25 28.375C241.292 30.4583 241.354 32.2708 241.438 33.8125C241.562 35.3125 241.729 36.2708 241.938 36.6875C242.229 37.1875 242.625 37.7708 243.125 38.4375C243.583 39.0208 244.167 39.6875 244.875 40.4375C245.625 41.1875 246.604 42.0208 247.812 42.9375C245.896 43.0208 244.292 43.0833 243 43.125C241.75 43.1667 240.708 43.2083 239.875 43.25C238.917 43.2917 238.146 43.3125 237.562 43.3125C236.938 43.3125 236.083 43.3333 235 43.375C234.042 43.4167 232.771 43.4792 231.188 43.5625C229.604 43.6042 227.562 43.6875 225.062 43.8125C225.646 43.1458 226.188 42.4792 226.688 41.8125C227.188 41.1458 227.604 40.5417 227.938 40C228.354 39.375 228.708 38.7708 229 38.1875C229.292 37.3958 229.521 35.9583 229.688 33.875C229.854 32.0833 229.979 29.5208 230.062 26.1875C230.146 22.8125 230.146 18.2917 230.062 12.625C229.271 13.9167 228.562 15.2083 227.938 16.5C227.354 17.75 226.833 18.8958 226.375 19.9375C225.875 21.1458 225.417 22.3125 225 23.4375C224.583 24.6042 224.146 25.8958 223.688 27.3125C223.271 28.5208 222.771 29.9583 222.188 31.625C221.646 33.2917 221.021 35.125 220.312 37.125L217.938 37.25C217.604 35.5833 217.271 34.0833 216.938 32.75C216.604 31.375 216.271 30.2083 215.938 29.25C215.562 28.125 215.188 27.125 214.812 26.25C214.396 25.375 213.938 24.3958 213.438 23.3125C212.979 22.3958 212.417 21.3125 211.75 20.0625C211.125 18.8125 210.396 17.4167 209.562 15.875C209.146 20.125 208.896 23.5833 208.812 26.25C208.729 28.875 208.729 30.9167 208.812 32.375C208.896 34.125 209.021 35.3958 209.188 36.1875C209.438 36.8958 209.833 37.6875 210.375 38.5625C210.833 39.3125 211.458 40.2083 212.25 41.25C213.083 42.25 214.146 43.375 215.438 44.625C214.521 44.625 213.562 44.625 212.562 44.625C211.562 44.625 210.646 44.6458 209.812 44.6875C208.812 44.7292 207.833 44.75 206.875 44.75C205.875 44.7917 204.708 44.8542 203.375 44.9375C202.208 45.0208 200.812 45.1042 199.188 45.1875C197.562 45.2708 195.688 45.4167 193.562 45.625C194.479 45.0417 195.229 44.4792 195.812 43.9375C196.396 43.3542 196.854 42.8333 197.188 42.375C197.604 41.8333 197.917 41.2917 198.125 40.75C198.25 40.4167 198.354 39.6875 198.438 38.5625C198.562 37.4375 198.667 36.0625 198.75 34.4375C198.875 32.8125 198.958 31 199 29C199.083 27 199.146 24.9792 199.188 22.9375C199.271 20.8542 199.333 18.8333 199.375 16.875C199.417 14.875 199.438 13.0833 199.438 11.5C199.479 9.875 199.5 8.52083 199.5 7.4375C199.5 6.35417 199.5 5.66667 199.5 5.375C199.375 4.75 199.188 4.125 198.938 3.5C198.729 2.95833 198.396 2.39583 197.938 1.8125C197.479 1.22917 196.875 0.6875 196.125 0.1875ZM262.125 34.9375C263.292 34.9375 264.375 34.8125 265.375 34.5625C266.208 34.3542 267 34.0208 267.75 33.5625C268.542 33.0625 269.062 32.3333 269.312 31.375C270.146 31.5417 270.854 31.6875 271.438 31.8125C272.021 31.8958 272.521 31.9792 272.938 32.0625C273.396 32.1875 273.792 32.2708 274.125 32.3125C274.458 32.3958 274.854 32.4792 275.312 32.5625C275.729 32.6458 276.229 32.75 276.812 32.875C277.438 32.9583 278.167 33.0833 279 33.25C278.375 33.1667 277.729 33.2292 277.062 33.4375C276.438 33.6458 275.833 33.875 275.25 34.125C274.583 34.4167 273.958 34.7708 273.375 35.1875C273 35.4375 272.562 35.8125 272.062 36.3125C271.604 36.8125 270.938 37.2917 270.062 37.75C269.188 38.2083 268.021 38.6042 266.562 38.9375C265.146 39.2292 263.312 39.3333 261.062 39.25C258.354 39.1667 256.083 38.6875 254.25 37.8125C252.417 36.8958 250.938 35.7917 249.812 34.5C248.688 33.1667 247.875 31.7292 247.375 30.1875C246.875 28.6458 246.604 27.2083 246.562 25.875C246.521 24.5417 246.917 23.1458 247.75 21.6875C248.583 20.2292 249.75 18.8958 251.25 17.6875C252.792 16.4792 254.646 15.5 256.812 14.75C258.979 13.9583 261.354 13.5625 263.938 13.5625C265.438 13.5625 266.812 13.75 268.062 14.125C269.354 14.4583 270.521 14.9167 271.562 15.5C272.646 16.0833 273.583 16.75 274.375 17.5C275.167 18.2083 275.833 18.9375 276.375 19.6875C276.917 20.4792 277.375 21.3125 277.75 22.1875C278.083 22.9375 278.354 23.7917 278.562 24.75C278.771 25.7083 278.833 26.6875 278.75 27.6875C275.583 27.7708 273.021 27.8333 271.062 27.875C269.146 27.9167 267.646 27.9375 266.562 27.9375H263.75H261.625C260.875 27.9375 259.896 27.9583 258.688 28C257.479 28.0417 256 28.1042 254.25 28.1875C254.458 29.8542 254.979 31.1458 255.812 32.0625C256.688 32.9375 257.604 33.6042 258.562 34.0625C259.646 34.5625 260.833 34.8542 262.125 34.9375ZM256.5 23.6875C257.833 23.7708 258.938 23.8333 259.812 23.875C260.729 23.9167 261.479 23.9583 262.062 24C262.688 24.0417 263.188 24.0625 263.562 24.0625H265.125C266.167 24.0625 268.104 24 270.938 23.875C270.812 22.0417 270.417 20.6458 269.75 19.6875C269.125 18.7292 268.458 18.0208 267.75 17.5625C266.917 17.0625 266 16.7708 265 16.6875C262.292 16.7292 260.271 17.2917 258.938 18.375C257.646 19.4583 256.833 21.2292 256.5 23.6875Z" fill="black"/>
</svg>
