<?xml version="1.0" standalone="no"?>
<!DOCTYPE svg PUBLIC "-//W3C//DTD SVG 20010904//EN"
 "http://www.w3.org/TR/2001/REC-SVG-20010904/DTD/svg10.dtd">
<svg version="1.0" xmlns="http://www.w3.org/2000/svg"
 width="512.000000pt" height="512.000000pt" viewBox="0 0 512.000000 512.000000"
 preserveAspectRatio="xMidYMid meet">

<g transform="translate(0.000000,512.000000) scale(0.100000,-0.100000)"
fill="#000000" stroke="none">
<path d="M670 4900 c-33 -33 -30 -75 6 -107 31 -28 54 -29 88 -2 52 41 23 129
-44 129 -17 0 -39 -9 -50 -20z"/>
<path d="M940 4900 c-30 -30 -27 -83 6 -109 36 -29 60 -26 96 9 24 25 29 36
24 58 -14 58 -86 82 -126 42z"/>
<path d="M1211 4894 c-28 -36 -26 -70 5 -101 20 -20 31 -24 57 -19 64 12 87
77 42 121 -33 34 -77 33 -104 -1z"/>
<path d="M1485 4895 c-28 -27 -30 -42 -14 -78 11 -25 47 -47 75 -47 25 0 64
47 64 78 0 36 -37 72 -74 72 -15 0 -37 -10 -51 -25z"/>
<path d="M1760 4900 c-30 -30 -27 -83 6 -109 15 -12 34 -21 44 -21 10 0 29 9
44 21 52 41 23 129 -44 129 -17 0 -39 -9 -50 -20z"/>
<path d="M2032 4897 c-31 -33 -29 -80 4 -106 15 -12 33 -21 40 -21 28 0 63 24
74 49 30 74 -64 136 -118 78z"/>
<path d="M2301 4894 c-42 -54 -13 -118 54 -118 67 0 96 64 54 118 -15 19 -30
26 -54 26 -24 0 -39 -7 -54 -26z"/>
<path d="M2587 4909 c-46 -27 -41 -105 9 -128 37 -16 52 -14 79 14 63 62 -12
158 -88 114z"/>
<path d="M2850 4900 c-30 -30 -27 -83 6 -109 15 -12 34 -21 44 -21 10 0 29 9
44 21 52 41 23 129 -44 129 -17 0 -39 -9 -50 -20z"/>
<path d="M3122 4897 c-12 -13 -22 -36 -22 -51 0 -29 39 -76 64 -76 30 0 65 23
76 49 30 74 -64 136 -118 78z"/>
<path d="M86 4447 c-25 -14 -48 -39 -63 -66 -22 -41 -23 -55 -23 -218 0 -171
0 -174 25 -198 29 -30 64 -32 96 -6 23 18 24 26 29 188 l5 168 1792 3 1793 2
0 -780 0 -780 -1203 -2 -1202 -3 -33 -23 c-46 -33 -72 -90 -72 -157 l0 -55
-117 0 -117 0 -213 -212 -213 -212 0 186 c0 251 18 232 -227 238 l-188 5 -5
622 c-5 573 -6 624 -22 640 -26 26 -86 22 -109 -6 -18 -22 -19 -52 -19 -645 0
-581 2 -624 19 -661 39 -86 87 -105 266 -105 l135 0 0 -186 c0 -169 2 -190 20
-219 25 -41 68 -59 122 -52 38 5 59 23 267 231 l226 226 88 0 87 0 0 -784 c0
-532 3 -794 11 -813 15 -40 48 -73 94 -94 38 -18 99 -19 1385 -19 l1345 0 226
-226 c211 -211 228 -226 269 -231 52 -7 98 14 123 57 14 24 17 58 17 214 l0
186 138 0 c111 0 144 4 177 19 91 41 105 83 105 304 0 161 -1 175 -20 195 -27
29 -84 30 -108 2 -14 -17 -18 -48 -22 -193 l-5 -172 -188 -5 c-245 -6 -227 13
-227 -239 l0 -186 -210 210 -210 210 -1373 5 -1372 5 -3 898 -2 897 1792 -2
1793 -3 5 -610 c3 -335 6 -611 8 -613 12 -15 70 -29 91 -21 52 20 50 0 51 655
l0 611 -23 44 c-13 24 -39 53 -58 64 -33 19 -56 20 -589 25 l-555 5 -5 795
c-6 883 -1 831 -72 882 l-33 23 -1830 2 -1830 3 -39 -23z"/>
<path d="M459 3841 l-24 -19 -3 -389 c-3 -383 -2 -390 18 -416 27 -34 80 -37
110 -7 18 18 20 33 20 185 l0 165 180 0 180 0 0 -168 c0 -151 2 -171 18 -185
27 -24 85 -22 108 4 18 20 19 44 22 383 2 198 0 376 -3 394 -12 66 -82 95
-125 52 -18 -18 -20 -33 -20 -175 l0 -155 -180 0 -180 0 0 153 c0 148 -1 154
-23 175 -29 27 -67 28 -98 3z"/>
<path d="M1540 3846 c-119 -32 -225 -117 -279 -224 -190 -376 205 -773 585
-587 167 82 267 276 234 457 -45 254 -298 420 -540 354z m203 -152 c92 -31
175 -131 192 -231 21 -130 -74 -280 -199 -314 -144 -40 -278 20 -348 154 -31
59 -31 173 -1 239 60 131 219 199 356 152z"/>
<path d="M2235 3835 l-25 -24 0 -385 0 -385 24 -28 24 -28 156 0 c147 0 157 1
177 22 29 28 29 77 2 105 -18 18 -34 21 -125 22 l-103 1 -3 339 c-2 333 -3
340 -24 363 -29 31 -72 30 -103 -2z"/>
<path d="M3045 3838 c-19 -17 -60 -114 -165 -390 -77 -202 -140 -378 -140
-392 0 -36 33 -66 73 -66 43 0 60 19 91 100 l24 65 170 3 169 2 23 -62 c28
-80 54 -108 96 -108 33 0 74 37 74 67 0 8 -63 181 -140 386 -148 393 -161 417
-220 417 -16 0 -41 -10 -55 -22z m108 -376 c26 -70 47 -133 47 -139 0 -10 -28
-13 -106 -13 -81 0 -105 3 -101 13 2 6 26 69 52 140 27 70 51 127 54 127 3 0
27 -58 54 -128z"/>
<path d="M1660 2130 c-19 -19 -20 -33 -20 -415 0 -382 1 -396 20 -415 25 -25
71 -26 101 -1 23 19 24 25 27 185 l4 166 174 0 174 0 0 -163 c0 -150 2 -165
20 -185 30 -32 82 -30 109 4 20 26 21 37 21 409 0 372 -1 383 -21 409 -27 34
-79 36 -109 4 -18 -20 -20 -35 -20 -175 l0 -153 -174 0 -174 0 -4 156 c-3 150
-4 157 -27 175 -30 25 -76 24 -101 -1z"/>
<path d="M2459 2120 l-30 -29 3 -385 c3 -361 4 -385 22 -405 18 -20 29 -21
201 -21 163 0 185 2 206 18 33 27 30 78 -5 109 -25 21 -35 23 -152 23 l-125 0
3 103 3 102 123 5 c137 6 152 13 152 75 0 58 -26 70 -161 73 l-120 4 3 101 3
102 131 3 c116 2 133 5 149 22 28 31 23 79 -9 107 -26 22 -33 23 -197 23
l-171 0 -29 -30z"/>
<path d="M3011 2124 c-20 -26 -21 -37 -21 -409 0 -372 1 -383 21 -409 l20 -26
163 0 c178 0 186 3 201 62 6 22 1 33 -23 58 -30 29 -32 30 -131 30 l-101 0 0
340 c0 327 -1 341 -20 360 -30 30 -83 27 -109 -6z"/>
<path d="M3521 2124 c-20 -26 -21 -37 -21 -409 0 -372 1 -383 21 -409 l20 -26
163 0 c178 0 186 3 201 62 6 22 1 33 -23 58 -30 29 -32 30 -131 30 l-101 0 0
340 c0 327 -1 341 -20 360 -30 30 -83 27 -109 -6z"/>
<path d="M4203 2135 c-79 -22 -131 -51 -195 -113 -217 -206 -162 -565 105
-697 181 -89 377 -56 512 86 131 137 159 325 74 497 -89 181 -303 279 -496
227z m197 -151 c78 -23 162 -109 185 -189 70 -239 -176 -450 -398 -342 -104
52 -161 144 -161 262 0 87 31 153 100 214 76 67 170 86 274 55z"/>
<path d="M1946 339 c-19 -15 -26 -30 -26 -54 0 -79 99 -104 135 -35 19 36 4
83 -31 99 -35 16 -47 14 -78 -10z"/>
<path d="M2215 335 c-30 -30 -32 -64 -4 -99 27 -34 71 -35 104 -1 14 13 25 36
25 50 0 33 -42 75 -75 75 -14 0 -37 -11 -50 -25z"/>
<path d="M2503 350 c-47 -19 -56 -78 -18 -115 31 -32 74 -33 103 -2 29 31 28
72 -3 102 -25 26 -45 30 -82 15z"/>
<path d="M2766 338 c-52 -47 -25 -128 42 -128 67 0 98 88 46 129 -34 27 -57
26 -88 -1z"/>
<path d="M3036 339 c-69 -54 6 -160 85 -118 48 25 44 105 -7 128 -35 16 -48
14 -78 -10z"/>
<path d="M3305 335 c-14 -13 -25 -36 -25 -50 0 -33 42 -75 75 -75 33 0 75 42
75 75 0 33 -42 75 -75 75 -14 0 -37 -11 -50 -25z"/>
<path d="M3581 343 c-11 -10 -24 -32 -27 -50 -13 -67 77 -110 124 -60 29 31
28 72 -3 102 -28 29 -64 32 -94 8z"/>
</g>
</svg>
