<?xml version="1.0" encoding="utf-8"?>
<!-- Uploaded to: SVG Repo, www.svgrepo.com, Generator: SVG Repo Mixer Tools -->
<svg fill="#000000" height="800px" width="800px" version="1.1" id="Layer_1" xmlns="http://www.w3.org/2000/svg" xmlns:xlink="http://www.w3.org/1999/xlink" 
	 viewBox="0 0 256 256" xml:space="preserve">
<g>
	<circle cx="147.1" cy="35.7" r="19.6"/>
	<path d="M211,34.2L183.3,6.5c-3.3-3.3-8.8-3.3-12.1,0c-3.3,3.3-3.3,8.8,0,12.1l21.6,21.6l-15.6,15.6c-2.9,2.9-6.6,4.3-10.4,4.3
		h-19.7h0h-20c-6.3,0-12.5,2.4-17.3,7.2c-0.1,0.1-16.9,17-16.9,17L71.2,62.6c-3.3-3.3-8.8-3.3-12.1,0c-3.3,3.3-3.3,8.8,0,12.1
		l27.7,27.7c3.3,3.3,8.8,3.3,12.1,0L116,85.3c0.4-0.4,1.1-0.7,1.7-0.7c1.4,0,2.4,1.1,2.4,2.4v22v41.6v88.1c0,6.8,5.5,12.2,12.2,12.2
		c6.8,0,12.2-5.5,12.2-12.2v-85.7c0-1.4,1.1-2.4,2.4-2.4c1.4,0,2.4,1.1,2.4,2.4v85.7c0,6.8,5.5,12.2,12.2,12.2
		c6.8,0,12.2-5.5,12.2-12.2v-88.1h0V83.3L211,46.3C214.3,43,214.3,37.6,211,34.2z"/>
</g>
</svg>