<?xml version="1.0" standalone="no"?>
<!DOCTYPE svg PUBLIC "-//W3C//DTD SVG 20010904//EN"
 "http://www.w3.org/TR/2001/REC-SVG-20010904/DTD/svg10.dtd">
<svg version="1.0" xmlns="http://www.w3.org/2000/svg"
 width="512.000000pt" height="512.000000pt" viewBox="0 0 512.000000 512.000000"
 preserveAspectRatio="xMidYMid meet">

<g transform="translate(0.000000,512.000000) scale(0.100000,-0.100000)"
fill="#000000" stroke="none">
<path d="M590 4430 l0 -160 1970 0 1970 0 0 160 0 160 -1970 0 -1970 0 0 -160z"/>
<path d="M556 4058 c-180 -626 -293 -1198 -340 -1728 -34 -374 -55 -972 -56
-1523 l0 -277 886 2 887 3 277 854 c188 576 284 860 298 874 27 26 77 27 104
0 13 -14 111 -301 298 -874 l277 -854 888 -3 888 -2 -6 507 c-11 843 -36 1263
-103 1723 -54 369 -154 819 -290 1298 l-15 52 -300 0 -299 0 0 -92 c1 -289
103 -577 255 -716 55 -51 139 -106 197 -128 64 -25 88 -51 88 -94 0 -69 -51
-91 -136 -59 -339 126 -540 464 -562 944 l-7 140 -537 3 c-296 1 -538 0 -538
-3 0 -3 21 -47 46 -97 93 -186 167 -408 204 -611 27 -147 42 -349 30 -382 -20
-53 -114 -63 -140 -15 -5 9 -14 78 -20 151 -21 263 -88 511 -202 752 -34 70
-64 127 -68 127 -4 0 -34 -57 -68 -127 -114 -238 -181 -488 -202 -752 -6 -73
-15 -142 -21 -152 -17 -32 -87 -41 -118 -16 -27 22 -31 58 -21 182 25 301 103
582 235 845 25 49 45 92 45 95 0 3 -242 4 -537 3 l-538 -3 -7 -140 c-22 -480
-223 -818 -562 -944 -85 -32 -136 -10 -136 59 0 45 24 68 100 99 75 29 184
113 242 185 116 145 184 355 195 609 l6 137 -301 0 -301 0 -15 -52z"/>
</g>
</svg>
