<?xml version="1.0" encoding="iso-8859-1"?>
<!-- Uploaded to: SVG Repo, www.svgrepo.com, Generator: SVG Repo Mixer Tools -->
<svg fill="#000000" height="800px" width="800px" version="1.1" id="Layer_1" xmlns="http://www.w3.org/2000/svg" xmlns:xlink="http://www.w3.org/1999/xlink" 
	 viewBox="0 0 503.607 503.607" xml:space="preserve">
<g>
	<g>
		<g>
			<path d="M356.721,306.363c0,6.941,5.649,12.59,12.59,12.59h75.541c6.941,0,12.59-5.649,12.59-12.59s-5.649-12.59-12.59-12.59
				h-75.541C362.37,293.773,356.721,299.422,356.721,306.363z"/>
			<path d="M444.852,335.74h-75.541c-6.941,0-12.59,5.649-12.59,12.59s5.649,12.59,12.59,12.59h75.541
				c6.941,0,12.59-5.649,12.59-12.59S451.794,335.74,444.852,335.74z"/>
			<path d="M444.852,377.707h-75.541c-6.941,0-12.59,5.649-12.59,12.59c0,6.941,5.649,12.59,12.59,12.59h75.541
				c6.941,0,12.59-5.649,12.59-12.59C457.443,383.356,451.794,377.707,444.852,377.707z"/>
			<path d="M373.508,142.093V268.59c0,4.642,3.752,8.393,8.393,8.393h50.361c4.642,0,8.393-3.752,8.393-8.393V83.934
				c0-29.537-21.94-53.987-50.361-58.083v25.701c14.437,3.752,25.18,16.787,25.18,32.382c0,18.516-15.058,33.574-33.574,33.574
				c-18.516,0-33.574-15.058-33.574-33.574c0-15.595,10.744-28.63,25.18-32.382V25.18h-58.175l-0.588-17.072
				C314.586,3.584,310.885,0,306.361,0H256c-4.524,0-8.226,3.584-8.385,8.108l-0.588,17.072h-66.568
				c-41.657,0-75.541,33.893-75.541,75.541v16.787c0,1.519,0.411,3.013,1.2,4.323l23.98,39.97v31.249h-4.474
				c-11.424,0-20.707,9.292-20.707,20.715v25.726c0,11.415,9.283,20.707,20.707,20.707h25.734c11.423,0,20.707-9.292,20.707-20.707
				v-25.726c0-11.424-9.283-20.715-20.707-20.715h-4.474V161.8l23.98-39.97c0.789-1.309,1.2-2.803,1.2-4.323v-16.787
				c0-4.625,3.76-8.393,8.393-8.393h64.252l-8.973,260.197H72.528c-14.537,0-26.364,11.826-26.364,26.364v14.428
				c0,14.537,11.826,26.355,26.364,26.355h15.603v75.541c0,4.642,3.752,8.393,8.393,8.393c4.642,0,8.393-3.752,8.393-8.393v-75.541
				h128.504l-2.073,59.98c-0.218,6.329,2.09,12.33,6.497,16.888c4.398,4.558,10.316,7.067,16.653,7.067h53.365
				c6.337,0,12.254-2.51,16.653-7.067c4.407-4.558,6.715-10.559,6.497-16.896L317.65,92.328h6.094
				C327.437,118.02,347.807,138.399,373.508,142.093z"/>
		</g>
	</g>
</g>
</svg>