<?xml version="1.0" standalone="no"?>
<!DOCTYPE svg PUBLIC "-//W3C//DTD SVG 20010904//EN"
 "http://www.w3.org/TR/2001/REC-SVG-20010904/DTD/svg10.dtd">
<svg version="1.0" xmlns="http://www.w3.org/2000/svg"
 width="512.000000pt" height="512.000000pt" viewBox="0 0 512.000000 512.000000"
 preserveAspectRatio="xMidYMid meet">

<g transform="translate(0.000000,512.000000) scale(0.100000,-0.100000)"
fill="#000000" stroke="none">
<path d="M645 4470 c-160 -32 -304 -142 -374 -285 -57 -118 -56 -100 -56 -880
0 -671 1 -724 18 -780 29 -93 73 -168 138 -232 105 -104 214 -150 382 -160
l97 -6 0 -176 c0 -97 5 -193 10 -213 21 -76 106 -127 188 -112 32 5 72 41 287
255 l250 248 60 3 60 3 6 390 c3 263 9 401 17 425 7 19 12 36 12 38 0 1 -68 1
-152 0 l-152 -3 -87 -190 c-72 -158 -92 -194 -120 -213 -26 -18 -43 -22 -69
-18 -47 7 -90 55 -90 100 0 22 86 223 259 604 143 314 269 589 281 612 36 71
123 87 174 32 8 -10 65 -128 126 -262 61 -134 113 -247 116 -251 2 -4 43 13
91 37 155 78 153 78 646 82 l437 3 0 233 c0 128 -5 259 -11 292 -36 198 -202
372 -401 419 -54 12 -216 15 -1083 14 -561 -1 -1038 -5 -1060 -9z"/>
<path d="M1622 3397 c-45 -100 -82 -185 -82 -189 0 -5 70 -8 155 -8 152 0 155
0 160 23 4 15 -18 74 -70 186 -41 91 -76 166 -78 167 -1 1 -39 -79 -85 -179z"/>
<path d="M2365 3299 c-76 -11 -206 -73 -267 -128 -58 -51 -115 -136 -148 -221
l-25 -65 -3 -722 c-3 -799 -3 -796 60 -917 48 -90 147 -185 238 -229 41 -19
102 -40 134 -46 38 -7 262 -11 615 -11 l556 0 230 -231 c127 -127 249 -242
273 -256 76 -45 177 -18 220 60 14 27 18 65 20 228 l3 196 107 6 c166 8 270
52 374 158 77 79 135 196 149 304 6 51 9 325 7 760 -3 625 -5 684 -22 735 -59
181 -185 306 -366 366 -52 18 -115 19 -1075 20 -561 1 -1047 -2 -1080 -7z
m1090 -483 c53 -23 65 -57 65 -191 l0 -115 215 0 c232 0 267 -6 299 -51 22
-33 20 -91 -5 -122 -19 -25 -63 -43 -118 -49 -22 -3 -26 -11 -41 -88 -31 -151
-114 -318 -211 -425 -32 -35 -48 -60 -43 -65 16 -16 156 -48 243 -56 73 -6 86
-10 112 -36 22 -23 29 -39 29 -69 0 -103 -65 -127 -255 -94 -101 18 -186 45
-268 86 l-59 29 -71 -34 c-170 -80 -394 -119 -468 -80 -36 18 -63 74 -54 114
12 54 46 73 160 87 101 12 195 34 225 53 11 7 4 19 -37 63 -56 59 -115 145
-145 214 -16 37 -17 49 -8 78 16 47 53 75 102 75 49 0 85 -35 137 -128 19 -34
61 -90 94 -124 l60 -63 67 72 c89 96 159 232 185 361 l7 32 -402 0 c-447 0
-454 1 -484 65 -20 41 -20 49 0 90 28 59 55 65 303 65 l221 0 0 123 c0 136 8
158 64 183 39 17 40 17 81 0z"/>
</g>
</svg>
