<svg width="558" height="96" viewBox="0 0 558 96" fill="none" xmlns="http://www.w3.org/2000/svg">
<path d="M-0.46875 6.78125C1.53125 6.84375 3.28125 6.875 4.78125 6.875C6.28125 6.8125 7.5 6.78125 8.4375 6.78125H11.1562C11.8438 6.71875 12.6875 6.6875 13.6875 6.6875C14.5625 6.6875 15.625 6.6875 16.875 6.6875C18.125 6.6875 19.5625 6.71875 21.1875 6.78125C21.6875 8.53125 22.25 10.25 22.875 11.9375C23.5625 13.5625 24.1562 15.0312 24.6562 16.3438C25.2812 17.9062 25.9062 19.375 26.5312 20.75C27.1562 22.125 27.9062 23.7812 28.7812 25.7188C29.5312 27.3438 30.4375 29.3438 31.5 31.7188C32.5625 34.0312 33.8125 36.6875 35.25 39.6875C35.9375 37.75 36.5625 35.9688 37.125 34.3438C37.75 32.7188 38.2812 31.3125 38.7188 30.125C39.2188 28.75 39.625 27.5 39.9375 26.375C40.25 25.25 40.5938 23.875 40.9688 22.25C41.2812 20.875 41.625 19.2188 42 17.2812C42.4375 15.3438 42.875 13.0938 43.3125 10.5312C45.125 10.5312 46.75 10.5312 48.1875 10.5312C49.625 10.5312 50.875 10.5 51.9375 10.4375C53.125 10.4375 54.1875 10.4062 55.125 10.3438C56.125 10.3438 57.4688 10.2813 59.1562 10.1562C60.5938 10.0312 62.5 9.9375 64.875 9.875C67.3125 9.75 70.3125 9.59375 73.875 9.40625C72.5625 10.3438 71.5 11.2812 70.6875 12.2188C69.9375 13.0938 69.3438 13.875 68.9062 14.5625C68.4062 15.375 68.0938 16.1562 67.9688 16.9062C67.8438 17.5312 67.7188 18.9688 67.5938 21.2188C67.5312 23.4688 67.4375 26.1562 67.3125 29.2812C67.25 32.3438 67.1875 35.625 67.125 39.125C67.125 42.625 67.1562 45.9375 67.2188 49.0625C67.2812 52.1875 67.375 54.9062 67.5 57.2188C67.6875 59.4688 67.9375 60.9062 68.25 61.5312C68.6875 62.2812 69.2812 63.1562 70.0312 64.1562C70.7188 65.0312 71.5938 66.0312 72.6562 67.1562C73.7812 68.2812 75.25 69.5312 77.0625 70.9062C74.1875 71.0312 71.7812 71.125 69.8438 71.1875C67.9688 71.25 66.4062 71.3125 65.1562 71.375C63.7188 71.4375 62.5625 71.4688 61.6875 71.4688C60.75 71.4688 59.4688 71.5 57.8438 71.5625C56.4062 71.625 54.5 71.7188 52.125 71.8438C49.75 71.9062 46.6875 72.0312 42.9375 72.2188C43.8125 71.2188 44.625 70.2188 45.375 69.2188C46.125 68.2188 46.75 67.3125 47.25 66.5C47.875 65.5625 48.4062 64.6562 48.8438 63.7812C49.2812 62.5938 49.625 60.4375 49.875 57.3125C50.125 54.625 50.3125 50.7812 50.4375 45.7812C50.5625 40.7188 50.5625 33.9375 50.4375 25.4375C49.25 27.375 48.1875 29.3125 47.25 31.25C46.375 33.125 45.5938 34.8438 44.9062 36.4062C44.1562 38.2188 43.4688 39.9688 42.8438 41.6562C42.2188 43.4062 41.5625 45.3438 40.875 47.4688C40.25 49.2812 39.5 51.4375 38.625 53.9375C37.8125 56.4375 36.875 59.1875 35.8125 62.1875L32.25 62.375C31.75 59.875 31.25 57.625 30.75 55.625C30.25 53.5625 29.75 51.8125 29.25 50.375C28.6875 48.6875 28.125 47.1875 27.5625 45.875C26.9375 44.5625 26.25 43.0938 25.5 41.4688C24.8125 40.0938 23.9688 38.4688 22.9688 36.5938C22.0312 34.7188 20.9375 32.625 19.6875 30.3125C19.0625 36.6875 18.6875 41.875 18.5625 45.875C18.4375 49.8125 18.4375 52.875 18.5625 55.0625C18.6875 57.6875 18.875 59.5938 19.125 60.7812C19.5 61.8438 20.0938 63.0312 20.9062 64.3438C21.5938 65.4688 22.5312 66.8125 23.7188 68.375C24.9688 69.875 26.5625 71.5625 28.5 73.4375C27.125 73.4375 25.6875 73.4375 24.1875 73.4375C22.6875 73.4375 21.3125 73.4688 20.0625 73.5312C18.5625 73.5938 17.0938 73.625 15.6562 73.625C14.1562 73.6875 12.4062 73.7812 10.4062 73.9062C8.65625 74.0312 6.5625 74.1562 4.125 74.2812C1.6875 74.4062 -1.125 74.625 -4.3125 74.9375C-2.9375 74.0625 -1.8125 73.2188 -0.9375 72.4062C-0.0625 71.5312 0.625 70.75 1.125 70.0625C1.75 69.25 2.21875 68.4375 2.53125 67.625C2.71875 67.125 2.875 66.0312 3 64.3438C3.1875 62.6562 3.34375 60.5938 3.46875 58.1562C3.65625 55.7188 3.78125 53 3.84375 50C3.96875 47 4.0625 43.9688 4.125 40.9062C4.25 37.7812 4.34375 34.75 4.40625 31.8125C4.46875 28.8125 4.5 26.125 4.5 23.75C4.5625 21.3125 4.59375 19.2812 4.59375 17.6562C4.59375 16.0312 4.59375 15 4.59375 14.5625C4.40625 13.625 4.125 12.6875 3.75 11.75C3.4375 10.9375 2.9375 10.0938 2.25 9.21875C1.5625 8.34375 0.65625 7.53125 -0.46875 6.78125ZM72.2812 26.0938C73.5312 26.2812 74.6562 26.4375 75.6562 26.5625C76.5938 26.625 77.4375 26.6875 78.1875 26.75C79 26.8125 79.7812 26.8438 80.5312 26.8438C81.2188 26.8438 82.0938 26.8125 83.1562 26.75C84.0312 26.6875 85.1562 26.625 86.5312 26.5625C87.9688 26.4375 89.6562 26.2812 91.5938 26.0938C91.4688 26.3438 91.2188 27.125 90.8438 28.4375C90.4688 29.6875 90.0938 31.25 89.7188 33.125C89.3438 34.9375 89 36.9688 88.6875 39.2188C88.4375 41.4062 88.3125 43.5938 88.3125 45.7812C88.375 47.9062 88.6562 49.9375 89.1562 51.875C89.6562 53.75 90.4688 55.2812 91.5938 56.4688C93.9688 58.9062 96.0625 60.375 97.875 60.875C99.75 61.375 101.375 61.3125 102.75 60.6875C104.125 60.0625 105.25 59.125 106.125 57.875C107 56.625 107.625 55.4688 108 54.4062C108.938 51.5312 109.5 48.5 109.688 45.3125C109.812 42.5625 109.594 39.5 109.031 36.125C108.469 32.75 107.125 29.3125 105 25.8125C106.625 25.9375 108.031 26.0312 109.219 26.0938C110.406 26.1562 111.438 26.2188 112.312 26.2812C113.312 26.3438 114.188 26.4062 114.938 26.4688C115.625 26.5312 116.438 26.5312 117.375 26.4688C118.188 26.4688 119.156 26.4375 120.281 26.375C121.469 26.25 122.781 26.125 124.219 26C124.469 32.125 124.688 37.5938 124.875 42.4062C125.062 47.1562 125.188 51.375 125.25 55.0625C125.375 58.6875 125.438 61.8438 125.438 64.5312C125.438 67.1562 125.438 69.375 125.438 71.1875C125.375 75.5 125.188 78.3438 124.875 79.7188C124.375 81.6562 123.469 83.5938 122.156 85.5312C120.906 87.4688 119.312 89.1875 117.375 90.6875C115.438 92.25 113.188 93.4375 110.625 94.25C108.125 95.125 105.375 95.4375 102.375 95.1875C99.4375 94.9375 97.0938 94.5312 95.3438 93.9688C93.6562 93.4688 92.3125 92.875 91.3125 92.1875C90.375 91.5 89.6875 90.7812 89.25 90.0312C88.875 89.2812 88.5938 88.5 88.4062 87.6875C88.2188 86.9375 88.0312 86.2188 87.8438 85.5312C87.6562 84.8438 87.2812 84.25 86.7188 83.75C86.0312 83.1875 85.3125 82.625 84.5625 82.0625C83.875 81.5625 83.125 81.0625 82.3125 80.5625C81.5625 80.0625 80.8125 79.6562 80.0625 79.3438L100.031 78.2188C99.4688 78.9688 99.0625 79.6562 98.8125 80.2812C98.5625 80.9062 98.4062 81.4375 98.3438 81.875C98.2812 82.4375 98.3125 82.9062 98.4375 83.2812C98.6875 84.0312 99.125 84.8438 99.75 85.7188C100.438 86.6562 101.312 87.375 102.375 87.875C103.438 88.4375 104.688 88.625 106.125 88.4375C107.625 88.25 109.312 87.4688 111.188 86.0938C112.75 84.9062 114.062 83 115.125 80.375C116 78.125 116.688 74.9688 117.188 70.9062C117.688 66.8438 117.594 61.5 116.906 54.875C115.781 58.75 114.25 61.7188 112.312 63.7812C110.375 65.8438 108.438 67.3438 106.5 68.2812C104.25 69.4062 101.906 70 99.4688 70.0625C96.2188 69.9375 93.4375 69.5312 91.125 68.8438C88.8125 68.0938 86.9062 67.0938 85.4062 65.8438C83.9062 64.5938 82.7188 63.125 81.8438 61.4375C81.0312 59.6875 80.4375 57.75 80.0625 55.625C79.6875 53.5 79.5 51.375 79.5 49.25C79.5 47.0625 79.5 45.0312 79.5 43.1562C79.5625 41.2812 79.5938 39.5938 79.5938 38.0938C79.5938 36.5312 79.4375 35.2812 79.125 34.3438C78.75 33.4062 78.25 32.4688 77.625 31.5312C77.125 30.7188 76.4375 29.8438 75.5625 28.9062C74.625 27.9062 73.5312 26.9688 72.2812 26.0938ZM221.812 5.375C220.938 7.375 220.156 9.125 219.469 10.625C218.781 12.125 218.188 13.4062 217.688 14.4688C217.125 15.6562 216.656 16.7188 216.281 17.6562C215.969 18.3438 215.562 19.2812 215.062 20.4688C214.562 21.5312 213.938 22.9375 213.188 24.6875C212.5 26.375 211.594 28.5625 210.469 31.25C209.906 28.9375 209.219 26.9062 208.406 25.1562C207.594 23.4062 206.719 21.875 205.781 20.5625C204.844 19.25 203.844 18.1875 202.781 17.375C201.781 16.5 200.781 15.7812 199.781 15.2188C197.469 13.9687 195.031 13.2813 192.469 13.1562C189.094 13.3438 186.438 13.9062 184.5 14.8438C182.625 15.7188 181.25 16.75 180.375 17.9375C179.5 19.0625 179.031 20.25 178.969 21.5C178.906 22.6875 179.062 23.6875 179.438 24.5C179.75 25.25 180.844 26.125 182.719 27.125C184.656 28.125 186.969 29.2812 189.656 30.5938C192.406 31.8438 195.344 33.2812 198.469 34.9062C201.594 36.4688 204.469 38.2188 207.094 40.1562C209.781 42.0312 212.031 44.0938 213.844 46.3438C215.719 48.5312 216.75 50.875 216.938 53.375C217.125 56.5625 217.094 59.4375 216.844 62C216.594 64.5625 215.719 66.75 214.219 68.5625C212.719 70.375 210.375 71.8125 207.188 72.875C204.062 73.9375 199.719 74.5938 194.156 74.8438C188.406 75.0938 183.688 74.7812 180 73.9062C176.312 73.0312 173.312 71.8438 171 70.3438C168.75 68.8438 167.062 67.1875 165.938 65.375C164.875 63.5625 164.094 61.8438 163.594 60.2188C163.094 58.5312 162.75 57.0938 162.562 55.9062C162.375 54.6562 162.062 53.9062 161.625 53.6562C161.125 53.3438 160.625 53.0625 160.125 52.8125C159.688 52.5625 159.219 52.3438 158.719 52.1562C158.219 51.9062 157.719 51.6875 157.219 51.5L184.5 47.0938C182.938 48.3438 181.719 49.5 180.844 50.5625C180.031 51.625 179.406 52.5625 178.969 53.375C178.469 54.3125 178.125 55.1875 177.938 56C177.812 56.875 178.094 57.9688 178.781 59.2812C179.469 60.5938 180.406 61.875 181.594 63.125C182.844 64.3125 184.281 65.3125 185.906 66.125C187.531 66.9375 189.219 67.2812 190.969 67.1562C193.156 66.9688 194.938 66.4375 196.312 65.5625C197.688 64.625 198.719 63.4688 199.406 62.0938C200.156 60.7188 200.594 59.2188 200.719 57.5938C200.844 55.9688 200.688 54.375 200.25 52.8125C199.875 51.1875 199.25 49.6875 198.375 48.3125C197.5 46.875 196.469 45.6875 195.281 44.75C194.219 44 192.562 43.2812 190.312 42.5938C188.125 41.9062 185.656 41.1562 182.906 40.3438C180.219 39.5312 177.438 38.5938 174.562 37.5312C171.75 36.4688 169.188 35.1562 166.875 33.5938C164.625 32.0312 162.812 30.1875 161.438 28.0625C160.125 25.9375 159.625 23.375 159.938 20.375C160.188 17.8125 161 15.6875 162.375 14C163.812 12.25 165.594 10.875 167.719 9.875C169.906 8.8125 172.312 8.03125 174.938 7.53125C177.625 7.03125 180.344 6.75 183.094 6.6875C185.906 6.5625 188.656 6.59375 191.344 6.78125C194.094 6.96875 196.562 7.1875 198.75 7.4375C200.938 7.6875 202.781 7.9375 204.281 8.1875C205.844 8.375 206.812 8.5 207.188 8.5625C208.812 8.6875 210.438 8.65625 212.062 8.46875C213.5 8.34375 215.062 8.0625 216.75 7.625C218.5 7.125 220.188 6.375 221.812 5.375ZM274.219 40.7188C273.469 40.5938 272.531 40.5 271.406 40.4375C270.344 40.375 269.312 40.3438 268.312 40.3438C267.188 40.3438 266 40.375 264.75 40.4375C263.438 40.5 262.125 40.5625 260.812 40.625C259.688 40.6875 258.406 40.7812 256.969 40.9062C255.594 40.9688 254.25 41.0625 252.938 41.1875C253.438 40.9375 253.875 40.5938 254.25 40.1562C254.688 39.7188 255.062 39.2812 255.375 38.8438C255.688 38.3438 255.969 37.8125 256.219 37.25C256.531 36.3125 256.5 35.1875 256.125 33.875C255.75 32.5 255.062 31.25 254.062 30.125C253.125 29 251.906 28.125 250.406 27.5C248.969 26.8125 247.375 26.6562 245.625 27.0312C243.75 27.4688 242.062 28.125 240.562 29C239.125 29.875 237.906 31.0938 236.906 32.6562C235.969 34.1562 235.281 36.0312 234.844 38.2812C234.469 40.4688 234.375 43.0938 234.562 46.1562C234.812 49.9688 235.438 53 236.438 55.25C237.438 57.5 238.656 59.1875 240.094 60.3125C241.531 61.4375 243.094 62.125 244.781 62.375C246.531 62.5625 248.25 62.5625 249.938 62.375C251.125 62.125 252.219 61.5938 253.219 60.7812C254.031 60.0938 254.781 59.0938 255.469 57.7812C256.156 56.4688 256.469 54.6562 256.406 52.3438L267.844 51.875C266.531 55.5625 264.938 58.5 263.062 60.6875C261.188 62.8125 259.375 64.4688 257.625 65.6562C255.562 67.0312 253.5 67.9688 251.438 68.4688C248.875 68.9062 246.594 69.0938 244.594 69.0312C242.594 68.9062 240.781 68.5938 239.156 68.0938C237.531 67.5938 236.031 66.9688 234.656 66.2188C233.281 65.4688 231.969 64.6562 230.719 63.7812C229.906 63.2188 229 62.2812 228 60.9688C227 59.6562 226.062 58.0938 225.188 56.2812C224.312 54.4062 223.594 52.3438 223.031 50.0938C222.469 47.8438 222.25 45.5312 222.375 43.1562C222.5 40.7188 223.062 38.2812 224.062 35.8438C225.062 33.4062 226.656 31.0625 228.844 28.8125C232.156 25.4375 235.688 23.25 239.438 22.25C243.25 21.1875 246.844 20.9062 250.219 21.4062C253.594 21.8438 256.594 22.8125 259.219 24.3125C261.844 25.8125 263.688 27.4375 264.75 29.1875C265.812 30.9375 266.594 32.2812 267.094 33.2188C267.656 34.0938 268.062 34.7812 268.312 35.2812C268.625 35.7188 268.875 36.0625 269.062 36.3125C269.312 36.5 269.656 36.7812 270.094 37.1562C270.406 37.4688 270.781 37.8125 271.219 38.1875C271.594 38.5 272.031 38.875 272.531 39.3125C273.031 39.75 273.594 40.2188 274.219 40.7188ZM272.344 2.9375C273.781 3.1875 275.094 3.375 276.281 3.5C277.469 3.5625 278.469 3.625 279.281 3.6875C280.219 3.75 281.031 3.78125 281.719 3.78125C282.656 3.71875 283.75 3.625 285 3.5C286.062 3.375 287.344 3.21875 288.844 3.03125C290.406 2.84375 292.188 2.59375 294.188 2.28125C293.25 2.78125 292.469 3.28125 291.844 3.78125C291.219 4.21875 290.719 4.6875 290.344 5.1875C289.906 5.75 289.562 6.28125 289.312 6.78125C289 7.59375 288.656 9.28125 288.281 11.8438C287.906 14.0312 287.438 17.2812 286.875 21.5938C286.375 25.9062 285.719 31.75 284.906 39.125C287.156 36.875 289.281 35.1875 291.281 34.0625C293.344 32.875 295.156 32.0312 296.719 31.5312C298.531 30.9688 300.219 30.6875 301.781 30.6875C303.719 30.875 305.688 31.5 307.688 32.5625C309.75 33.5625 311.656 34.75 313.406 36.125C315.219 37.5 316.781 38.9688 318.094 40.5312C319.469 42.0938 320.438 43.4688 321 44.6562C321.375 45.4688 321.562 46.5312 321.562 47.8438C321.562 49.0938 321.438 50.4688 321.188 51.9688C320.938 53.4688 320.594 55 320.156 56.5625C319.719 58.125 319.281 59.5938 318.844 60.9688C318.469 62.3438 318.125 63.5625 317.812 64.625C317.5 65.625 317.312 66.3438 317.25 66.7812C317.125 67.7188 317.188 68.625 317.438 69.5C317.625 70.25 318 71.0625 318.562 71.9375C319.125 72.75 319.969 73.4375 321.094 74C320.219 73.875 319.281 73.7812 318.281 73.7188C317.344 73.5938 316.438 73.5 315.562 73.4375C314.562 73.375 313.562 73.3438 312.562 73.3438H309.188C308.125 73.3438 306.906 73.375 305.531 73.4375C304.156 73.4375 302.656 73.4688 301.031 73.5312C301.906 73.2188 302.656 72.8125 303.281 72.3125C303.906 71.75 304.438 71.2188 304.875 70.7188C305.375 70.1562 305.812 69.5625 306.188 68.9375C306.438 68.4375 306.75 67.5 307.125 66.125C307.5 64.6875 307.844 63.0625 308.156 61.25C308.469 59.375 308.688 57.4062 308.812 55.3438C309 53.2812 309.031 51.3125 308.906 49.4375C308.844 47.5 308.562 45.7812 308.062 44.2812C307.625 42.7812 306.938 41.6875 306 41C303.188 38.875 300.625 37.8438 298.312 37.9062C296.062 37.9062 293.906 38.8125 291.844 40.625C291.094 41.3125 290.375 42 289.688 42.6875C289.062 43.3125 288.375 44.0625 287.625 44.9375C286.875 45.75 286.188 46.5938 285.562 47.4688C285.562 48.4062 285.594 49.4375 285.656 50.5625C285.719 51.6875 285.781 52.7812 285.844 53.8438C285.906 55.0312 286 56.2188 286.125 57.4062C286.25 59.2188 286.438 61 286.688 62.75C286.875 64.25 287.125 65.9062 287.438 67.7188C287.75 69.4688 288.156 71.0625 288.656 72.5C287.844 72.375 287 72.3438 286.125 72.4062C285.25 72.4062 284.406 72.4062 283.594 72.4062C282.656 72.4688 281.75 72.5 280.875 72.5C280.062 72.5625 279.219 72.6562 278.344 72.7812C277.594 72.9062 276.781 73.0312 275.906 73.1562C275.031 73.2188 274.188 73.3438 273.375 73.5312C274.125 72.0938 274.75 70.6875 275.25 69.3125C275.75 67.875 276.156 66.625 276.469 65.5625C276.844 64.3125 277.156 63.0938 277.406 61.9062C277.594 60.9688 277.719 59.1875 277.781 56.5625C277.906 53.875 278 50.8125 278.062 47.375C278.125 43.875 278.156 40.1875 278.156 36.3125C278.156 32.4375 278.125 28.75 278.062 25.25C278 21.75 277.875 18.6875 277.688 16.0625C277.562 13.4375 277.406 11.625 277.219 10.625C276.969 9.625 276.625 8.625 276.188 7.625C275.812 6.75 275.312 5.90625 274.688 5.09375C274.062 4.21875 273.281 3.5 272.344 2.9375ZM350.625 58.9062C352.375 58.9062 354 58.7188 355.5 58.3438C356.75 58.0312 357.938 57.5312 359.062 56.8438C360.25 56.0938 361.031 55 361.406 53.5625C362.656 53.8125 363.719 54.0312 364.594 54.2188C365.469 54.3438 366.219 54.4688 366.844 54.5938C367.531 54.7812 368.125 54.9062 368.625 54.9688C369.125 55.0938 369.719 55.2188 370.406 55.3438C371.031 55.4688 371.781 55.625 372.656 55.8125C373.594 55.9375 374.688 56.125 375.938 56.375C375 56.25 374.031 56.3438 373.031 56.6562C372.094 56.9688 371.188 57.3125 370.312 57.6875C369.312 58.125 368.375 58.6562 367.5 59.2812C366.938 59.6562 366.281 60.2188 365.531 60.9688C364.844 61.7188 363.844 62.4375 362.531 63.125C361.219 63.8125 359.469 64.4062 357.281 64.9062C355.156 65.3438 352.406 65.5 349.031 65.375C344.969 65.25 341.562 64.5312 338.812 63.2188C336.062 61.8438 333.844 60.1875 332.156 58.25C330.469 56.25 329.25 54.0938 328.5 51.7812C327.75 49.4688 327.344 47.3125 327.281 45.3125C327.219 43.3125 327.812 41.2188 329.062 39.0312C330.312 36.8438 332.062 34.8438 334.312 33.0312C336.625 31.2188 339.406 29.75 342.656 28.625C345.906 27.4375 349.469 26.8438 353.344 26.8438C355.594 26.8438 357.656 27.125 359.531 27.6875C361.469 28.1875 363.219 28.875 364.781 29.75C366.406 30.625 367.812 31.625 369 32.75C370.188 33.8125 371.188 34.9062 372 36.0312C372.812 37.2188 373.5 38.4688 374.062 39.7812C374.562 40.9062 374.969 42.1875 375.281 43.625C375.594 45.0625 375.688 46.5312 375.562 48.0312C370.812 48.1562 366.969 48.25 364.031 48.3125C361.156 48.375 358.906 48.4062 357.281 48.4062H353.062H349.875C348.75 48.4062 347.281 48.4375 345.469 48.5C343.656 48.5625 341.438 48.6562 338.812 48.7812C339.125 51.2812 339.906 53.2188 341.156 54.5938C342.469 55.9062 343.844 56.9062 345.281 57.5938C346.906 58.3438 348.688 58.7812 350.625 58.9062ZM342.188 42.0312C344.188 42.1562 345.844 42.25 347.156 42.3125C348.531 42.375 349.656 42.4375 350.531 42.5C351.469 42.5625 352.219 42.5938 352.781 42.5938H355.125C356.688 42.5938 359.594 42.5 363.844 42.3125C363.656 39.5625 363.062 37.4688 362.062 36.0312C361.125 34.5938 360.125 33.5312 359.062 32.8438C357.812 32.0938 356.438 31.6562 354.938 31.5312C350.875 31.5938 347.844 32.4375 345.844 34.0625C343.906 35.6875 342.688 38.3438 342.188 42.0312ZM425.344 2.1875C426.531 2.25 427.812 2.28125 429.188 2.28125C430.375 2.28125 431.719 2.3125 433.219 2.375C434.781 2.375 436.406 2.3125 438.094 2.1875C436.594 2.875 435.281 3.875 434.156 5.1875C433.031 6.5 432.125 7.8125 431.438 9.125C430.562 10.6875 429.844 12.3125 429.281 14C428.969 15 428.719 16.7812 428.531 19.3438C428.344 21.8438 428.188 24.7812 428.062 28.1562C428 31.5312 427.969 35.0938 427.969 38.8438C427.969 42.5938 428 46.1875 428.062 49.625C428.125 53 428.219 56 428.344 58.625C428.469 61.25 428.625 63.0938 428.812 64.1562C429.062 65.4062 429.375 66.5938 429.75 67.7188C430.062 68.7188 430.469 69.75 430.969 70.8125C431.469 71.8125 432.094 72.625 432.844 73.25L423.281 77.5625C422.781 76.875 422.375 76.1562 422.062 75.4062C421.75 74.7188 421.5 74.0938 421.312 73.5312C421.062 72.8438 420.906 72.2188 420.844 71.6562C420.719 70.9062 420.594 70.0938 420.469 69.2188C420.344 68.2812 420.188 67.4062 420 66.5938C419.875 65.7188 419.781 65 419.719 64.4375C419.656 63.875 419.656 63.5312 419.719 63.4062C419.781 63.2812 419.406 63.8438 418.594 65.0938C417.781 66.2812 416.562 67.6875 414.938 69.3125C413.375 70.875 411.438 72.4062 409.125 73.9062C406.812 75.3438 404.219 76.25 401.344 76.625C398.406 77 395.688 76.4375 393.188 74.9375C390.75 73.4375 388.656 71.3438 386.906 68.6562C385.156 65.9062 383.812 62.75 382.875 59.1875C382 55.5625 381.656 51.875 381.844 48.125C381.969 45.625 382.531 43.4062 383.531 41.4688C384.531 39.4688 385.781 37.75 387.281 36.3125C388.844 34.8125 390.531 33.5625 392.344 32.5625C394.219 31.5 396.031 30.625 397.781 29.9375C399.594 29.25 401.281 28.75 402.844 28.4375C404.406 28.125 405.656 27.9062 406.594 27.7812C407.719 27.7188 409 27.9062 410.438 28.3438C411.688 28.7188 413.125 29.3438 414.75 30.2188C416.438 31.0938 418.312 32.4062 420.375 34.1562C420 27.9062 419.656 22.9062 419.344 19.1562C419.031 15.3438 418.719 12.4375 418.406 10.4375C418.094 8.0625 417.812 6.4375 417.562 5.5625C417.25 4.9375 416.844 4.3125 416.344 3.6875C415.906 3.1875 415.344 2.6875 414.656 2.1875C414.031 1.625 413.281 1.1875 412.406 0.875C414.031 1.1875 415.594 1.40625 417.094 1.53125C418.594 1.65625 419.969 1.78125 421.219 1.90625C422.656 2.03125 424.031 2.125 425.344 2.1875ZM401.812 37.1562C400.625 37.5938 399.656 38.3438 398.906 39.4062C398.219 40.4688 397.656 41.75 397.219 43.25C396.781 44.6875 396.469 46.25 396.281 47.9375C396.156 49.5625 396.062 51.1562 396 52.7188C396 54.2188 396 55.5938 396 56.8438C396 58.0938 396 59.0312 396 59.6562C396 60.0312 396.062 60.7188 396.188 61.7188C396.375 62.6562 396.75 63.6562 397.312 64.7188C397.875 65.7188 398.656 66.625 399.656 67.4375C400.719 68.25 402.125 68.6562 403.875 68.6562C405.312 68.5312 406.844 68.0312 408.469 67.1562C409.906 66.4062 411.531 65.2188 413.344 63.5938C415.219 61.9062 417.219 59.5 419.344 56.375C419.219 54.375 419.125 52.7188 419.062 51.4062C419.062 50.0938 419.031 49.0312 418.969 48.2188C418.906 47.2812 418.875 46.5312 418.875 45.9688V44.5625C418.875 44.1875 418.875 43.7812 418.875 43.3438C418.875 42.9062 418.906 42.5 418.969 42.125C417.219 40.875 415.656 39.8125 414.281 38.9375C412.969 38 411.656 37.3125 410.344 36.875C409.094 36.375 407.781 36.1562 406.406 36.2188C405.094 36.2188 403.562 36.5312 401.812 37.1562ZM436.594 30.875C438.219 31.1875 439.625 31.4375 440.812 31.625C442.062 31.75 443.125 31.875 444 32C445 32.125 445.875 32.2188 446.625 32.2812C447.375 32.3438 448.25 32.4062 449.25 32.4688C450.938 32.5312 453.312 32.5312 456.375 32.4688C454.562 32.3438 453.125 32.8125 452.062 33.875C451.062 34.875 450.312 36.0312 449.812 37.3438C449.188 38.9062 448.844 40.7188 448.781 42.7812C448.656 45.5312 448.719 48.0312 448.969 50.2812C449.281 52.4688 449.812 54.3438 450.562 55.9062C451.375 57.4062 452.438 58.5312 453.75 59.2812C455.062 59.9688 456.75 60.1562 458.812 59.8438C460.875 59.5312 462.438 58.8125 463.5 57.6875C464.625 56.5 465.438 55.0625 465.938 53.375C466.438 51.625 466.719 49.6562 466.781 47.4688C466.906 45.2812 467 43 467.062 40.625C467.062 38.25 467.031 36.5625 466.969 35.5625C466.969 34.5 466.938 33.8125 466.875 33.5C466.812 33.1875 466.719 33.0625 466.594 33.125C466.469 33.125 466.312 32.9688 466.125 32.6562C466 32.4062 465.812 32.1562 465.562 31.9062C465.375 31.6562 465.125 31.375 464.812 31.0625C464.5 30.6875 464.156 30.3125 463.781 29.9375C465.406 30 466.844 30.0625 468.094 30.125C469.406 30.125 470.5 30.1562 471.375 30.2188C472.375 30.2812 473.25 30.3438 474 30.4062C474.688 30.4688 475.594 30.5625 476.719 30.6875C477.656 30.8125 478.875 30.9375 480.375 31.0625C481.875 31.1875 483.656 31.375 485.719 31.625C484.281 31.9375 483.125 32.4062 482.25 33.0312C481.375 33.6562 480.688 34.2812 480.188 34.9062C479.625 35.5938 479.219 36.3438 478.969 37.1562C478.781 38.2188 478.781 39.8438 478.969 42.0312C479.094 43.9688 479.406 46.625 479.906 50C480.406 53.375 481.188 57.8125 482.25 63.3125L474.844 67.7188L473.344 55.25C471.531 58.3125 469.594 60.6875 467.531 62.375C465.531 64 463.656 65.1875 461.906 65.9375C459.844 66.8125 457.844 67.3125 455.906 67.4375C453.344 67.4375 451.125 67.2812 449.25 66.9688C447.438 66.5938 445.875 66.125 444.562 65.5625C443.25 65 442.188 64.375 441.375 63.6875C440.625 62.9375 440.062 62.1875 439.688 61.4375C438.812 59.875 438.344 57.875 438.281 55.4375C438.219 52.9375 438.312 50.4688 438.562 48.0312C438.812 45.5312 439.094 43.25 439.406 41.1875C439.719 39.125 439.812 37.7188 439.688 36.9688C439.562 36.4062 439.375 35.7812 439.125 35.0938C438.875 34.5312 438.562 33.9062 438.188 33.2188C437.812 32.4688 437.281 31.6875 436.594 30.875ZM489.281 76.625C489.906 75.6875 490.406 74.8125 490.781 74C491.156 73.1875 491.469 72.5 491.719 71.9375C491.969 71.25 492.156 70.625 492.281 70.0625C492.344 69.6875 492.375 68.5938 492.375 66.7812C492.375 64.9688 492.312 62.6875 492.188 59.9375C492.125 57.1875 492.031 54.0938 491.906 50.6562C491.844 47.2188 491.719 43.7188 491.531 40.1562C491.406 36.5938 491.25 33.125 491.062 29.75C490.938 26.375 490.812 23.3438 490.688 20.6562C490.562 17.9062 490.438 15.6562 490.312 13.9062C490.188 12.1563 490.094 11.1562 490.031 10.9062C489.906 10.5312 489.688 10.1562 489.375 9.78125C488.75 9.03125 487.688 8.3125 486.188 7.625C489.375 6.8125 491.812 6.15625 493.5 5.65625C494.5 5.40625 495.375 5.15625 496.125 4.90625C496.812 4.65625 497.5 4.40625 498.188 4.15625C498.75 3.90625 499.375 3.625 500.062 3.3125C500.75 2.9375 501.375 2.53125 501.938 2.09375C501.625 3.90625 501.375 5.65625 501.188 7.34375C501 9.03125 500.844 10.5937 500.719 12.0312C500.594 13.6563 500.531 15.2188 500.531 16.7188C500.219 19.7812 500.031 23.125 499.969 26.75C499.969 30.3125 500 33.9375 500.062 37.625C500.125 41.3125 500.25 44.9062 500.438 48.4062C500.625 51.9062 500.812 55.0938 501 57.9688C501.25 60.7812 501.469 63.1875 501.656 65.1875C501.906 67.125 502.094 68.375 502.219 68.9375C502.469 69.875 502.719 70.7812 502.969 71.6562C503.219 72.4062 503.5 73.1875 503.812 74C504.125 74.875 504.5 75.5625 504.938 76.0625H495.844C495.031 76.0625 494.25 76.0938 493.5 76.1562C492.812 76.2188 492.094 76.2812 491.344 76.3438C490.594 76.4062 489.906 76.5 489.281 76.625ZM532.688 58.9062C534.438 58.9062 536.062 58.7188 537.562 58.3438C538.812 58.0312 540 57.5312 541.125 56.8438C542.312 56.0938 543.094 55 543.469 53.5625C544.719 53.8125 545.781 54.0312 546.656 54.2188C547.531 54.3438 548.281 54.4688 548.906 54.5938C549.594 54.7812 550.188 54.9062 550.688 54.9688C551.188 55.0938 551.781 55.2188 552.469 55.3438C553.094 55.4688 553.844 55.625 554.719 55.8125C555.656 55.9375 556.75 56.125 558 56.375C557.062 56.25 556.094 56.3438 555.094 56.6562C554.156 56.9688 553.25 57.3125 552.375 57.6875C551.375 58.125 550.438 58.6562 549.562 59.2812C549 59.6562 548.344 60.2188 547.594 60.9688C546.906 61.7188 545.906 62.4375 544.594 63.125C543.281 63.8125 541.531 64.4062 539.344 64.9062C537.219 65.3438 534.469 65.5 531.094 65.375C527.031 65.25 523.625 64.5312 520.875 63.2188C518.125 61.8438 515.906 60.1875 514.219 58.25C512.531 56.25 511.312 54.0938 510.562 51.7812C509.812 49.4688 509.406 47.3125 509.344 45.3125C509.281 43.3125 509.875 41.2188 511.125 39.0312C512.375 36.8438 514.125 34.8438 516.375 33.0312C518.688 31.2188 521.469 29.75 524.719 28.625C527.969 27.4375 531.531 26.8438 535.406 26.8438C537.656 26.8438 539.719 27.125 541.594 27.6875C543.531 28.1875 545.281 28.875 546.844 29.75C548.469 30.625 549.875 31.625 551.062 32.75C552.25 33.8125 553.25 34.9062 554.062 36.0312C554.875 37.2188 555.562 38.4688 556.125 39.7812C556.625 40.9062 557.031 42.1875 557.344 43.625C557.656 45.0625 557.75 46.5312 557.625 48.0312C552.875 48.1562 549.031 48.25 546.094 48.3125C543.219 48.375 540.969 48.4062 539.344 48.4062H535.125H531.938C530.812 48.4062 529.344 48.4375 527.531 48.5C525.719 48.5625 523.5 48.6562 520.875 48.7812C521.188 51.2812 521.969 53.2188 523.219 54.5938C524.531 55.9062 525.906 56.9062 527.344 57.5938C528.969 58.3438 530.75 58.7812 532.688 58.9062ZM524.25 42.0312C526.25 42.1562 527.906 42.25 529.219 42.3125C530.594 42.375 531.719 42.4375 532.594 42.5C533.531 42.5625 534.281 42.5938 534.844 42.5938H537.188C538.75 42.5938 541.656 42.5 545.906 42.3125C545.719 39.5625 545.125 37.4688 544.125 36.0312C543.188 34.5938 542.188 33.5312 541.125 32.8438C539.875 32.0938 538.5 31.6562 537 31.5312C532.938 31.5938 529.906 32.4375 527.906 34.0625C525.969 35.6875 524.75 38.3438 524.25 42.0312Z" fill="black"/>
</svg>
