<svg width="686" height="81" viewBox="0 0 686 81" fill="none" xmlns="http://www.w3.org/2000/svg">
<path d="M2.02148 1.24609C4.01367 1.53906 5.77148 1.74414 7.29492 1.86133C8.87695 1.97852 10.1953 2.0957 11.25 2.21289C12.4805 2.33008 13.5352 2.38867 14.4141 2.38867H17.8418C20.127 2.38867 23.9062 2.30078 29.1797 2.125C27.8906 2.53516 26.8066 3.12109 25.9277 3.88281C25.1074 4.64453 24.4336 5.43555 23.9062 6.25586C23.2617 7.19336 22.793 8.16016 22.5 9.15625C22.1484 10.3867 21.8262 12.0273 21.5332 14.0781C21.2402 15.8945 20.9473 18.2676 20.6543 21.1973C20.4199 24.127 20.1855 27.7891 19.9512 32.1836C22.4707 29.3125 24.668 26.7637 26.543 24.5371C28.4766 22.3105 30.1465 20.3477 31.5527 18.6484C32.959 16.9492 34.1309 15.4844 35.0684 14.2539C36.0645 13.0234 36.8848 11.9688 37.5293 11.0898C39.0527 9.09766 39.9316 7.75 40.166 7.04688C40.2246 6.63672 40.1953 6.13867 40.0781 5.55273C39.9609 5.08398 39.7852 4.52734 39.5508 3.88281C39.3164 3.17969 38.9648 2.41797 38.4961 1.59766C40.8398 1.71484 42.832 1.80273 44.4727 1.86133C46.1719 1.91992 47.5781 1.97852 48.6914 2.03711C49.9805 2.0957 51.0352 2.125 51.8555 2.125H55.5469C56.8945 2.125 58.6523 2.125 60.8203 2.125C62.9883 2.06641 65.7129 2.00781 68.9941 1.94922C66.8262 2.47656 64.7754 3.17969 62.8418 4.05859C60.9082 4.9375 59.1797 5.78711 57.6562 6.60742C55.8984 7.60352 54.2578 8.62891 52.7344 9.68359C51.2109 10.8555 49.5117 12.2324 47.6367 13.8145C46.0547 15.1621 44.209 16.832 42.0996 18.8242C39.9902 20.7578 37.7051 23.0137 35.2441 25.5918C37.8809 30.748 40.166 34.9961 42.0996 38.3359C44.0918 41.6172 45.7617 44.2539 47.1094 46.2461C48.6328 48.5898 49.9219 50.377 50.9766 51.6074C52.0312 52.7207 53.2617 53.8633 54.668 55.0352C55.8398 56.0312 57.3047 57.1445 59.0625 58.375C60.8203 59.5469 62.8418 60.6895 65.127 61.8027L40.0781 63.0332C40.4297 62.5645 40.6348 62.0078 40.6934 61.3633C40.8105 60.6602 40.8691 60.0156 40.8691 59.4297C40.8691 58.7852 40.8105 58.082 40.6934 57.3203C40.459 56.3828 39.8438 54.8594 38.8477 52.75C38.0273 50.9336 36.7676 48.3848 35.0684 45.1035C33.3691 41.7637 31.0254 37.3691 28.0371 31.9199L20.5664 39.7422C20.2734 41.6172 20.127 43.3164 20.127 44.8398C20.127 46.3633 20.1855 47.623 20.3027 48.6191C20.4785 49.8496 20.7129 50.9043 21.0059 51.7832C21.3574 52.6621 21.8555 53.6582 22.5 54.7715C23.0273 55.7676 23.7305 56.9395 24.6094 58.2871C25.4883 59.6348 26.6016 61.1289 27.9492 62.7695C26.6016 62.418 25.2539 62.1836 23.9062 62.0664C22.5586 61.8906 21.3281 61.7734 20.2148 61.7148C18.9258 61.6562 17.6953 61.6855 16.5234 61.8027C15.293 61.9199 13.8574 62.0957 12.2168 62.3301C10.8105 62.5645 9.08203 62.8574 7.03125 63.209C4.98047 63.5605 2.63672 64 0 64.5273C1.28906 63.7656 2.31445 62.9453 3.07617 62.0664C3.83789 61.1875 4.45312 60.3379 4.92188 59.5176C5.44922 58.5801 5.80078 57.6719 5.97656 56.793C6.09375 56.0312 6.18164 54.3906 6.24023 51.8711C6.35742 49.3516 6.41602 46.4219 6.41602 43.082C6.47461 39.6836 6.47461 36.1094 6.41602 32.3594C6.35742 28.6094 6.29883 25.0938 6.24023 21.8125C6.18164 18.5312 6.09375 15.748 5.97656 13.4629C5.91797 11.1191 5.85938 9.68359 5.80078 9.15625C5.625 8.33594 5.39062 7.45703 5.09766 6.51953C4.80469 5.69922 4.39453 4.84961 3.86719 3.9707C3.39844 3.0332 2.7832 2.125 2.02148 1.24609ZM59.0625 24.7129L75.2344 24.8887C74.2969 28.4629 73.5938 31.5098 73.125 34.0293C72.7148 36.5488 72.4512 38.6582 72.334 40.3574C72.0996 42.291 72.041 43.9316 72.1582 45.2793C72.334 46.5098 72.627 47.8281 73.0371 49.2344C73.3887 50.4062 73.916 51.7539 74.6191 53.2773C75.3223 54.8008 76.2598 56.3242 77.4316 57.8477C76.7285 57.6133 75.9668 57.4375 75.1465 57.3203C74.3262 57.2031 73.5645 57.1152 72.8613 57.0566C72.041 56.998 71.2207 56.998 70.4004 57.0566C69.5801 57.1152 68.6719 57.2031 67.6758 57.3203C66.8555 57.4375 65.8594 57.584 64.6875 57.7598C63.5156 57.9355 62.2852 58.1699 60.9961 58.4629C61.875 55.8262 62.5488 53.541 63.0176 51.6074C63.5449 49.6738 63.9258 48.0625 64.1602 46.7734C64.3945 45.25 64.541 44.0195 64.5996 43.082C64.5996 41.9102 64.5996 40.5918 64.5996 39.127C64.5996 37.6035 64.5996 36.1387 64.5996 34.7324C64.5996 33.3262 64.5703 32.0957 64.5117 31.041C64.4531 29.9277 64.3359 29.2246 64.1602 28.9316L63.2812 28.0527C62.9297 27.7598 62.4023 27.3496 61.6992 26.8223C61.0547 26.2363 60.1758 25.5332 59.0625 24.7129ZM65.3027 11.1777C66.5332 10.5332 67.7637 10.3574 68.9941 10.6504C70.2832 10.9434 71.2793 11.5 71.9824 12.3203C72.6855 13.1406 72.9199 14.1074 72.6855 15.2207C72.5098 16.334 71.5723 17.418 69.873 18.4727C68.1738 19.4688 66.6797 19.8203 65.3906 19.5273C64.1016 19.2344 63.1934 18.6191 62.666 17.6816C62.1387 16.7441 62.0508 15.6602 62.4023 14.4297C62.7539 13.1406 63.7207 12.0566 65.3027 11.1777ZM83.3203 54.332C83.7305 52.3984 84.0234 50.6992 84.1992 49.2344C84.4336 47.7109 84.6094 46.4512 84.7266 45.4551C84.8438 44.2832 84.9023 43.2871 84.9023 42.4668C84.8438 41.4707 84.7852 40.2988 84.7266 38.9512C84.7266 37.5449 84.668 36.168 84.5508 34.8203C84.4922 33.4141 84.4043 32.1836 84.2871 31.1289C84.1699 30.0156 84.0234 29.2246 83.8477 28.7559C83.6133 28.2871 83.291 27.7891 82.8809 27.2617C82.0605 26.2656 80.8594 25.2988 79.2773 24.3613C80.625 24.0684 81.7676 23.834 82.7051 23.6582C83.7012 23.4238 84.5215 23.2188 85.166 23.043C85.8691 22.8086 86.4844 22.6035 87.0117 22.4277C87.4805 22.252 88.0371 22.0762 88.6816 21.9004C89.209 21.7832 89.8535 21.6367 90.6152 21.4609C91.377 21.2852 92.2559 21.0801 93.252 20.8457L92.9883 28.8438C94.8633 26.6172 96.7676 24.9473 98.7012 23.834C100.635 22.7207 102.451 21.9297 104.15 21.4609C106.084 20.875 107.988 20.582 109.863 20.582C112.207 20.6992 114.375 21.0801 116.367 21.7246C118.418 22.3691 120.176 23.1309 121.641 24.0098C123.164 24.8301 124.395 25.709 125.332 26.6465C126.27 27.584 126.826 28.4043 127.002 29.1074C127.705 31.3926 127.881 33.502 127.529 35.4355C127.178 37.3105 126.709 39.1562 126.123 40.9727C125.596 42.7305 125.127 44.4883 124.717 46.2461C124.365 48.0039 124.512 49.9082 125.156 51.959C125.391 52.4863 125.625 53.0137 125.859 53.541C126.094 54.0098 126.387 54.4785 126.738 54.9473C127.09 55.416 127.5 55.7969 127.969 56.0898C127.324 56.0312 126.68 56.002 126.035 56.002C125.391 55.9434 124.805 55.8848 124.277 55.8262C123.633 55.7676 123.047 55.709 122.52 55.6504C121.934 55.5918 121.143 55.5625 120.146 55.5625C118.447 55.5625 115.811 55.6504 112.236 55.8262C112.764 54.5957 113.174 53.5703 113.467 52.75C113.818 51.8711 114.111 51.168 114.346 50.6406C114.58 49.9961 114.756 49.498 114.873 49.1465C115.576 47.4473 115.986 45.5137 116.104 43.3457C116.279 41.1777 116.133 38.9805 115.664 36.7539C115.488 35.9922 115.195 35.084 114.785 34.0293C114.375 32.9746 113.818 31.9492 113.115 30.9531C112.471 29.957 111.68 29.1074 110.742 28.4043C109.863 27.7012 108.838 27.291 107.666 27.1738C106.494 27.0566 105.176 27.3496 103.711 28.0527C102.305 28.7559 100.781 30.0449 99.1406 31.9199C97.9102 33.502 96.9434 35.4355 96.2402 37.7207C95.5957 39.6543 95.1562 42.0859 94.9219 45.0156C94.6875 47.8867 95.0391 51.2559 95.9766 55.123C95.1562 55.0059 94.3945 54.9473 93.6914 54.9473C92.9883 54.8887 92.4023 54.8301 91.9336 54.7715C91.3477 54.7129 90.8203 54.6543 90.3516 54.5957C89.8242 54.5957 89.2383 54.5664 88.5938 54.5078C88.0078 54.5078 87.2754 54.5078 86.3965 54.5078C85.5176 54.4492 84.4922 54.3906 83.3203 54.332ZM174.814 26.7344C174.639 25.5625 174.492 24.5957 174.375 23.834C174.258 23.0137 174.141 22.3691 174.023 21.9004C173.906 21.3145 173.818 20.875 173.76 20.582C173.643 20.2891 173.496 19.9668 173.32 19.6152C173.203 19.3223 172.998 18.9707 172.705 18.5605C172.471 18.1504 172.178 17.6816 171.826 17.1543C172.588 17.3887 173.35 17.5352 174.111 17.5938C174.932 17.6523 175.693 17.7109 176.396 17.7695C177.158 17.8281 177.949 17.8281 178.77 17.7695C179.59 17.7695 180.527 17.7402 181.582 17.6816C182.52 17.623 183.633 17.5938 184.922 17.5938C186.27 17.5352 187.793 17.4473 189.492 17.3301C188.496 17.5645 187.646 17.9746 186.943 18.5605C186.299 19.0879 185.742 19.6738 185.273 20.3184C184.746 21.0215 184.307 21.7832 183.955 22.6035C183.662 23.3652 183.486 24.8301 183.428 26.998C183.369 29.1074 183.369 31.627 183.428 34.5566C183.486 37.4277 183.545 40.5332 183.604 43.873C183.721 47.2129 183.779 50.4062 183.779 53.4531C183.838 56.5 183.838 59.2832 183.779 61.8027C183.721 64.2637 183.574 66.0801 183.34 67.252C182.52 70.9434 180.996 73.9316 178.77 76.2168C176.543 78.5605 173.613 79.8203 169.98 79.9961C165.586 80.1719 162.1 79.7617 159.521 78.7656C157.002 77.7695 155.039 76.5391 153.633 75.0742C152.227 73.668 151.172 72.2324 150.469 70.7676C149.766 69.3027 149.033 68.1895 148.271 67.4277C147.568 66.7832 146.865 66.168 146.162 65.582C145.518 65.1133 144.844 64.6445 144.141 64.1758C143.496 63.707 142.852 63.4141 142.207 63.2969C143.906 63.3555 145.43 63.3848 146.777 63.3848C148.125 63.3848 149.268 63.3848 150.205 63.3848C151.26 63.3848 152.197 63.3555 153.018 63.2969H155.83H163.828C162.656 63.6484 161.777 64.0293 161.191 64.4395C160.605 64.9082 160.195 65.377 159.961 65.8457C159.727 66.373 159.609 66.9004 159.609 67.4277C159.844 68.834 160.605 69.8594 161.895 70.5039C163.184 71.1484 164.941 71.5293 167.168 71.6465C169.336 71.7637 170.83 71.7051 171.65 71.4707C172.471 71.2949 173.115 70.9434 173.584 70.416C174.521 69.0098 175.312 67.1934 175.957 64.9668C176.426 63.0918 176.748 60.6602 176.924 57.6719C177.158 54.625 176.895 50.9043 176.133 46.5098C174.258 49.0879 172.09 51.0215 169.629 52.3105C167.168 53.5996 164.824 54.5371 162.598 55.123C159.961 55.7676 157.295 56.0898 154.6 56.0898C147.51 55.7969 142.207 54.1562 138.691 51.168C135.176 48.1797 133.564 44.166 133.857 39.127C134.033 36.6074 134.795 34.0879 136.143 31.5684C137.549 29.0488 139.365 26.793 141.592 24.8008C143.877 22.8086 146.484 21.2266 149.414 20.0547C152.344 18.8828 155.391 18.3848 158.555 18.5605C160.957 18.7949 163.213 19.2344 165.322 19.8789C167.139 20.4648 168.926 21.2852 170.684 22.3398C172.5 23.3945 173.877 24.8594 174.814 26.7344ZM146.865 35.5234C146.514 37.8086 146.66 39.9473 147.305 41.9395C148.008 43.9316 148.975 45.6602 150.205 47.125C151.436 48.5312 152.812 49.6445 154.336 50.4648C155.859 51.2266 157.295 51.5781 158.643 51.5195C161.455 51.4609 163.887 50.2012 165.938 47.7402C167.988 45.2207 169.219 41.4707 169.629 36.4902C169.805 34.0293 169.482 31.9199 168.662 30.1621C167.9 28.3457 166.934 26.8809 165.762 25.7676C164.59 24.6543 163.359 23.8633 162.07 23.3945C160.781 22.9258 159.756 22.7207 158.994 22.7793C157.939 22.8965 156.768 23.2188 155.479 23.7461C154.248 24.2148 153.047 24.9473 151.875 25.9434C150.703 26.8809 149.648 28.1406 148.711 29.7227C147.832 31.3047 147.217 33.2383 146.865 35.5234ZM215.947 1.33398C217.998 1.62695 219.785 1.86133 221.309 2.03711C222.832 2.21289 224.092 2.35937 225.088 2.47656C226.26 2.59375 227.256 2.68164 228.076 2.74023C229.014 2.85742 230.156 2.79883 231.504 2.56445C232.91 2.33008 234.404 2.0957 235.986 1.86133C237.568 1.56836 239.209 1.33398 240.908 1.1582C242.607 0.982422 244.248 0.982422 245.83 1.1582C246.885 1.27539 248.232 1.50977 249.873 1.86133C251.514 2.21289 253.242 2.76953 255.059 3.53125C256.934 4.29297 258.809 5.28906 260.684 6.51953C262.559 7.75 264.258 9.30273 265.781 11.1777C267.305 13.0527 268.564 15.2793 269.561 17.8574C270.557 20.4355 271.113 23.4531 271.23 26.9102C271.406 32.0664 270.938 36.7539 269.824 40.9727C268.711 45.1914 266.982 48.7949 264.639 51.7832C262.354 54.7715 259.453 57.1152 255.938 58.8145C252.422 60.5137 248.32 61.4512 243.633 61.627C240.059 61.9199 236.543 62.1836 233.086 62.418C231.621 62.5352 230.068 62.623 228.428 62.6816C226.846 62.7402 225.264 62.7988 223.682 62.8574C222.1 62.8574 220.576 62.8281 219.111 62.7695C217.646 62.7109 216.299 62.623 215.068 62.5059C216.416 61.8613 217.5 61.2168 218.32 60.5723C219.199 59.9277 219.873 59.3711 220.342 58.9023C220.869 58.3164 221.25 57.7891 221.484 57.3203C221.602 56.6758 221.777 55.416 222.012 53.541C222.188 51.959 222.422 49.7031 222.715 46.7734C223.008 43.8438 223.359 39.8594 223.77 34.8203L224.297 28.5801C224.59 24.7129 224.707 21.5488 224.648 19.0879C224.648 16.627 224.59 14.6934 224.473 13.2871C224.297 11.6465 224.062 10.4453 223.77 9.68359C223.535 9.03906 223.096 8.27734 222.451 7.39844C221.865 6.69531 221.045 5.8457 219.99 4.84961C218.994 3.79492 217.646 2.62305 215.947 1.33398ZM234.492 33.6777C234.609 38.8926 234.873 42.9062 235.283 45.7188C235.752 48.4727 236.25 50.5234 236.777 51.8711C237.422 53.3945 238.125 54.3027 238.887 54.5957C240 54.5957 241.26 54.127 242.666 53.1895C244.072 52.1934 245.449 50.6992 246.797 48.707C248.203 46.7148 249.463 44.2246 250.576 41.2363C251.748 38.248 252.598 34.7617 253.125 30.7773C253.652 26.793 253.506 23.2773 252.686 20.2305C251.865 17.1836 250.781 14.6348 249.434 12.584C248.086 10.4746 246.709 8.89258 245.303 7.83789C243.896 6.72461 242.842 6.16797 242.139 6.16797C241.318 6.16797 240.586 6.40234 239.941 6.87109C239.297 7.28125 238.389 8.24805 237.217 9.77148C236.631 10.5918 236.104 11.7637 235.635 13.2871C235.225 14.6348 234.873 16.4219 234.58 18.6484C234.287 20.875 234.199 23.7461 234.316 27.2617L234.492 33.6777ZM298.125 49.8496C299.766 49.8496 301.289 49.6738 302.695 49.3223C303.867 49.0293 304.98 48.5605 306.035 47.916C307.148 47.2129 307.881 46.1875 308.232 44.8398C309.404 45.0742 310.4 45.2793 311.221 45.4551C312.041 45.5723 312.744 45.6895 313.33 45.8066C313.975 45.9824 314.531 46.0996 315 46.1582C315.469 46.2754 316.025 46.3926 316.67 46.5098C317.256 46.627 317.959 46.7734 318.779 46.9492C319.658 47.0664 320.684 47.2422 321.855 47.4766C320.977 47.3594 320.068 47.4473 319.131 47.7402C318.252 48.0332 317.402 48.3555 316.582 48.707C315.645 49.1172 314.766 49.6152 313.945 50.2012C313.418 50.5527 312.803 51.0801 312.1 51.7832C311.455 52.4863 310.518 53.1602 309.287 53.8047C308.057 54.4492 306.416 55.0059 304.365 55.4746C302.373 55.8848 299.795 56.0312 296.631 55.9141C292.822 55.7969 289.629 55.123 287.051 53.8926C284.473 52.6035 282.393 51.0508 280.811 49.2344C279.229 47.3594 278.086 45.3379 277.383 43.1699C276.68 41.002 276.299 38.9805 276.24 37.1055C276.182 35.2305 276.738 33.2676 277.91 31.2168C279.082 29.166 280.723 27.291 282.832 25.5918C285 23.8926 287.607 22.5156 290.654 21.4609C293.701 20.3477 297.041 19.791 300.674 19.791C302.783 19.791 304.717 20.0547 306.475 20.582C308.291 21.0508 309.932 21.6953 311.396 22.5156C312.92 23.3359 314.238 24.2734 315.352 25.3281C316.465 26.3242 317.402 27.3496 318.164 28.4043C318.926 29.5176 319.57 30.6895 320.098 31.9199C320.566 32.9746 320.947 34.1758 321.24 35.5234C321.533 36.8711 321.621 38.248 321.504 39.6543C317.051 39.7715 313.447 39.8594 310.693 39.918C307.998 39.9766 305.889 40.0059 304.365 40.0059H300.41H297.422C296.367 40.0059 294.99 40.0352 293.291 40.0938C291.592 40.1523 289.512 40.2402 287.051 40.3574C287.344 42.7012 288.076 44.5176 289.248 45.8066C290.479 47.0371 291.768 47.9746 293.115 48.6191C294.639 49.3223 296.309 49.7324 298.125 49.8496ZM290.215 34.0293C292.09 34.1465 293.643 34.2344 294.873 34.293C296.162 34.3516 297.217 34.4102 298.037 34.4688C298.916 34.5273 299.619 34.5566 300.146 34.5566H302.344C303.809 34.5566 306.533 34.4688 310.518 34.293C310.342 31.7148 309.785 29.752 308.848 28.4043C307.969 27.0566 307.031 26.0605 306.035 25.416C304.863 24.7129 303.574 24.3027 302.168 24.1855C298.359 24.2441 295.518 25.0352 293.643 26.5586C291.826 28.082 290.684 30.5723 290.215 34.0293ZM363.779 13.8145C363.252 15.1035 362.783 16.2754 362.373 17.3301C362.021 18.3848 361.699 19.3223 361.406 20.1426C361.113 21.0801 360.85 21.9004 360.615 22.6035C360.381 23.4238 360.117 24.3613 359.824 25.416C359.531 26.3535 359.15 27.5254 358.682 28.9316C358.271 30.2793 357.773 31.8906 357.188 33.7656C356.719 30.9531 355.869 28.7266 354.639 27.0859C353.408 25.3867 352.148 24.0684 350.859 23.1309C349.336 22.0762 347.695 21.3145 345.938 20.8457C342.773 20.3184 340.488 20.377 339.082 21.0215C337.676 21.666 336.738 22.4863 336.27 23.4824C336.035 23.8926 335.771 24.4199 335.479 25.0645C335.244 25.6504 335.039 26.2656 334.863 26.9102C334.746 27.5547 334.717 28.1992 334.775 28.8438C334.834 29.4883 335.098 30.0156 335.566 30.4258C335.859 30.7188 336.621 31.1289 337.852 31.6562C339.082 32.125 340.547 32.6816 342.246 33.3262C344.004 33.9121 345.85 34.5566 347.783 35.2598C349.775 35.9629 351.65 36.666 353.408 37.3691C355.166 38.0723 356.689 38.7754 357.979 39.4785C359.268 40.1816 360.117 40.8262 360.527 41.4121C360.879 41.998 361.26 42.7891 361.67 43.7852C362.139 44.7227 362.461 45.7773 362.637 46.9492C362.871 48.0625 362.93 49.2344 362.812 50.4648C362.754 51.6367 362.432 52.8086 361.846 53.9805C361.26 55.1523 360.322 56.2363 359.033 57.2324C357.803 58.2285 356.133 59.0488 354.023 59.6934C351.562 60.4551 349.189 60.6602 346.904 60.3086C344.619 59.957 342.51 59.4297 340.576 58.7266C338.701 58.0234 337.061 57.3496 335.654 56.7051C334.248 56.002 333.252 55.709 332.666 55.8262C332.021 55.9434 331.289 56.2656 330.469 56.793C329.648 57.3203 328.857 57.877 328.096 58.4629C327.393 58.9902 326.777 59.4883 326.25 59.957C325.723 60.3672 325.459 60.5137 325.459 60.3965C325.459 60.2793 325.547 59.9277 325.723 59.3418C325.957 58.7559 326.191 58.0527 326.426 57.2324C326.719 56.3535 326.982 55.416 327.217 54.4199C327.51 53.3652 327.715 52.3691 327.832 51.4316C327.949 50.6699 328.096 49.7324 328.271 48.6191C328.389 47.623 328.535 46.4219 328.711 45.0156C328.945 43.5508 329.209 41.793 329.502 39.7422C329.795 41.2656 330.205 42.584 330.732 43.6973C331.318 44.8105 331.875 45.7773 332.402 46.5977C333.047 47.5352 333.662 48.3262 334.248 48.9707C335.127 49.791 336.152 50.5527 337.324 51.2559C338.555 51.959 339.785 52.5742 341.016 53.1016C342.246 53.5703 343.418 53.8633 344.531 53.9805C345.645 54.0977 346.582 53.9805 347.344 53.6289C348.105 53.2773 348.75 52.6328 349.277 51.6953C349.863 50.7578 350.273 49.7324 350.508 48.6191C350.742 47.5059 350.83 46.4512 350.771 45.4551C350.713 44.4004 350.449 43.5508 349.98 42.9062C349.629 42.4961 348.809 41.9688 347.52 41.3242C346.289 40.6797 344.795 39.9766 343.037 39.2148C341.338 38.4531 339.521 37.6621 337.588 36.8418C335.713 36.0215 333.926 35.2012 332.227 34.3809C330.586 33.502 329.209 32.6816 328.096 31.9199C327.041 31.0996 326.455 30.3672 326.338 29.7227C326.221 28.7852 326.133 27.7598 326.074 26.6465C326.016 25.4746 326.074 24.332 326.25 23.2188C326.484 22.0469 326.895 20.9336 327.48 19.8789C328.125 18.8242 329.062 17.9453 330.293 17.2422C331.113 16.7734 332.197 16.4219 333.545 16.1875C334.893 15.9531 336.387 15.8359 338.027 15.8359C339.668 15.7773 341.367 15.8359 343.125 16.0117C344.883 16.1289 346.553 16.3047 348.135 16.5391C349.775 16.7148 351.24 16.9492 352.529 17.2422C353.877 17.5352 354.902 17.7988 355.605 18.0332C356.426 18.3262 357.305 18.3555 358.242 18.1211C359.062 17.9453 359.941 17.5645 360.879 16.9785C361.816 16.3926 362.783 15.3379 363.779 13.8145ZM416.074 32.7988C415.371 32.6816 414.492 32.5938 413.438 32.5352C412.441 32.4766 411.475 32.4473 410.537 32.4473C409.482 32.4473 408.369 32.4766 407.197 32.5352C405.967 32.5938 404.736 32.6523 403.506 32.7109C402.451 32.7695 401.25 32.8574 399.902 32.9746C398.613 33.0332 397.354 33.1211 396.123 33.2383C396.592 33.0039 397.002 32.6816 397.354 32.2715C397.764 31.8613 398.115 31.4512 398.408 31.041C398.701 30.5723 398.965 30.0742 399.199 29.5469C399.492 28.668 399.463 27.6133 399.111 26.3828C398.76 25.0938 398.115 23.9219 397.178 22.8672C396.299 21.8125 395.156 20.9922 393.75 20.4062C392.402 19.7617 390.908 19.6152 389.268 19.9668C387.51 20.377 385.928 20.9922 384.521 21.8125C383.174 22.6328 382.031 23.7754 381.094 25.2402C380.215 26.6465 379.57 28.4043 379.16 30.5137C378.809 32.5645 378.721 35.0254 378.896 37.8965C379.131 41.4707 379.717 44.3125 380.654 46.4219C381.592 48.5312 382.734 50.1133 384.082 51.168C385.43 52.2227 386.895 52.8672 388.477 53.1016C390.117 53.2773 391.729 53.2773 393.311 53.1016C394.424 52.8672 395.449 52.3691 396.387 51.6074C397.148 50.9629 397.852 50.0254 398.496 48.7949C399.141 47.5645 399.434 45.8652 399.375 43.6973L410.098 43.2578C408.867 46.7148 407.373 49.4688 405.615 51.5195C403.857 53.5117 402.158 55.0645 400.518 56.1777C398.584 57.4668 396.65 58.3457 394.717 58.8145C392.314 59.2246 390.176 59.4004 388.301 59.3418C386.426 59.2246 384.727 58.9316 383.203 58.4629C381.68 57.9941 380.273 57.4082 378.984 56.7051C377.695 56.002 376.465 55.2402 375.293 54.4199C374.531 53.8926 373.682 53.0137 372.744 51.7832C371.807 50.5527 370.928 49.0879 370.107 47.3887C369.287 45.6309 368.613 43.6973 368.086 41.5879C367.559 39.4785 367.354 37.3105 367.471 35.084C367.588 32.7988 368.115 30.5137 369.053 28.2285C369.99 25.9434 371.484 23.7461 373.535 21.6367C376.641 18.4727 379.951 16.4219 383.467 15.4844C387.041 14.4883 390.41 14.2246 393.574 14.6934C396.738 15.1035 399.551 16.0117 402.012 17.418C404.473 18.8242 406.201 20.3477 407.197 21.9883C408.193 23.6289 408.926 24.8887 409.395 25.7676C409.922 26.5879 410.303 27.2324 410.537 27.7012C410.83 28.1113 411.064 28.4336 411.24 28.668C411.475 28.8438 411.797 29.1074 412.207 29.459C412.5 29.752 412.852 30.0742 413.262 30.4258C413.613 30.7188 414.023 31.0703 414.492 31.4805C414.961 31.8906 415.488 32.3301 416.074 32.7988ZM413.877 21.9004C414.99 21.959 415.986 21.9883 416.865 21.9883C417.803 21.9297 418.594 21.8711 419.238 21.8125C420 21.7539 420.674 21.6953 421.26 21.6367C422.139 21.5195 423.047 21.373 423.984 21.1973C424.805 21.0801 425.654 20.9336 426.533 20.7578C427.471 20.5234 428.379 20.2598 429.258 19.9668C428.906 20.8457 428.613 21.6074 428.379 22.252C428.145 22.8965 427.969 23.4531 427.852 23.9219C427.676 24.4492 427.588 24.8887 427.588 25.2402C427.529 25.6504 427.5 26.1484 427.5 26.7344C427.441 27.7305 427.441 29.3418 427.5 31.5684C430.547 28.9316 433.096 26.8809 435.146 25.416C437.256 23.9512 438.926 22.8086 440.156 21.9883C441.621 21.0508 442.764 20.4355 443.584 20.1426C445.752 19.791 447.656 20.2891 449.297 21.6367C450 22.2227 450.674 23.0137 451.318 24.0098C451.963 24.9473 452.52 26.207 452.988 27.7891C453.457 29.3711 453.809 31.2754 454.043 33.502C454.277 35.6699 454.307 38.2773 454.131 41.3242C452.9 41.4414 451.787 41.5586 450.791 41.6758C449.854 41.793 449.062 41.8809 448.418 41.9395C447.656 42.0566 446.953 42.1152 446.309 42.1152L443.936 42.3789C443.115 42.4961 442.09 42.6133 440.859 42.7305C439.688 42.7891 438.252 42.9062 436.553 43.082C439.014 41.0898 440.596 39.3613 441.299 37.8965C442.061 36.373 442.383 35.1133 442.266 34.1172C442.148 33.0039 441.621 32.0371 440.684 31.2168C439.57 30.5723 438.369 30.3379 437.08 30.5137C435.967 30.6309 434.678 31.1289 433.213 32.0078C431.748 32.8867 430.195 34.5273 428.555 36.9297C428.672 40.6797 428.789 43.7852 428.906 46.2461C429.082 48.707 429.229 50.6992 429.346 52.2227C429.521 53.9805 429.668 55.3574 429.785 56.3535C429.961 57.2324 430.312 58.1699 430.84 59.166C431.25 59.9863 431.836 60.8945 432.598 61.8906C433.359 62.8867 434.355 63.8828 435.586 64.8789C433.008 64.7617 430.898 64.7617 429.258 64.8789C428.262 64.9375 427.383 64.9961 426.621 65.0547C425.801 65.1719 424.922 65.2891 423.984 65.4062C423.164 65.5234 422.197 65.6406 421.084 65.7578C420.029 65.9336 418.857 66.1094 417.568 66.2852C418.037 65.6406 418.418 64.8789 418.711 64C419.004 63.1797 419.238 62.3887 419.414 61.627C419.648 60.748 419.824 59.8398 419.941 58.9023C420 58.082 420.029 56.8516 420.029 55.2109C420.088 53.5703 420.059 51.7246 419.941 49.6738C419.883 47.5645 419.795 45.3965 419.678 43.1699C419.561 40.8848 419.414 38.7461 419.238 36.7539C419.062 34.7617 418.857 33.0332 418.623 31.5684C418.447 30.0449 418.242 28.9902 418.008 28.4043C417.715 27.7012 417.363 26.998 416.953 26.2949C416.602 25.6504 416.162 24.9766 415.635 24.2734C415.107 23.5117 414.521 22.7207 413.877 21.9004ZM457.822 24.7129L473.994 24.8887C473.057 28.4629 472.354 31.5098 471.885 34.0293C471.475 36.5488 471.211 38.6582 471.094 40.3574C470.859 42.291 470.801 43.9316 470.918 45.2793C471.094 46.5098 471.387 47.8281 471.797 49.2344C472.148 50.4062 472.676 51.7539 473.379 53.2773C474.082 54.8008 475.02 56.3242 476.191 57.8477C475.488 57.6133 474.727 57.4375 473.906 57.3203C473.086 57.2031 472.324 57.1152 471.621 57.0566C470.801 56.998 469.98 56.998 469.16 57.0566C468.34 57.1152 467.432 57.2031 466.436 57.3203C465.615 57.4375 464.619 57.584 463.447 57.7598C462.275 57.9355 461.045 58.1699 459.756 58.4629C460.635 55.8262 461.309 53.541 461.777 51.6074C462.305 49.6738 462.686 48.0625 462.92 46.7734C463.154 45.25 463.301 44.0195 463.359 43.082C463.359 41.9102 463.359 40.5918 463.359 39.127C463.359 37.6035 463.359 36.1387 463.359 34.7324C463.359 33.3262 463.33 32.0957 463.271 31.041C463.213 29.9277 463.096 29.2246 462.92 28.9316L462.041 28.0527C461.689 27.7598 461.162 27.3496 460.459 26.8223C459.814 26.2363 458.936 25.5332 457.822 24.7129ZM464.062 11.1777C465.293 10.5332 466.523 10.3574 467.754 10.6504C469.043 10.9434 470.039 11.5 470.742 12.3203C471.445 13.1406 471.68 14.1074 471.445 15.2207C471.27 16.334 470.332 17.418 468.633 18.4727C466.934 19.4688 465.439 19.8203 464.15 19.5273C462.861 19.2344 461.953 18.6191 461.426 17.6816C460.898 16.7441 460.811 15.6602 461.162 14.4297C461.514 13.1406 462.48 12.0566 464.062 11.1777ZM476.719 23.043C478.594 22.75 480.117 22.5156 481.289 22.3398C482.52 22.1055 483.516 21.9297 484.277 21.8125C485.156 21.6367 485.83 21.4902 486.299 21.373C486.768 21.2559 487.441 21.0801 488.32 20.8457C489.082 20.6113 490.078 20.3477 491.309 20.0547C492.539 19.7031 494.092 19.2344 495.967 18.6484C495.498 19.2344 495.117 19.7617 494.824 20.2305C494.59 20.6406 494.355 20.9922 494.121 21.2852C493.887 21.6367 493.682 21.959 493.506 22.252C493.33 22.5449 493.154 22.9844 492.979 23.5703C492.861 24.0391 492.715 24.7129 492.539 25.5918C492.363 26.4121 492.217 27.4961 492.1 28.8438C495.264 26.8516 498.164 25.3574 500.801 24.3613C503.496 23.3652 505.84 22.6621 507.832 22.252C510.176 21.7832 512.285 21.6074 514.16 21.7246C516.504 21.9004 518.672 22.4277 520.664 23.3066C522.715 24.127 524.561 25.123 526.201 26.2949C527.842 27.4668 529.277 28.7559 530.508 30.1621C531.738 31.5684 532.705 32.9746 533.408 34.3809C533.877 35.3184 534.17 36.666 534.287 38.4238C534.463 40.1816 534.287 42.0566 533.76 44.0488C533.232 46.041 532.295 48.0039 530.947 49.9375C529.658 51.8125 527.812 53.3066 525.41 54.4199C521.25 56.2949 517.119 57.3496 513.018 57.584C511.26 57.7012 509.443 57.6426 507.568 57.4082C505.752 57.1738 503.906 56.6758 502.031 55.9141C500.215 55.1523 498.457 54.0684 496.758 52.6621C495.059 51.1973 493.506 49.3223 492.1 47.0371C491.631 50.0254 491.279 52.6328 491.045 54.8594C490.869 57.0273 490.752 58.8438 490.693 60.3086C490.635 62.0078 490.635 63.4434 490.693 64.6152C490.811 65.7871 491.045 67.0469 491.396 68.3945C491.689 69.5664 492.1 70.9141 492.627 72.4375C493.213 74.0195 493.945 75.6602 494.824 77.3594C494.473 77.2422 493.975 77.1543 493.33 77.0957C492.744 77.0957 492.129 77.1543 491.484 77.2715C490.781 77.3887 489.99 77.5059 489.111 77.623C488.291 77.7988 487.383 78.0039 486.387 78.2383C485.566 78.4141 484.6 78.6191 483.486 78.8535C482.432 79.1465 481.348 79.4688 480.234 79.8203C480.879 79.0586 481.377 78.1797 481.729 77.1836C482.139 76.2461 482.461 75.3672 482.695 74.5469C482.93 73.5508 483.135 72.5547 483.311 71.5586C483.369 70.6797 483.457 69.0098 483.574 66.5488C483.75 64.1465 483.896 61.3633 484.014 58.1992C484.131 54.9766 484.219 51.6074 484.277 48.0918C484.395 44.5762 484.453 41.3242 484.453 38.3359C484.512 35.2891 484.512 32.7109 484.453 30.6016C484.395 28.4922 484.277 27.2617 484.102 26.9102C483.867 26.5 483.428 26.0605 482.783 25.5918C482.256 25.1816 481.494 24.7715 480.498 24.3613C479.561 23.9512 478.301 23.5117 476.719 23.043ZM497.637 39.0391C497.227 40.3867 497.139 41.7051 497.373 42.9941C497.607 44.2832 498.193 45.4844 499.131 46.5977C500.127 47.7109 501.504 48.707 503.262 49.5859C505.078 50.4062 507.334 51.0215 510.029 51.4316C512.725 51.8418 514.775 51.7832 516.182 51.2559C517.588 50.7285 518.613 49.9082 519.258 48.7949C519.961 47.623 520.43 46.2754 520.664 44.752C520.898 43.1699 521.191 41.5293 521.543 39.8301C521.895 38.1895 521.836 36.5195 521.367 34.8203C520.898 33.0625 520.225 31.4805 519.346 30.0742C518.525 28.668 517.588 27.5254 516.533 26.6465C515.537 25.709 514.658 25.2402 513.896 25.2402C512.08 25.2402 510.293 25.709 508.535 26.6465C506.777 27.584 505.166 28.7559 503.701 30.1621C502.236 31.5684 500.947 33.0918 499.834 34.7324C498.779 36.3145 498.047 37.75 497.637 39.0391ZM536.836 8.62891C538.594 8.80469 540.059 8.95117 541.23 9.06836C542.461 9.18555 543.457 9.27344 544.219 9.33203C545.098 9.39062 545.801 9.41992 546.328 9.41992C546.855 9.47852 547.559 9.47852 548.438 9.41992C549.199 9.36133 550.195 9.30273 551.426 9.24414C552.656 9.12695 554.209 8.95117 556.084 8.7168C555.674 9.30273 555.352 9.83008 555.117 10.2988C554.883 10.709 554.678 11.0898 554.502 11.4414L553.975 12.4961C553.857 12.8477 553.74 13.1992 553.623 13.5508C553.506 13.8438 553.389 14.1953 553.271 14.6055C553.213 15.0156 553.154 15.4551 553.096 15.9238H566.631L565.4 23.043L553.008 22.3398C552.715 25.3281 552.51 27.6426 552.393 29.2832C552.275 30.9238 552.158 32.125 552.041 32.8867L551.865 34.4688C551.689 36.6953 551.514 39.127 551.338 41.7637C551.162 44.3418 551.104 46.7441 551.162 48.9707C551.221 51.1973 551.426 53.0723 551.777 54.5957C552.129 56.0605 552.744 56.793 553.623 56.793C554.502 56.793 555.322 56.5586 556.084 56.0898C556.846 55.6211 557.49 55.0645 558.018 54.4199C558.604 53.7754 559.043 53.1309 559.336 52.4863C559.629 51.7832 559.775 51.2559 559.775 50.9043C559.775 50.5527 559.688 50.1426 559.512 49.6738C559.219 48.7949 558.691 47.6816 557.93 46.334C559.629 46.7441 561.123 47.1543 562.412 47.5645C563.057 47.7988 563.643 48.0332 564.17 48.2676C564.756 48.502 565.43 48.7656 566.191 49.0586C566.836 49.3516 567.656 49.7031 568.652 50.1133C569.648 50.5234 570.82 51.0215 572.168 51.6074C570.879 51.8418 569.941 52.2227 569.355 52.75C569.004 52.9844 568.74 53.248 568.564 53.541C568.154 54.1855 567.686 55.0645 567.158 56.1777C566.631 57.2324 565.84 58.2871 564.785 59.3418C563.73 60.3965 562.295 61.334 560.479 62.1543C558.721 62.9746 556.348 63.4434 553.359 63.5605C550.254 63.6777 547.881 63.1504 546.24 61.9785C544.658 60.8066 543.486 59.459 542.725 57.9355C542.021 56.3535 541.611 54.8008 541.494 53.2773C541.377 51.7539 541.289 50.7285 541.23 50.2012C541.172 49.6738 541.172 48.3555 541.23 46.2461C541.289 44.1367 541.377 41.8223 541.494 39.3027C541.611 36.7246 541.729 34.2637 541.846 31.9199C541.963 29.5176 542.021 27.7598 542.021 26.6465C542.021 26.0605 542.051 25.4453 542.109 24.8008C542.109 24.2734 542.109 23.7168 542.109 23.1309C542.168 22.4863 542.197 21.8711 542.197 21.2852L529.453 21.1973L528.926 16.1875L541.758 16.5391C541.641 15.8945 541.494 15.3086 541.318 14.7812C541.201 14.1953 541.084 13.7266 540.967 13.375C540.791 12.9648 540.615 12.6133 540.439 12.3203C540.205 12.0273 539.941 11.7051 539.648 11.3535C539.355 11.0605 538.975 10.6797 538.506 10.2109C538.037 9.74219 537.48 9.21484 536.836 8.62891ZM568.564 24.7129L584.736 24.8887C583.799 28.4629 583.096 31.5098 582.627 34.0293C582.217 36.5488 581.953 38.6582 581.836 40.3574C581.602 42.291 581.543 43.9316 581.66 45.2793C581.836 46.5098 582.129 47.8281 582.539 49.2344C582.891 50.4062 583.418 51.7539 584.121 53.2773C584.824 54.8008 585.762 56.3242 586.934 57.8477C586.23 57.6133 585.469 57.4375 584.648 57.3203C583.828 57.2031 583.066 57.1152 582.363 57.0566C581.543 56.998 580.723 56.998 579.902 57.0566C579.082 57.1152 578.174 57.2031 577.178 57.3203C576.357 57.4375 575.361 57.584 574.189 57.7598C573.018 57.9355 571.787 58.1699 570.498 58.4629C571.377 55.8262 572.051 53.541 572.52 51.6074C573.047 49.6738 573.428 48.0625 573.662 46.7734C573.896 45.25 574.043 44.0195 574.102 43.082C574.102 41.9102 574.102 40.5918 574.102 39.127C574.102 37.6035 574.102 36.1387 574.102 34.7324C574.102 33.3262 574.072 32.0957 574.014 31.041C573.955 29.9277 573.838 29.2246 573.662 28.9316L572.783 28.0527C572.432 27.7598 571.904 27.3496 571.201 26.8223C570.557 26.2363 569.678 25.5332 568.564 24.7129ZM574.805 11.1777C576.035 10.5332 577.266 10.3574 578.496 10.6504C579.785 10.9434 580.781 11.5 581.484 12.3203C582.188 13.1406 582.422 14.1074 582.188 15.2207C582.012 16.334 581.074 17.418 579.375 18.4727C577.676 19.4688 576.182 19.8203 574.893 19.5273C573.604 19.2344 572.695 18.6191 572.168 17.6816C571.641 16.7441 571.553 15.6602 571.904 14.4297C572.256 13.1406 573.223 12.0566 574.805 11.1777ZM613.652 24.625C615.176 24.625 616.758 24.918 618.398 25.5039C620.039 26.0312 621.621 26.7344 623.145 27.6133C624.668 28.4336 626.045 29.3418 627.275 30.3379C628.564 31.2754 629.619 32.1836 630.439 33.0625C631.904 34.6445 632.9 36.7832 633.428 39.4785C634.014 42.1152 634.131 44.8398 633.779 47.6523C633.428 50.4062 632.607 53.0137 631.318 55.4746C630.029 57.9355 628.242 59.752 625.957 60.9238C624.316 61.7441 622.705 62.3887 621.123 62.8574C619.541 63.3262 618.018 63.6777 616.553 63.9121C615.088 64.1465 613.711 64.2637 612.422 64.2637C611.133 64.2637 610.02 64.2344 609.082 64.1758C607.324 64.0586 605.479 63.4434 603.545 62.3301C601.67 61.2168 599.883 59.8398 598.184 58.1992C596.543 56.5586 595.137 54.7715 593.965 52.8379C592.793 50.8457 592.09 48.9707 591.855 47.2129C591.504 44.8105 591.445 42.291 591.68 39.6543C591.914 37.0176 592.764 34.5859 594.229 32.3594C595.752 30.1328 598.037 28.2871 601.084 26.8223C604.189 25.3574 608.379 24.625 613.652 24.625ZM610.752 58.7266C611.396 58.8438 612.275 58.6973 613.389 58.2871C614.502 57.8184 615.586 57.0859 616.641 56.0898C617.754 55.0938 618.721 53.834 619.541 52.3105C620.42 50.7285 620.947 48.8242 621.123 46.5977C621.299 44.4297 621.299 42.4375 621.123 40.6211C621.006 38.8047 620.742 37.2227 620.332 35.875C619.922 34.4688 619.453 33.3262 618.926 32.4473C618.398 31.5684 617.842 30.9531 617.256 30.6016C616.26 30.0742 615.059 29.6641 613.652 29.3711C612.246 29.0195 611.045 29.0781 610.049 29.5469C609.58 29.7812 608.994 30.2793 608.291 31.041C607.588 31.8027 606.885 32.7695 606.182 33.9414C605.479 35.0547 604.834 36.3438 604.248 37.8086C603.721 39.2734 603.34 40.7969 603.105 42.3789C602.871 43.9609 602.812 45.6602 602.93 47.4766C603.105 49.293 603.486 51.0215 604.072 52.6621C604.658 54.2441 605.479 55.6211 606.533 56.793C607.646 57.9062 609.053 58.5508 610.752 58.7266ZM640.723 54.332C641.133 52.3984 641.426 50.6992 641.602 49.2344C641.836 47.7109 642.012 46.4512 642.129 45.4551C642.246 44.2832 642.305 43.2871 642.305 42.4668C642.246 41.4707 642.188 40.2988 642.129 38.9512C642.129 37.5449 642.07 36.168 641.953 34.8203C641.895 33.4141 641.807 32.1836 641.689 31.1289C641.572 30.0156 641.426 29.2246 641.25 28.7559C641.016 28.2871 640.693 27.7891 640.283 27.2617C639.463 26.2656 638.262 25.2988 636.68 24.3613C638.027 24.0684 639.17 23.834 640.107 23.6582C641.104 23.4238 641.924 23.2188 642.568 23.043C643.271 22.8086 643.887 22.6035 644.414 22.4277C644.883 22.252 645.439 22.0762 646.084 21.9004C646.611 21.7832 647.256 21.6367 648.018 21.4609C648.779 21.2852 649.658 21.0801 650.654 20.8457L650.391 28.8438C652.266 26.6172 654.17 24.9473 656.104 23.834C658.037 22.7207 659.854 21.9297 661.553 21.4609C663.486 20.875 665.391 20.582 667.266 20.582C669.609 20.6992 671.777 21.0801 673.77 21.7246C675.82 22.3691 677.578 23.1309 679.043 24.0098C680.566 24.8301 681.797 25.709 682.734 26.6465C683.672 27.584 684.229 28.4043 684.404 29.1074C685.107 31.3926 685.283 33.502 684.932 35.4355C684.58 37.3105 684.111 39.1562 683.525 40.9727C682.998 42.7305 682.529 44.4883 682.119 46.2461C681.768 48.0039 681.914 49.9082 682.559 51.959C682.793 52.4863 683.027 53.0137 683.262 53.541C683.496 54.0098 683.789 54.4785 684.141 54.9473C684.492 55.416 684.902 55.7969 685.371 56.0898C684.727 56.0312 684.082 56.002 683.438 56.002C682.793 55.9434 682.207 55.8848 681.68 55.8262C681.035 55.7676 680.449 55.709 679.922 55.6504C679.336 55.5918 678.545 55.5625 677.549 55.5625C675.85 55.5625 673.213 55.6504 669.639 55.8262C670.166 54.5957 670.576 53.5703 670.869 52.75C671.221 51.8711 671.514 51.168 671.748 50.6406C671.982 49.9961 672.158 49.498 672.275 49.1465C672.979 47.4473 673.389 45.5137 673.506 43.3457C673.682 41.1777 673.535 38.9805 673.066 36.7539C672.891 35.9922 672.598 35.084 672.188 34.0293C671.777 32.9746 671.221 31.9492 670.518 30.9531C669.873 29.957 669.082 29.1074 668.145 28.4043C667.266 27.7012 666.24 27.291 665.068 27.1738C663.896 27.0566 662.578 27.3496 661.113 28.0527C659.707 28.7559 658.184 30.0449 656.543 31.9199C655.312 33.502 654.346 35.4355 653.643 37.7207C652.998 39.6543 652.559 42.0859 652.324 45.0156C652.09 47.8867 652.441 51.2559 653.379 55.123C652.559 55.0059 651.797 54.9473 651.094 54.9473C650.391 54.8887 649.805 54.8301 649.336 54.7715C648.75 54.7129 648.223 54.6543 647.754 54.5957C647.227 54.5957 646.641 54.5664 645.996 54.5078C645.41 54.5078 644.678 54.5078 643.799 54.5078C642.92 54.4492 641.895 54.3906 640.723 54.332Z" fill="black"/>
</svg>
