<svg width="461" height="122" viewBox="0 0 461 122" fill="none" xmlns="http://www.w3.org/2000/svg">
<g clip-path="url(#clip0_22_57)">
<path d="M-1.96875 25.1562C0.21875 25.4688 2.125 25.7188 3.75 25.9062C5.375 26.0938 6.71875 26.25 7.78125 26.375C9.03125 26.5 10.0938 26.5938 10.9688 26.6562C11.9688 26.7813 13.1875 26.7187 14.625 26.4688C16.125 26.2188 17.7188 25.9687 19.4062 25.7188C21.0938 25.4062 22.8438 25.1562 24.6562 24.9688C26.4688 24.7812 28.2188 24.7812 29.9062 24.9688C31.0312 25.0938 32.4688 25.3438 34.2188 25.7188C35.9688 26.0938 37.8125 26.6875 39.75 27.5C41.75 28.3125 43.75 29.375 45.75 30.6875C47.75 32 49.5625 33.6562 51.1875 35.6562C52.8125 37.6562 54.1562 40.0312 55.2188 42.7812C56.2812 45.5312 56.875 48.75 57 52.4375C57.1875 57.9375 56.6875 62.9375 55.5 67.4375C54.3125 71.9375 52.4688 75.7812 49.9688 78.9688C47.5312 82.1562 44.4375 84.6562 40.6875 86.4688C36.9375 88.2812 32.5625 89.2812 27.5625 89.4688C23.75 89.7812 20 90.0625 16.3125 90.3125C14.75 90.4375 13.0938 90.5312 11.3438 90.5938C9.65625 90.6562 7.96875 90.7188 6.28125 90.7812C4.59375 90.7812 2.96875 90.75 1.40625 90.6875C-0.15625 90.625 -1.59375 90.5312 -2.90625 90.4062C-1.46875 89.7188 -0.3125 89.0312 0.5625 88.3438C1.5 87.6562 2.21875 87.0625 2.71875 86.5625C3.28125 85.9375 3.6875 85.375 3.9375 84.875C4.0625 84.1875 4.25 82.8438 4.5 80.8438C4.6875 79.1562 4.9375 76.75 5.25 73.625C5.5625 70.5 5.9375 66.25 6.375 60.875L6.9375 54.2188C7.25 50.0938 7.375 46.7188 7.3125 44.0938C7.3125 41.4688 7.25 39.4062 7.125 37.9062C6.9375 36.1562 6.6875 34.875 6.375 34.0625C6.125 33.375 5.65625 32.5625 4.96875 31.625C4.34375 30.875 3.46875 29.9688 2.34375 28.9062C1.28125 27.7812 -0.15625 26.5312 -1.96875 25.1562ZM17.8125 59.6562C17.9375 65.2188 18.2188 69.5 18.6562 72.5C19.1562 75.4375 19.6875 77.625 20.25 79.0625C20.9375 80.6875 21.6875 81.6562 22.5 81.9688C23.6875 81.9688 25.0312 81.4688 26.5312 80.4688C28.0312 79.4062 29.5 77.8125 30.9375 75.6875C32.4375 73.5625 33.7812 70.9062 34.9688 67.7188C36.2188 64.5312 37.125 60.8125 37.6875 56.5625C38.25 52.3125 38.0938 48.5625 37.2188 45.3125C36.3438 42.0625 35.1875 39.3438 33.75 37.1562C32.3125 34.9062 30.8438 33.2188 29.3438 32.0938C27.8438 30.9063 26.7188 30.3125 25.9688 30.3125C25.0938 30.3125 24.3125 30.5625 23.625 31.0625C22.9375 31.5 21.9688 32.5312 20.7188 34.1562C20.0938 35.0312 19.5312 36.2812 19.0312 37.9062C18.5938 39.3438 18.2188 41.25 17.9062 43.625C17.5938 46 17.5 49.0625 17.625 52.8125L17.8125 59.6562ZM68.3438 54.0312C68.6562 53.6562 68.8438 52.9688 68.9062 51.9688C69.0312 50.9062 69.2812 49.7188 69.6562 48.4062C70.0938 47.0938 70.8125 45.7188 71.8125 44.2812C72.8125 42.8438 74.4375 41.5 76.6875 40.25C78.875 39 81 38.25 83.0625 38C85.125 37.75 87.0938 37.8438 88.9688 38.2812C90.8438 38.7188 92.5938 39.4062 94.2188 40.3438C95.9062 41.2812 97.4375 42.3125 98.8125 43.4375C99.75 44.1875 100.5 45.2812 101.062 46.7188C101.625 48.0938 102.062 49.6562 102.375 51.4062C102.688 53.1562 102.906 55 103.031 56.9375C103.219 58.8125 103.344 60.6562 103.406 62.4688C103.469 64.2188 103.5 65.8438 103.5 67.3438C103.562 68.7812 103.688 69.9688 103.875 70.9062C104.125 72.2812 104.562 73.4688 105.188 74.4688C105.812 75.4062 106.5 76.2188 107.25 76.9062C108 77.5312 108.75 78.0312 109.5 78.4062C110.25 78.7812 110.906 79.0625 111.469 79.25C111.844 79.4375 112.188 79.5625 112.5 79.625C113.125 79.875 113.562 79.875 113.812 79.625C113.438 80.5 113.094 81.25 112.781 81.875C112.469 82.5 112.219 83.0312 112.031 83.4688C111.781 83.9688 111.562 84.375 111.375 84.6875C111.188 85.0625 110.969 85.4062 110.719 85.7188C110.531 86.0312 110.281 86.375 109.969 86.75C109.656 87.125 109.344 87.5312 109.031 87.9688C108.219 87.6562 107.438 87.2812 106.688 86.8438C106 86.4062 105.375 86 104.812 85.625C104.125 85.1875 103.5 84.75 102.938 84.3125C102.375 83.875 101.844 83.375 101.344 82.8125C100.906 82.3125 100.438 81.7812 99.9375 81.2188C99.5 80.6562 99.125 80.0312 98.8125 79.3438C98.4375 80.1562 97.5312 81.3125 96.0938 82.8125C94.7188 84.3125 92.9062 85.6875 90.6562 86.9375C88.4062 88.125 85.7812 88.9688 82.7812 89.4688C79.8438 89.9688 76.5938 89.625 73.0312 88.4375C71.4688 87.9375 70 87.2188 68.625 86.2812C67.25 85.2812 66.0625 84.0938 65.0625 82.7188C64.125 81.3438 63.4375 79.7812 63 78.0312C62.625 76.2188 62.6562 74.2188 63.0938 72.0312C63.5312 69.8438 64.3125 68 65.4375 66.5C66.5625 65 67.9062 63.7812 69.4688 62.8438C71.0312 61.9062 72.7812 61.1875 74.7188 60.6875C76.6562 60.1875 78.6562 59.8438 80.7188 59.6562C82.3438 59.5938 83.9688 59.6875 85.5938 59.9375C86.9688 60.1875 88.4062 60.6562 89.9062 61.3438C91.4062 61.9688 92.6875 62.9375 93.75 64.25C93.6875 60.9375 93.5625 58.3125 93.375 56.375C93.25 54.375 93.125 52.8438 93 51.7812C92.75 50.5312 92.5312 49.6562 92.3438 49.1562C92.0312 48.7188 91.6875 48.2188 91.3125 47.6562C91 47.0938 90.5938 46.5938 90.0938 46.1562C89.5938 45.6562 88.9688 45.25 88.2188 44.9375C87.4688 44.625 86.5938 44.5 85.5938 44.5625C84.5312 44.625 83.6875 44.9062 83.0625 45.4062C82.4375 45.9062 81.9375 46.5 81.5625 47.1875C81.25 47.8125 81.0625 48.5 81 49.25C80.9375 50 80.9688 50.6562 81.0938 51.2188C81.2188 51.5938 81.4062 52 81.6562 52.4375C81.9062 52.8125 82.25 53.2188 82.6875 53.6562C83.125 54.0938 83.7188 54.4688 84.4688 54.7812C83.0312 54.9688 81.75 55.125 80.625 55.25C79.5 55.3125 78.5312 55.4062 77.7188 55.5312C76.7812 55.6562 75.9688 55.75 75.2812 55.8125C74.5938 55.875 73.7812 56 72.8438 56.1875C72.0312 56.3125 71.0312 56.4688 69.8438 56.6562C68.6562 56.8438 67.2812 57.0938 65.7188 57.4062C66.0938 56.9688 66.4375 56.5625 66.75 56.1875C67.0625 55.75 67.3438 55.375 67.5938 55.0625C67.8438 54.6875 68.0938 54.3438 68.3438 54.0312ZM82.4062 65.1875C81.2812 65.25 80.1562 65.5312 79.0312 66.0312C77.9062 66.4688 76.9062 67.125 76.0312 68C75.1562 68.8125 74.4062 69.7812 73.7812 70.9062C73.2188 71.9688 72.9375 73.1562 72.9375 74.4688C72.9375 75.7812 73.25 76.9375 73.875 77.9375C74.5625 78.875 75.4375 79.6562 76.5 80.2812C77.625 80.9062 78.8125 81.2812 80.0625 81.4062C81.375 81.5312 82.6562 81.4062 83.9062 81.0312C85.0938 80.5938 86.2188 79.9062 87.2812 78.9688C88.3438 77.9688 89.25 76.9062 90 75.7812C90.75 74.5938 91.2812 73.4375 91.5938 72.3125C91.9062 71.125 91.9375 70.1562 91.6875 69.4062C91.1875 67.7812 90.0625 66.6562 88.3125 66.0312C86.5625 65.3438 84.5938 65.0625 82.4062 65.1875ZM106.688 40.3438C107.75 40.5312 108.844 40.6875 109.969 40.8125C111.031 40.875 112 40.9375 112.875 41C113.875 41.0625 114.844 41.0938 115.781 41.0938C116.719 41.0938 117.781 41.0625 118.969 41C119.969 40.9375 121.156 40.8438 122.531 40.7188C123.969 40.5938 125.531 40.4062 127.219 40.1562C126.219 40.7188 125.438 41.3125 124.875 41.9375C124.312 42.5625 123.875 43.125 123.562 43.625C123.188 44.25 122.938 44.8125 122.812 45.3125C122.688 45.8125 122.719 46.8438 122.906 48.4062C123.094 49.9688 123.344 51.7812 123.656 53.8438C124.031 55.9062 124.438 58.0625 124.875 60.3125C125.312 62.5625 125.75 64.625 126.188 66.5C126.688 68.375 127.125 69.9375 127.5 71.1875C127.938 72.4375 128.281 73.0312 128.531 72.9688C128.781 72.9688 129.156 72.3438 129.656 71.0938C130.219 69.8438 130.844 68.3125 131.531 66.5C132.219 64.625 132.938 62.5938 133.688 60.4062C134.438 58.1562 135.094 56.0625 135.656 54.125C136.219 52.1875 136.656 50.5625 136.969 49.25C137.344 47.875 137.5 47.0625 137.438 46.8125C137.25 46.5625 137.031 46.2188 136.781 45.7812C136.344 45.0938 135.375 43.9062 133.875 42.2188C135.688 42.3438 137.25 42.4688 138.562 42.5938C139.875 42.6562 140.938 42.75 141.75 42.875C142.688 43 143.438 43.0938 144 43.1562C144.562 43.2188 145.375 43.2188 146.438 43.1562C147.312 43.1562 148.469 43.125 149.906 43.0625C151.406 42.9375 153.25 42.75 155.438 42.5C153.812 43.4375 152.469 44.2812 151.406 45.0312C150.406 45.7188 149.625 46.3125 149.062 46.8125C148.375 47.4375 147.875 47.9688 147.562 48.4062C147.125 49.2188 146.344 51.1562 145.219 54.2188C144.719 55.5312 144.094 57.1562 143.344 59.0938C142.656 61.0312 141.812 63.375 140.812 66.125C139.875 68.8125 138.75 71.9688 137.438 75.5938C136.125 79.2188 134.656 83.375 133.031 88.0625L123.938 89C122.75 85.0625 121.781 81.7812 121.031 79.1562C120.344 76.4688 119.781 74.3125 119.344 72.6875C118.844 70.8125 118.469 69.3438 118.219 68.2812C117.906 67.0938 117.531 65.375 117.094 63.125C116.656 60.8125 116.219 58.4688 115.781 56.0938C115.344 53.7188 114.906 51.5938 114.469 49.7188C114.031 47.7812 113.688 46.5938 113.438 46.1562C113.188 45.8438 112.75 45.4062 112.125 44.8438C111.625 44.3438 110.938 43.75 110.062 43.0625C109.188 42.3125 108.062 41.4062 106.688 40.3438ZM150.656 50.0938L167.906 50.2812C166.906 54.0938 166.156 57.3438 165.656 60.0312C165.219 62.7188 164.938 64.9688 164.812 66.7812C164.562 68.8438 164.5 70.5938 164.625 72.0312C164.812 73.3438 165.125 74.75 165.562 76.25C165.938 77.5 166.5 78.9375 167.25 80.5625C168 82.1875 169 83.8125 170.25 85.4375C169.5 85.1875 168.688 85 167.812 84.875C166.938 84.75 166.125 84.6562 165.375 84.5938C164.5 84.5312 163.625 84.5312 162.75 84.5938C161.875 84.6562 160.906 84.75 159.844 84.875C158.969 85 157.906 85.1562 156.656 85.3438C155.406 85.5312 154.094 85.7812 152.719 86.0938C153.656 83.2812 154.375 80.8438 154.875 78.7812C155.438 76.7188 155.844 75 156.094 73.625C156.344 72 156.5 70.6875 156.562 69.6875C156.562 68.4375 156.562 67.0312 156.562 65.4688C156.562 63.8438 156.562 62.2812 156.562 60.7812C156.562 59.2812 156.531 57.9688 156.469 56.8438C156.406 55.6562 156.281 54.9062 156.094 54.5938L155.156 53.6562C154.781 53.3438 154.219 52.9062 153.469 52.3438C152.781 51.7188 151.844 50.9688 150.656 50.0938ZM157.312 35.6562C158.625 34.9688 159.938 34.7812 161.25 35.0938C162.625 35.4062 163.688 36 164.438 36.875C165.188 37.75 165.438 38.7812 165.188 39.9688C165 41.1562 164 42.3125 162.188 43.4375C160.375 44.5 158.781 44.875 157.406 44.5625C156.031 44.25 155.062 43.5938 154.5 42.5938C153.938 41.5938 153.844 40.4375 154.219 39.125C154.594 37.75 155.625 36.5938 157.312 35.6562ZM219.656 20.1875C220.844 20.25 222.125 20.2812 223.5 20.2812C224.688 20.2812 226.031 20.3125 227.531 20.375C229.094 20.375 230.719 20.3125 232.406 20.1875C230.906 20.875 229.594 21.875 228.469 23.1875C227.344 24.5 226.438 25.8125 225.75 27.125C224.875 28.6875 224.156 30.3125 223.594 32C223.281 33 223.031 34.7812 222.844 37.3438C222.656 39.8438 222.5 42.7812 222.375 46.1562C222.312 49.5312 222.281 53.0938 222.281 56.8438C222.281 60.5938 222.312 64.1875 222.375 67.625C222.438 71 222.531 74 222.656 76.625C222.781 79.25 222.938 81.0938 223.125 82.1562C223.375 83.4062 223.688 84.5938 224.062 85.7188C224.375 86.7188 224.781 87.75 225.281 88.8125C225.781 89.8125 226.406 90.625 227.156 91.25L217.594 95.5625C217.094 94.875 216.688 94.1562 216.375 93.4062C216.062 92.7188 215.812 92.0938 215.625 91.5312C215.375 90.8438 215.219 90.2188 215.156 89.6562C215.031 88.9062 214.906 88.0938 214.781 87.2188C214.656 86.2812 214.5 85.4062 214.312 84.5938C214.188 83.7188 214.094 83 214.031 82.4375C213.969 81.875 213.969 81.5312 214.031 81.4062C214.094 81.2812 213.719 81.8438 212.906 83.0938C212.094 84.2812 210.875 85.6875 209.25 87.3125C207.688 88.875 205.75 90.4062 203.438 91.9062C201.125 93.3438 198.531 94.25 195.656 94.625C192.719 95 190 94.4375 187.5 92.9375C185.062 91.4375 182.969 89.3438 181.219 86.6562C179.469 83.9062 178.125 80.75 177.188 77.1875C176.312 73.5625 175.969 69.875 176.156 66.125C176.281 63.625 176.844 61.4062 177.844 59.4688C178.844 57.4688 180.094 55.75 181.594 54.3125C183.156 52.8125 184.844 51.5625 186.656 50.5625C188.531 49.5 190.344 48.625 192.094 47.9375C193.906 47.25 195.594 46.75 197.156 46.4375C198.719 46.125 199.969 45.9062 200.906 45.7812C202.031 45.7188 203.312 45.9062 204.75 46.3438C206 46.7188 207.438 47.3438 209.062 48.2188C210.75 49.0938 212.625 50.4062 214.688 52.1562C214.312 45.9062 213.969 40.9062 213.656 37.1562C213.344 33.3438 213.031 30.4375 212.719 28.4375C212.406 26.0625 212.125 24.4375 211.875 23.5625C211.562 22.9375 211.156 22.3125 210.656 21.6875C210.219 21.1875 209.656 20.6875 208.969 20.1875C208.344 19.625 207.594 19.1875 206.719 18.875C208.344 19.1875 209.906 19.4062 211.406 19.5312C212.906 19.6563 214.281 19.7812 215.531 19.9062C216.969 20.0313 218.344 20.125 219.656 20.1875ZM196.125 55.1562C194.938 55.5938 193.969 56.3438 193.219 57.4062C192.531 58.4688 191.969 59.75 191.531 61.25C191.094 62.6875 190.781 64.25 190.594 65.9375C190.469 67.5625 190.375 69.1562 190.312 70.7188C190.312 72.2188 190.312 73.5938 190.312 74.8438C190.312 76.0938 190.312 77.0312 190.312 77.6562C190.312 78.0312 190.375 78.7188 190.5 79.7188C190.688 80.6562 191.062 81.6562 191.625 82.7188C192.188 83.7188 192.969 84.625 193.969 85.4375C195.031 86.25 196.438 86.6562 198.188 86.6562C199.625 86.5312 201.156 86.0312 202.781 85.1562C204.219 84.4062 205.844 83.2188 207.656 81.5938C209.531 79.9062 211.531 77.5 213.656 74.375C213.531 72.375 213.438 70.7188 213.375 69.4062C213.375 68.0938 213.344 67.0312 213.281 66.2188C213.219 65.2812 213.188 64.5312 213.188 63.9688V62.5625C213.188 62.1875 213.188 61.7812 213.188 61.3438C213.188 60.9062 213.219 60.5 213.281 60.125C211.531 58.875 209.969 57.8125 208.594 56.9375C207.281 56 205.969 55.3125 204.656 54.875C203.406 54.375 202.094 54.1562 200.719 54.2188C199.406 54.2188 197.875 54.5312 196.125 55.1562ZM261.938 25.0625C264.062 25.375 265.938 25.5937 267.562 25.7188C269.25 25.8438 270.656 25.9687 271.781 26.0938C273.094 26.2188 274.219 26.2812 275.156 26.2812H278.812C281.25 26.2812 285.281 26.1875 290.906 26C289.531 26.4375 288.375 27.0625 287.438 27.875C286.562 28.6875 285.844 29.5312 285.281 30.4062C284.594 31.4062 284.094 32.4375 283.781 33.5C283.406 34.8125 283.062 36.5625 282.75 38.75C282.438 40.6875 282.125 43.2188 281.812 46.3438C281.562 49.4688 281.312 53.375 281.062 58.0625C283.75 55 286.094 52.2812 288.094 49.9062C290.156 47.5312 291.938 45.4375 293.438 43.625C294.938 41.8125 296.188 40.25 297.188 38.9375C298.25 37.625 299.125 36.5 299.812 35.5625C301.438 33.4375 302.375 32 302.625 31.25C302.688 30.8125 302.656 30.2812 302.531 29.6562C302.406 29.1562 302.219 28.5625 301.969 27.875C301.719 27.125 301.344 26.3125 300.844 25.4375C303.344 25.5625 305.469 25.6563 307.219 25.7188C309.031 25.7812 310.531 25.8438 311.719 25.9062C313.094 25.9687 314.219 26 315.094 26H319.031C320.469 26 322.344 26 324.656 26C326.969 25.9375 329.875 25.875 333.375 25.8125C331.062 26.375 328.875 27.125 326.812 28.0625C324.75 29 322.906 29.9062 321.281 30.7812C319.406 31.8438 317.656 32.9375 316.031 34.0625C314.406 35.3125 312.594 36.7812 310.594 38.4688C308.906 39.9062 306.938 41.6875 304.688 43.8125C302.438 45.875 300 48.2812 297.375 51.0312C300.188 56.5312 302.625 61.0625 304.688 64.625C306.812 68.125 308.594 70.9375 310.031 73.0625C311.656 75.5625 313.031 77.4688 314.156 78.7812C315.281 79.9688 316.594 81.1875 318.094 82.4375C319.344 83.5 320.906 84.6875 322.781 86C324.656 87.25 326.812 88.4688 329.25 89.6562L302.531 90.9688C302.906 90.4688 303.125 89.875 303.188 89.1875C303.312 88.4375 303.375 87.75 303.375 87.125C303.375 86.4375 303.312 85.6875 303.188 84.875C302.938 83.875 302.281 82.25 301.219 80C300.344 78.0625 299 75.3438 297.188 71.8438C295.375 68.2812 292.875 63.5938 289.688 57.7812L281.719 66.125C281.406 68.125 281.25 69.9375 281.25 71.5625C281.25 73.1875 281.312 74.5312 281.438 75.5938C281.625 76.9062 281.875 78.0312 282.188 78.9688C282.562 79.9062 283.094 80.9688 283.781 82.1562C284.344 83.2188 285.094 84.4688 286.031 85.9062C286.969 87.3438 288.156 88.9375 289.594 90.6875C288.156 90.3125 286.719 90.0625 285.281 89.9375C283.844 89.75 282.531 89.625 281.344 89.5625C279.969 89.5 278.656 89.5312 277.406 89.6562C276.094 89.7812 274.562 89.9688 272.812 90.2188C271.312 90.4688 269.469 90.7812 267.281 91.1562C265.094 91.5312 262.594 92 259.781 92.5625C261.156 91.75 262.25 90.875 263.062 89.9375C263.875 89 264.531 88.0938 265.031 87.2188C265.594 86.2188 265.969 85.25 266.156 84.3125C266.281 83.5 266.375 81.75 266.438 79.0625C266.562 76.375 266.625 73.25 266.625 69.6875C266.688 66.0625 266.688 62.25 266.625 58.25C266.562 54.25 266.5 50.5 266.438 47C266.375 43.5 266.281 40.5312 266.156 38.0938C266.094 35.5938 266.031 34.0625 265.969 33.5C265.781 32.625 265.531 31.6875 265.219 30.6875C264.906 29.8125 264.469 28.9062 263.906 27.9688C263.406 26.9688 262.75 26 261.938 25.0625ZM322.781 50.0938L340.031 50.2812C339.031 54.0938 338.281 57.3438 337.781 60.0312C337.344 62.7188 337.062 64.9688 336.938 66.7812C336.688 68.8438 336.625 70.5938 336.75 72.0312C336.938 73.3438 337.25 74.75 337.688 76.25C338.062 77.5 338.625 78.9375 339.375 80.5625C340.125 82.1875 341.125 83.8125 342.375 85.4375C341.625 85.1875 340.812 85 339.938 84.875C339.062 84.75 338.25 84.6562 337.5 84.5938C336.625 84.5312 335.75 84.5312 334.875 84.5938C334 84.6562 333.031 84.75 331.969 84.875C331.094 85 330.031 85.1562 328.781 85.3438C327.531 85.5312 326.219 85.7812 324.844 86.0938C325.781 83.2812 326.5 80.8438 327 78.7812C327.562 76.7188 327.969 75 328.219 73.625C328.469 72 328.625 70.6875 328.688 69.6875C328.688 68.4375 328.688 67.0312 328.688 65.4688C328.688 63.8438 328.688 62.2812 328.688 60.7812C328.688 59.2812 328.656 57.9688 328.594 56.8438C328.531 55.6562 328.406 54.9062 328.219 54.5938L327.281 53.6562C326.906 53.3438 326.344 52.9062 325.594 52.3438C324.906 51.7188 323.969 50.9688 322.781 50.0938ZM329.438 35.6562C330.75 34.9688 332.062 34.7812 333.375 35.0938C334.75 35.4062 335.812 36 336.562 36.875C337.312 37.75 337.562 38.7812 337.312 39.9688C337.125 41.1562 336.125 42.3125 334.312 43.4375C332.5 44.5 330.906 44.875 329.531 44.5625C328.156 44.25 327.188 43.5938 326.625 42.5938C326.062 41.5938 325.969 40.4375 326.344 39.125C326.719 37.75 327.75 36.5938 329.438 35.6562ZM348.656 81.6875C349.094 79.625 349.406 77.8125 349.594 76.25C349.844 74.625 350.031 73.2812 350.156 72.2188C350.281 70.9688 350.344 69.9062 350.344 69.0312C350.281 67.9688 350.219 66.7188 350.156 65.2812C350.156 63.7812 350.094 62.3125 349.969 60.875C349.906 59.375 349.812 58.0625 349.688 56.9375C349.562 55.75 349.406 54.9062 349.219 54.4062C348.969 53.9062 348.625 53.375 348.188 52.8125C347.312 51.75 346.031 50.7188 344.344 49.7188C345.781 49.4062 347 49.1562 348 48.9688C349.062 48.7188 349.938 48.5 350.625 48.3125C351.375 48.0625 352.031 47.8438 352.594 47.6562C353.094 47.4688 353.688 47.2812 354.375 47.0938C354.938 46.9688 355.625 46.8125 356.438 46.625C357.25 46.4375 358.188 46.2188 359.25 45.9688L358.969 54.5C360.969 52.125 363 50.3438 365.062 49.1562C367.125 47.9688 369.062 47.125 370.875 46.625C372.938 46 374.969 45.6875 376.969 45.6875C379.469 45.8125 381.781 46.2188 383.906 46.9062C386.094 47.5938 387.969 48.4062 389.531 49.3438C391.156 50.2188 392.469 51.1562 393.469 52.1562C394.469 53.1562 395.062 54.0312 395.25 54.7812C396 57.2188 396.188 59.4688 395.812 61.5312C395.438 63.5312 394.938 65.5 394.312 67.4375C393.75 69.3125 393.25 71.1875 392.812 73.0625C392.438 74.9375 392.594 76.9688 393.281 79.1562C393.531 79.7188 393.781 80.2812 394.031 80.8438C394.281 81.3438 394.594 81.8438 394.969 82.3438C395.344 82.8438 395.781 83.25 396.281 83.5625C395.594 83.5 394.906 83.4688 394.219 83.4688C393.531 83.4062 392.906 83.3438 392.344 83.2812C391.656 83.2188 391.031 83.1562 390.469 83.0938C389.844 83.0312 389 83 387.938 83C386.125 83 383.312 83.0938 379.5 83.2812C380.062 81.9688 380.5 80.875 380.812 80C381.188 79.0625 381.5 78.3125 381.75 77.75C382 77.0625 382.188 76.5312 382.312 76.1562C383.062 74.3438 383.5 72.2812 383.625 69.9688C383.812 67.6562 383.656 65.3125 383.156 62.9375C382.969 62.125 382.656 61.1562 382.219 60.0312C381.781 58.9062 381.188 57.8125 380.438 56.75C379.75 55.6875 378.906 54.7812 377.906 54.0312C376.969 53.2812 375.875 52.8438 374.625 52.7188C373.375 52.5938 371.969 52.9062 370.406 53.6562C368.906 54.4062 367.281 55.7812 365.531 57.7812C364.219 59.4688 363.188 61.5312 362.438 63.9688C361.75 66.0312 361.281 68.625 361.031 71.75C360.781 74.8125 361.156 78.4062 362.156 82.5312C361.281 82.4062 360.469 82.3438 359.719 82.3438C358.969 82.2812 358.344 82.2188 357.844 82.1562C357.219 82.0938 356.656 82.0312 356.156 81.9688C355.594 81.9688 354.969 81.9375 354.281 81.875C353.656 81.875 352.875 81.875 351.938 81.875C351 81.8125 349.906 81.75 348.656 81.6875ZM446.25 52.25C446.062 51 445.906 49.9688 445.781 49.1562C445.656 48.2812 445.531 47.5938 445.406 47.0938C445.281 46.4688 445.188 46 445.125 45.6875C445 45.375 444.844 45.0312 444.656 44.6562C444.531 44.3438 444.312 43.9688 444 43.5312C443.75 43.0938 443.438 42.5938 443.062 42.0312C443.875 42.2812 444.688 42.4375 445.5 42.5C446.375 42.5625 447.188 42.625 447.938 42.6875C448.75 42.75 449.594 42.75 450.469 42.6875C451.344 42.6875 452.344 42.6562 453.469 42.5938C454.469 42.5312 455.656 42.5 457.031 42.5C458.469 42.4375 460.094 42.3438 461.906 42.2188C460.844 42.4688 459.938 42.9062 459.188 43.5312C458.5 44.0938 457.906 44.7188 457.406 45.4062C456.844 46.1562 456.375 46.9688 456 47.8438C455.688 48.6562 455.5 50.2188 455.438 52.5312C455.375 54.7812 455.375 57.4688 455.438 60.5938C455.5 63.6562 455.562 66.9688 455.625 70.5312C455.75 74.0938 455.812 77.5 455.812 80.75C455.875 84 455.875 86.9688 455.812 89.6562C455.75 92.2812 455.594 94.2188 455.344 95.4688C454.469 99.4062 452.844 102.594 450.469 105.031C448.094 107.531 444.969 108.875 441.094 109.062C436.406 109.25 432.688 108.812 429.938 107.75C427.25 106.688 425.156 105.375 423.656 103.812C422.156 102.312 421.031 100.781 420.281 99.2188C419.531 97.6562 418.75 96.4688 417.938 95.6562C417.188 94.9688 416.438 94.3125 415.688 93.6875C415 93.1875 414.281 92.6875 413.531 92.1875C412.844 91.6875 412.156 91.375 411.469 91.25C413.281 91.3125 414.906 91.3438 416.344 91.3438C417.781 91.3438 419 91.3438 420 91.3438C421.125 91.3438 422.125 91.3125 423 91.25H426H434.531C433.281 91.625 432.344 92.0312 431.719 92.4688C431.094 92.9688 430.656 93.4688 430.406 93.9688C430.156 94.5312 430.031 95.0938 430.031 95.6562C430.281 97.1562 431.094 98.25 432.469 98.9375C433.844 99.625 435.719 100.031 438.094 100.156C440.406 100.281 442 100.219 442.875 99.9688C443.75 99.7812 444.438 99.4062 444.938 98.8438C445.938 97.3438 446.781 95.4062 447.469 93.0312C447.969 91.0312 448.312 88.4375 448.5 85.25C448.75 82 448.469 78.0312 447.656 73.3438C445.656 76.0938 443.344 78.1562 440.719 79.5312C438.094 80.9062 435.594 81.9062 433.219 82.5312C430.406 83.2188 427.562 83.5625 424.688 83.5625C417.125 83.25 411.469 81.5 407.719 78.3125C403.969 75.125 402.25 70.8438 402.562 65.4688C402.75 62.7812 403.562 60.0938 405 57.4062C406.5 54.7188 408.438 52.3125 410.812 50.1875C413.25 48.0625 416.031 46.375 419.156 45.125C422.281 43.875 425.531 43.3438 428.906 43.5312C431.469 43.7812 433.875 44.25 436.125 44.9375C438.062 45.5625 439.969 46.4375 441.844 47.5625C443.781 48.6875 445.25 50.25 446.25 52.25ZM416.438 61.625C416.062 64.0625 416.219 66.3438 416.906 68.4688C417.656 70.5938 418.688 72.4375 420 74C421.312 75.5 422.781 76.6875 424.406 77.5625C426.031 78.375 427.562 78.75 429 78.6875C432 78.625 434.594 77.2812 436.781 74.6562C438.969 71.9688 440.281 67.9688 440.719 62.6562C440.906 60.0312 440.562 57.7812 439.688 55.9062C438.875 53.9688 437.844 52.4062 436.594 51.2188C435.344 50.0312 434.031 49.1875 432.656 48.6875C431.281 48.1875 430.188 47.9688 429.375 48.0312C428.25 48.1562 427 48.5 425.625 49.0625C424.312 49.5625 423.031 50.3438 421.781 51.4062C420.531 52.4062 419.406 53.75 418.406 55.4375C417.469 57.125 416.812 59.1875 416.438 61.625Z" fill="black"/>
</g>
<defs>
<clipPath id="clip0_22_57">
<rect width="461" height="122" fill="white"/>
</clipPath>
</defs>
</svg>
