<svg width="503" height="116" viewBox="0 0 503 116" fill="none" xmlns="http://www.w3.org/2000/svg">
<path d="M18.5312 24.7812C20.5312 24.8437 22.2812 24.875 23.7812 24.875C25.2812 24.8125 26.5 24.7812 27.4375 24.7812H30.1562C30.8438 24.7188 31.6875 24.6875 32.6875 24.6875C33.5625 24.6875 34.625 24.6875 35.875 24.6875C37.125 24.6875 38.5625 24.7188 40.1875 24.7812C40.6875 26.5312 41.25 28.25 41.875 29.9375C42.5625 31.5625 43.1562 33.0312 43.6562 34.3438C44.2812 35.9062 44.9062 37.375 45.5312 38.75C46.1562 40.125 46.9062 41.7812 47.7812 43.7188C48.5312 45.3438 49.4375 47.3438 50.5 49.7188C51.5625 52.0312 52.8125 54.6875 54.25 57.6875C54.9375 55.75 55.5625 53.9688 56.125 52.3438C56.75 50.7188 57.2812 49.3125 57.7188 48.125C58.2188 46.75 58.625 45.5 58.9375 44.375C59.25 43.25 59.5938 41.875 59.9688 40.25C60.2812 38.875 60.625 37.2188 61 35.2812C61.4375 33.3438 61.875 31.0938 62.3125 28.5312C64.125 28.5312 65.75 28.5312 67.1875 28.5312C68.625 28.5312 69.875 28.5 70.9375 28.4375C72.125 28.4375 73.1875 28.4062 74.125 28.3438C75.125 28.3438 76.4688 28.2813 78.1562 28.1562C79.5938 28.0312 81.5 27.9375 83.875 27.875C86.3125 27.75 89.3125 27.5938 92.875 27.4062C91.5625 28.3438 90.5 29.2812 89.6875 30.2188C88.9375 31.0938 88.3438 31.875 87.9062 32.5625C87.4062 33.375 87.0938 34.1562 86.9688 34.9062C86.8438 35.5312 86.7188 36.9688 86.5938 39.2188C86.5312 41.4688 86.4375 44.1562 86.3125 47.2812C86.25 50.3438 86.1875 53.625 86.125 57.125C86.125 60.625 86.1562 63.9375 86.2188 67.0625C86.2812 70.1875 86.375 72.9062 86.5 75.2188C86.6875 77.4688 86.9375 78.9062 87.25 79.5312C87.6875 80.2812 88.2812 81.1562 89.0312 82.1562C89.7188 83.0312 90.5938 84.0312 91.6562 85.1562C92.7812 86.2812 94.25 87.5312 96.0625 88.9062C93.1875 89.0312 90.7812 89.125 88.8438 89.1875C86.9688 89.25 85.4062 89.3125 84.1562 89.375C82.7188 89.4375 81.5625 89.4688 80.6875 89.4688C79.75 89.4688 78.4688 89.5 76.8438 89.5625C75.4062 89.625 73.5 89.7188 71.125 89.8438C68.75 89.9062 65.6875 90.0312 61.9375 90.2188C62.8125 89.2188 63.625 88.2188 64.375 87.2188C65.125 86.2188 65.75 85.3125 66.25 84.5C66.875 83.5625 67.4062 82.6562 67.8438 81.7812C68.2812 80.5938 68.625 78.4375 68.875 75.3125C69.125 72.625 69.3125 68.7812 69.4375 63.7812C69.5625 58.7188 69.5625 51.9375 69.4375 43.4375C68.25 45.375 67.1875 47.3125 66.25 49.25C65.375 51.125 64.5938 52.8438 63.9062 54.4062C63.1562 56.2188 62.4688 57.9688 61.8438 59.6562C61.2188 61.4062 60.5625 63.3438 59.875 65.4688C59.25 67.2812 58.5 69.4375 57.625 71.9375C56.8125 74.4375 55.875 77.1875 54.8125 80.1875L51.25 80.375C50.75 77.875 50.25 75.625 49.75 73.625C49.25 71.5625 48.75 69.8125 48.25 68.375C47.6875 66.6875 47.125 65.1875 46.5625 63.875C45.9375 62.5625 45.25 61.0938 44.5 59.4688C43.8125 58.0938 42.9688 56.4688 41.9688 54.5938C41.0312 52.7188 39.9375 50.625 38.6875 48.3125C38.0625 54.6875 37.6875 59.875 37.5625 63.875C37.4375 67.8125 37.4375 70.875 37.5625 73.0625C37.6875 75.6875 37.875 77.5938 38.125 78.7812C38.5 79.8438 39.0938 81.0312 39.9062 82.3438C40.5938 83.4688 41.5312 84.8125 42.7188 86.375C43.9688 87.875 45.5625 89.5625 47.5 91.4375C46.125 91.4375 44.6875 91.4375 43.1875 91.4375C41.6875 91.4375 40.3125 91.4688 39.0625 91.5312C37.5625 91.5938 36.0938 91.625 34.6562 91.625C33.1562 91.6875 31.4062 91.7812 29.4062 91.9062C27.6562 92.0312 25.5625 92.1562 23.125 92.2812C20.6875 92.4062 17.875 92.625 14.6875 92.9375C16.0625 92.0625 17.1875 91.2188 18.0625 90.4062C18.9375 89.5312 19.625 88.75 20.125 88.0625C20.75 87.25 21.2188 86.4375 21.5312 85.625C21.7188 85.125 21.875 84.0312 22 82.3438C22.1875 80.6562 22.3438 78.5938 22.4688 76.1562C22.6562 73.7188 22.7812 71 22.8438 68C22.9688 65 23.0625 61.9688 23.125 58.9062C23.25 55.7812 23.3438 52.75 23.4062 49.8125C23.4688 46.8125 23.5 44.125 23.5 41.75C23.5625 39.3125 23.5938 37.2812 23.5938 35.6562C23.5938 34.0312 23.5938 33 23.5938 32.5625C23.4062 31.625 23.125 30.6875 22.75 29.75C22.4375 28.9375 21.9375 28.0938 21.25 27.2188C20.5625 26.3437 19.6562 25.5312 18.5312 24.7812ZM91.2812 44.0938C92.5312 44.2812 93.6562 44.4375 94.6562 44.5625C95.5938 44.625 96.4375 44.6875 97.1875 44.75C98 44.8125 98.7812 44.8438 99.5312 44.8438C100.219 44.8438 101.094 44.8125 102.156 44.75C103.031 44.6875 104.156 44.625 105.531 44.5625C106.969 44.4375 108.656 44.2812 110.594 44.0938C110.469 44.3438 110.219 45.125 109.844 46.4375C109.469 47.6875 109.094 49.25 108.719 51.125C108.344 52.9375 108 54.9688 107.688 57.2188C107.438 59.4062 107.312 61.5938 107.312 63.7812C107.375 65.9062 107.656 67.9375 108.156 69.875C108.656 71.75 109.469 73.2812 110.594 74.4688C112.969 76.9062 115.062 78.375 116.875 78.875C118.75 79.375 120.375 79.3125 121.75 78.6875C123.125 78.0625 124.25 77.125 125.125 75.875C126 74.625 126.625 73.4688 127 72.4062C127.938 69.5312 128.5 66.5 128.688 63.3125C128.812 60.5625 128.594 57.5 128.031 54.125C127.469 50.75 126.125 47.3125 124 43.8125C125.625 43.9375 127.031 44.0312 128.219 44.0938C129.406 44.1562 130.438 44.2188 131.312 44.2812C132.312 44.3438 133.188 44.4062 133.938 44.4688C134.625 44.5312 135.438 44.5312 136.375 44.4688C137.188 44.4688 138.156 44.4375 139.281 44.375C140.469 44.25 141.781 44.125 143.219 44C143.469 50.125 143.688 55.5938 143.875 60.4062C144.062 65.1562 144.188 69.375 144.25 73.0625C144.375 76.6875 144.438 79.8438 144.438 82.5312C144.438 85.1562 144.438 87.375 144.438 89.1875C144.375 93.5 144.188 96.3438 143.875 97.7188C143.375 99.6562 142.469 101.594 141.156 103.531C139.906 105.469 138.312 107.188 136.375 108.688C134.438 110.25 132.188 111.438 129.625 112.25C127.125 113.125 124.375 113.438 121.375 113.188C118.438 112.938 116.094 112.531 114.344 111.969C112.656 111.469 111.312 110.875 110.312 110.188C109.375 109.5 108.688 108.781 108.25 108.031C107.875 107.281 107.594 106.5 107.406 105.688C107.219 104.938 107.031 104.219 106.844 103.531C106.656 102.844 106.281 102.25 105.719 101.75C105.031 101.188 104.312 100.625 103.562 100.062C102.875 99.5625 102.125 99.0625 101.312 98.5625C100.562 98.0625 99.8125 97.6562 99.0625 97.3438L119.031 96.2188C118.469 96.9688 118.062 97.6562 117.812 98.2812C117.562 98.9062 117.406 99.4375 117.344 99.875C117.281 100.438 117.312 100.906 117.438 101.281C117.688 102.031 118.125 102.844 118.75 103.719C119.438 104.656 120.312 105.375 121.375 105.875C122.438 106.438 123.688 106.625 125.125 106.438C126.625 106.25 128.312 105.469 130.188 104.094C131.75 102.906 133.062 101 134.125 98.375C135 96.125 135.688 92.9688 136.188 88.9062C136.688 84.8438 136.594 79.5 135.906 72.875C134.781 76.75 133.25 79.7188 131.312 81.7812C129.375 83.8438 127.438 85.3438 125.5 86.2812C123.25 87.4062 120.906 88 118.469 88.0625C115.219 87.9375 112.438 87.5312 110.125 86.8438C107.812 86.0938 105.906 85.0938 104.406 83.8438C102.906 82.5938 101.719 81.125 100.844 79.4375C100.031 77.6875 99.4375 75.75 99.0625 73.625C98.6875 71.5 98.5 69.375 98.5 67.25C98.5 65.0625 98.5 63.0312 98.5 61.1562C98.5625 59.2812 98.5938 57.5938 98.5938 56.0938C98.5938 54.5312 98.4375 53.2812 98.125 52.3438C97.75 51.4062 97.25 50.4688 96.625 49.5312C96.125 48.7188 95.4375 47.8438 94.5625 46.9062C93.625 45.9062 92.5312 44.9688 91.2812 44.0938ZM173.312 26.0938C175.375 26.3437 177.25 26.5312 178.938 26.6562C180.562 26.7813 181.969 26.9062 183.156 27.0312C184.531 27.1563 185.75 27.25 186.812 27.3125C187.938 27.3125 189.375 27.2812 191.125 27.2188C192.625 27.1563 194.531 27.0625 196.844 26.9375C199.156 26.8125 202 26.5938 205.375 26.2812C203.75 27.2188 202.406 28.1562 201.344 29.0938C200.344 30.0312 199.562 30.875 199 31.625C198.312 32.5 197.812 33.375 197.5 34.25C197.312 35.4375 197.375 37.75 197.688 41.1875C197.812 42.625 198 44.4062 198.25 46.5312C198.562 48.5938 198.938 51.0625 199.375 53.9375C199.875 56.75 200.469 60 201.156 63.6875C201.906 67.375 202.75 71.5625 203.688 76.25C204.938 72.6875 205.969 69.5312 206.781 66.7812C207.594 63.9688 208.281 61.5625 208.844 59.5625C209.469 57.3125 210 55.3125 210.438 53.5625C210.875 51.75 211.406 49.4062 212.031 46.5312C212.531 44.0938 213.188 40.9375 214 37.0625C214.812 33.1875 215.812 28.4062 217 22.7188L220.375 23.1875C220.688 27.625 221 31.5312 221.312 34.9062C221.688 38.2812 222 41.1562 222.25 43.5312C222.5 46.2812 222.75 48.6562 223 50.6562C223.25 52.4688 223.625 54.5625 224.125 56.9375C224.562 58.9375 225.125 61.4062 225.812 64.3438C226.5 67.2188 227.406 70.4688 228.531 74.0938C229.656 69.6562 230.656 65.6875 231.531 62.1875C232.469 58.6875 233.25 55.5938 233.875 52.9062C234.562 50.2188 235.125 47.9062 235.562 45.9688C236.062 44.0312 236.469 42.4062 236.781 41.0938C237.469 37.9688 237.875 35.875 238 34.8125C237.938 33.625 237.656 32.4688 237.156 31.3438C236.719 30.3438 236.031 29.25 235.094 28.0625C234.156 26.875 232.781 25.7188 230.969 24.5938C234.781 24.7188 237.875 24.8125 240.25 24.875C242.688 24.875 244.625 24.875 246.062 24.875H249.812H253.188C254.438 24.875 256.062 24.875 258.062 24.875C260.125 24.8125 262.75 24.7188 265.938 24.5938C263.188 26.0313 260.969 27.3438 259.281 28.5312C257.594 29.7187 256.281 30.7188 255.344 31.5312C254.219 32.5312 253.406 33.375 252.906 34.0625C252.406 35.3125 251.594 38.125 250.469 42.5C249.969 44.375 249.406 46.7188 248.781 49.5312C248.156 52.2812 247.406 55.5938 246.531 59.4688C245.719 63.3438 244.781 67.875 243.719 73.0625C242.656 78.1875 241.469 84.0625 240.156 90.6875L223.938 89L217 59.8438C215.938 65.1562 215.094 69.4688 214.469 72.7812C213.844 76.0312 213.375 78.5625 213.062 80.375C212.688 82.5625 212.469 84.1562 212.406 85.1562C212.344 86.0312 212.281 86.875 212.219 87.6875C212.156 88.375 212.062 89.125 211.938 89.9375C211.875 90.75 211.781 91.5 211.656 92.1875H195.062C193.438 85.0625 191.969 78.7812 190.656 73.3438C189.406 67.8438 188.281 63.0312 187.281 58.9062C186.281 54.7812 185.406 51.2812 184.656 48.4062C183.969 45.5312 183.344 43.125 182.781 41.1875C181.531 36.6875 180.625 33.9062 180.062 32.8438C179.625 32.3438 179.062 31.75 178.375 31.0625C177.812 30.5 177.125 29.8125 176.312 29C175.438 28.125 174.438 27.1563 173.312 26.0938ZM255.812 50.0938L273.062 50.2812C272.062 54.0938 271.312 57.3438 270.812 60.0312C270.375 62.7188 270.094 64.9688 269.969 66.7812C269.719 68.8438 269.656 70.5938 269.781 72.0312C269.969 73.3438 270.281 74.75 270.719 76.25C271.094 77.5 271.656 78.9375 272.406 80.5625C273.156 82.1875 274.156 83.8125 275.406 85.4375C274.656 85.1875 273.844 85 272.969 84.875C272.094 84.75 271.281 84.6562 270.531 84.5938C269.656 84.5312 268.781 84.5312 267.906 84.5938C267.031 84.6562 266.062 84.75 265 84.875C264.125 85 263.062 85.1562 261.812 85.3438C260.562 85.5312 259.25 85.7812 257.875 86.0938C258.812 83.2812 259.531 80.8438 260.031 78.7812C260.594 76.7188 261 75 261.25 73.625C261.5 72 261.656 70.6875 261.719 69.6875C261.719 68.4375 261.719 67.0312 261.719 65.4688C261.719 63.8438 261.719 62.2812 261.719 60.7812C261.719 59.2812 261.688 57.9688 261.625 56.8438C261.562 55.6562 261.438 54.9062 261.25 54.5938L260.312 53.6562C259.938 53.3438 259.375 52.9062 258.625 52.3438C257.938 51.7188 257 50.9688 255.812 50.0938ZM262.469 35.6562C263.781 34.9688 265.094 34.7812 266.406 35.0938C267.781 35.4062 268.844 36 269.594 36.875C270.344 37.75 270.594 38.7812 270.344 39.9688C270.156 41.1562 269.156 42.3125 267.344 43.4375C265.531 44.5 263.938 44.875 262.562 44.5625C261.188 44.25 260.219 43.5938 259.656 42.5938C259.094 41.5938 259 40.4375 259.375 39.125C259.75 37.75 260.781 36.5938 262.469 35.6562ZM320.125 38.4688C319.562 39.8438 319.062 41.0938 318.625 42.2188C318.25 43.3438 317.906 44.3438 317.594 45.2188C317.281 46.2188 317 47.0938 316.75 47.8438C316.5 48.7188 316.219 49.7188 315.906 50.8438C315.594 51.8438 315.188 53.0938 314.688 54.5938C314.25 56.0312 313.719 57.75 313.094 59.75C312.594 56.75 311.688 54.375 310.375 52.625C309.062 50.8125 307.719 49.4062 306.344 48.4062C304.719 47.2812 302.969 46.4688 301.094 45.9688C297.719 45.4062 295.281 45.4688 293.781 46.1562C292.281 46.8438 291.281 47.7188 290.781 48.7812C290.531 49.2188 290.25 49.7812 289.938 50.4688C289.688 51.0938 289.469 51.75 289.281 52.4375C289.156 53.125 289.125 53.8125 289.188 54.5C289.25 55.1875 289.531 55.75 290.031 56.1875C290.344 56.5 291.156 56.9375 292.469 57.5C293.781 58 295.344 58.5938 297.156 59.2812C299.031 59.9062 301 60.5938 303.062 61.3438C305.188 62.0938 307.188 62.8438 309.062 63.5938C310.938 64.3438 312.562 65.0938 313.938 65.8438C315.312 66.5938 316.219 67.2812 316.656 67.9062C317.031 68.5312 317.438 69.375 317.875 70.4375C318.375 71.4375 318.719 72.5625 318.906 73.8125C319.156 75 319.219 76.25 319.094 77.5625C319.031 78.8125 318.688 80.0625 318.062 81.3125C317.438 82.5625 316.438 83.7188 315.062 84.7812C313.75 85.8438 311.969 86.7188 309.719 87.4062C307.094 88.2188 304.562 88.4375 302.125 88.0625C299.688 87.6875 297.438 87.125 295.375 86.375C293.375 85.625 291.625 84.9062 290.125 84.2188C288.625 83.4688 287.562 83.1562 286.938 83.2812C286.25 83.4062 285.469 83.75 284.594 84.3125C283.719 84.875 282.875 85.4688 282.062 86.0938C281.312 86.6562 280.656 87.1875 280.094 87.6875C279.531 88.125 279.25 88.2812 279.25 88.1562C279.25 88.0312 279.344 87.6562 279.531 87.0312C279.781 86.4062 280.031 85.6562 280.281 84.7812C280.594 83.8438 280.875 82.8438 281.125 81.7812C281.438 80.6562 281.656 79.5938 281.781 78.5938C281.906 77.7812 282.062 76.7812 282.25 75.5938C282.375 74.5312 282.531 73.25 282.719 71.75C282.969 70.1875 283.25 68.3125 283.562 66.125C283.875 67.75 284.312 69.1562 284.875 70.3438C285.5 71.5312 286.094 72.5625 286.656 73.4375C287.344 74.4375 288 75.2812 288.625 75.9688C289.562 76.8438 290.656 77.6562 291.906 78.4062C293.219 79.1562 294.531 79.8125 295.844 80.375C297.156 80.875 298.406 81.1875 299.594 81.3125C300.781 81.4375 301.781 81.3125 302.594 80.9375C303.406 80.5625 304.094 79.875 304.656 78.875C305.281 77.875 305.719 76.7812 305.969 75.5938C306.219 74.4062 306.312 73.2812 306.25 72.2188C306.188 71.0938 305.906 70.1875 305.406 69.5C305.031 69.0625 304.156 68.5 302.781 67.8125C301.469 67.125 299.875 66.375 298 65.5625C296.188 64.75 294.25 63.9062 292.188 63.0312C290.188 62.1562 288.281 61.2812 286.469 60.4062C284.719 59.4688 283.25 58.5938 282.062 57.7812C280.938 56.9062 280.312 56.125 280.188 55.4375C280.062 54.4375 279.969 53.3438 279.906 52.1562C279.844 50.9062 279.906 49.6875 280.094 48.5C280.344 47.25 280.781 46.0625 281.406 44.9375C282.094 43.8125 283.094 42.875 284.406 42.125C285.281 41.625 286.438 41.25 287.875 41C289.312 40.75 290.906 40.625 292.656 40.625C294.406 40.5625 296.219 40.625 298.094 40.8125C299.969 40.9375 301.75 41.125 303.438 41.375C305.188 41.5625 306.75 41.8125 308.125 42.125C309.562 42.4375 310.656 42.7188 311.406 42.9688C312.281 43.2812 313.219 43.3125 314.219 43.0625C315.094 42.875 316.031 42.4688 317.031 41.8438C318.031 41.2188 319.062 40.0938 320.125 38.4688ZM323.031 20.9375C324.469 21.1875 325.781 21.375 326.969 21.5C328.156 21.5625 329.156 21.625 329.969 21.6875C330.906 21.75 331.719 21.7812 332.406 21.7812C333.344 21.7188 334.438 21.625 335.688 21.5C336.75 21.375 338.031 21.2188 339.531 21.0312C341.094 20.8438 342.875 20.5938 344.875 20.2812C343.938 20.7813 343.156 21.2812 342.531 21.7812C341.906 22.2187 341.406 22.6875 341.031 23.1875C340.594 23.75 340.25 24.2812 340 24.7812C339.688 25.5937 339.344 27.2812 338.969 29.8438C338.594 32.0312 338.125 35.2812 337.562 39.5938C337.062 43.9062 336.406 49.75 335.594 57.125C337.844 54.875 339.969 53.1875 341.969 52.0625C344.031 50.875 345.844 50.0312 347.406 49.5312C349.219 48.9688 350.906 48.6875 352.469 48.6875C354.406 48.875 356.375 49.5 358.375 50.5625C360.438 51.5625 362.344 52.75 364.094 54.125C365.906 55.5 367.469 56.9688 368.781 58.5312C370.156 60.0938 371.125 61.4688 371.688 62.6562C372.062 63.4688 372.25 64.5312 372.25 65.8438C372.25 67.0938 372.125 68.4688 371.875 69.9688C371.625 71.4688 371.281 73 370.844 74.5625C370.406 76.125 369.969 77.5938 369.531 78.9688C369.156 80.3438 368.812 81.5625 368.5 82.625C368.188 83.625 368 84.3438 367.938 84.7812C367.812 85.7188 367.875 86.625 368.125 87.5C368.312 88.25 368.688 89.0625 369.25 89.9375C369.812 90.75 370.656 91.4375 371.781 92C370.906 91.875 369.969 91.7812 368.969 91.7188C368.031 91.5938 367.125 91.5 366.25 91.4375C365.25 91.375 364.25 91.3438 363.25 91.3438H359.875C358.812 91.3438 357.594 91.375 356.219 91.4375C354.844 91.4375 353.344 91.4688 351.719 91.5312C352.594 91.2188 353.344 90.8125 353.969 90.3125C354.594 89.75 355.125 89.2188 355.562 88.7188C356.062 88.1562 356.5 87.5625 356.875 86.9375C357.125 86.4375 357.438 85.5 357.812 84.125C358.188 82.6875 358.531 81.0625 358.844 79.25C359.156 77.375 359.375 75.4062 359.5 73.3438C359.688 71.2812 359.719 69.3125 359.594 67.4375C359.531 65.5 359.25 63.7812 358.75 62.2812C358.312 60.7812 357.625 59.6875 356.688 59C353.875 56.875 351.312 55.8438 349 55.9062C346.75 55.9062 344.594 56.8125 342.531 58.625C341.781 59.3125 341.062 60 340.375 60.6875C339.75 61.3125 339.062 62.0625 338.312 62.9375C337.562 63.75 336.875 64.5938 336.25 65.4688C336.25 66.4062 336.281 67.4375 336.344 68.5625C336.406 69.6875 336.469 70.7812 336.531 71.8438C336.594 73.0312 336.688 74.2188 336.812 75.4062C336.938 77.2188 337.125 79 337.375 80.75C337.562 82.25 337.812 83.9062 338.125 85.7188C338.438 87.4688 338.844 89.0625 339.344 90.5C338.531 90.375 337.688 90.3438 336.812 90.4062C335.938 90.4062 335.094 90.4062 334.281 90.4062C333.344 90.4688 332.438 90.5 331.562 90.5C330.75 90.5625 329.906 90.6562 329.031 90.7812C328.281 90.9062 327.469 91.0312 326.594 91.1562C325.719 91.2188 324.875 91.3438 324.062 91.5312C324.812 90.0938 325.438 88.6875 325.938 87.3125C326.438 85.875 326.844 84.625 327.156 83.5625C327.531 82.3125 327.844 81.0938 328.094 79.9062C328.281 78.9688 328.406 77.1875 328.469 74.5625C328.594 71.875 328.688 68.8125 328.75 65.375C328.812 61.875 328.844 58.1875 328.844 54.3125C328.844 50.4375 328.812 46.75 328.75 43.25C328.688 39.75 328.562 36.6875 328.375 34.0625C328.25 31.4375 328.094 29.625 327.906 28.625C327.656 27.625 327.312 26.625 326.875 25.625C326.5 24.75 326 23.9062 325.375 23.0938C324.75 22.2187 323.969 21.5 323.031 20.9375ZM379.094 94.625C379.719 93.6875 380.219 92.8125 380.594 92C380.969 91.1875 381.281 90.5 381.531 89.9375C381.781 89.25 381.969 88.625 382.094 88.0625C382.156 87.6875 382.188 86.5938 382.188 84.7812C382.188 82.9688 382.125 80.6875 382 77.9375C381.938 75.1875 381.844 72.0938 381.719 68.6562C381.656 65.2188 381.531 61.7188 381.344 58.1562C381.219 54.5938 381.062 51.125 380.875 47.75C380.75 44.375 380.625 41.3438 380.5 38.6562C380.375 35.9062 380.25 33.6562 380.125 31.9062C380 30.1563 379.906 29.1562 379.844 28.9062C379.719 28.5312 379.5 28.1562 379.188 27.7812C378.562 27.0312 377.5 26.3125 376 25.625C379.188 24.8125 381.625 24.1563 383.312 23.6562C384.312 23.4063 385.188 23.1562 385.938 22.9062C386.625 22.6563 387.312 22.4062 388 22.1562C388.562 21.9063 389.188 21.625 389.875 21.3125C390.562 20.9375 391.188 20.5312 391.75 20.0938C391.438 21.9063 391.188 23.6562 391 25.3438C390.812 27.0312 390.656 28.5937 390.531 30.0312C390.406 31.6563 390.344 33.2188 390.344 34.7188C390.031 37.7812 389.844 41.125 389.781 44.75C389.781 48.3125 389.812 51.9375 389.875 55.625C389.938 59.3125 390.062 62.9062 390.25 66.4062C390.438 69.9062 390.625 73.0938 390.812 75.9688C391.062 78.7812 391.281 81.1875 391.469 83.1875C391.719 85.125 391.906 86.375 392.031 86.9375C392.281 87.875 392.531 88.7812 392.781 89.6562C393.031 90.4062 393.312 91.1875 393.625 92C393.938 92.875 394.312 93.5625 394.75 94.0625H385.656C384.844 94.0625 384.062 94.0938 383.312 94.1562C382.625 94.2188 381.906 94.2812 381.156 94.3438C380.406 94.4062 379.719 94.5 379.094 94.625ZM398.125 50.0938L415.375 50.2812C414.375 54.0938 413.625 57.3438 413.125 60.0312C412.688 62.7188 412.406 64.9688 412.281 66.7812C412.031 68.8438 411.969 70.5938 412.094 72.0312C412.281 73.3438 412.594 74.75 413.031 76.25C413.406 77.5 413.969 78.9375 414.719 80.5625C415.469 82.1875 416.469 83.8125 417.719 85.4375C416.969 85.1875 416.156 85 415.281 84.875C414.406 84.75 413.594 84.6562 412.844 84.5938C411.969 84.5312 411.094 84.5312 410.219 84.5938C409.344 84.6562 408.375 84.75 407.312 84.875C406.438 85 405.375 85.1562 404.125 85.3438C402.875 85.5312 401.562 85.7812 400.188 86.0938C401.125 83.2812 401.844 80.8438 402.344 78.7812C402.906 76.7188 403.312 75 403.562 73.625C403.812 72 403.969 70.6875 404.031 69.6875C404.031 68.4375 404.031 67.0312 404.031 65.4688C404.031 63.8438 404.031 62.2812 404.031 60.7812C404.031 59.2812 404 57.9688 403.938 56.8438C403.875 55.6562 403.75 54.9062 403.562 54.5938L402.625 53.6562C402.25 53.3438 401.688 52.9062 400.938 52.3438C400.25 51.7188 399.312 50.9688 398.125 50.0938ZM404.781 35.6562C406.094 34.9688 407.406 34.7812 408.719 35.0938C410.094 35.4062 411.156 36 411.906 36.875C412.656 37.75 412.906 38.7812 412.656 39.9688C412.469 41.1562 411.469 42.3125 409.656 43.4375C407.844 44.5 406.25 44.875 404.875 44.5625C403.5 44.25 402.531 43.5938 401.969 42.5938C401.406 41.5938 401.312 40.4375 401.688 39.125C402.062 37.75 403.094 36.5938 404.781 35.6562ZM462.438 38.4688C461.875 39.8438 461.375 41.0938 460.938 42.2188C460.562 43.3438 460.219 44.3438 459.906 45.2188C459.594 46.2188 459.312 47.0938 459.062 47.8438C458.812 48.7188 458.531 49.7188 458.219 50.8438C457.906 51.8438 457.5 53.0938 457 54.5938C456.562 56.0312 456.031 57.75 455.406 59.75C454.906 56.75 454 54.375 452.688 52.625C451.375 50.8125 450.031 49.4062 448.656 48.4062C447.031 47.2812 445.281 46.4688 443.406 45.9688C440.031 45.4062 437.594 45.4688 436.094 46.1562C434.594 46.8438 433.594 47.7188 433.094 48.7812C432.844 49.2188 432.562 49.7812 432.25 50.4688C432 51.0938 431.781 51.75 431.594 52.4375C431.469 53.125 431.438 53.8125 431.5 54.5C431.562 55.1875 431.844 55.75 432.344 56.1875C432.656 56.5 433.469 56.9375 434.781 57.5C436.094 58 437.656 58.5938 439.469 59.2812C441.344 59.9062 443.312 60.5938 445.375 61.3438C447.5 62.0938 449.5 62.8438 451.375 63.5938C453.25 64.3438 454.875 65.0938 456.25 65.8438C457.625 66.5938 458.531 67.2812 458.969 67.9062C459.344 68.5312 459.75 69.375 460.188 70.4375C460.688 71.4375 461.031 72.5625 461.219 73.8125C461.469 75 461.531 76.25 461.406 77.5625C461.344 78.8125 461 80.0625 460.375 81.3125C459.75 82.5625 458.75 83.7188 457.375 84.7812C456.062 85.8438 454.281 86.7188 452.031 87.4062C449.406 88.2188 446.875 88.4375 444.438 88.0625C442 87.6875 439.75 87.125 437.688 86.375C435.688 85.625 433.938 84.9062 432.438 84.2188C430.938 83.4688 429.875 83.1562 429.25 83.2812C428.562 83.4062 427.781 83.75 426.906 84.3125C426.031 84.875 425.188 85.4688 424.375 86.0938C423.625 86.6562 422.969 87.1875 422.406 87.6875C421.844 88.125 421.562 88.2812 421.562 88.1562C421.562 88.0312 421.656 87.6562 421.844 87.0312C422.094 86.4062 422.344 85.6562 422.594 84.7812C422.906 83.8438 423.188 82.8438 423.438 81.7812C423.75 80.6562 423.969 79.5938 424.094 78.5938C424.219 77.7812 424.375 76.7812 424.562 75.5938C424.688 74.5312 424.844 73.25 425.031 71.75C425.281 70.1875 425.562 68.3125 425.875 66.125C426.188 67.75 426.625 69.1562 427.188 70.3438C427.812 71.5312 428.406 72.5625 428.969 73.4375C429.656 74.4375 430.312 75.2812 430.938 75.9688C431.875 76.8438 432.969 77.6562 434.219 78.4062C435.531 79.1562 436.844 79.8125 438.156 80.375C439.469 80.875 440.719 81.1875 441.906 81.3125C443.094 81.4375 444.094 81.3125 444.906 80.9375C445.719 80.5625 446.406 79.875 446.969 78.875C447.594 77.875 448.031 76.7812 448.281 75.5938C448.531 74.4062 448.625 73.2812 448.562 72.2188C448.5 71.0938 448.219 70.1875 447.719 69.5C447.344 69.0625 446.469 68.5 445.094 67.8125C443.781 67.125 442.188 66.375 440.312 65.5625C438.5 64.75 436.562 63.9062 434.5 63.0312C432.5 62.1562 430.594 61.2812 428.781 60.4062C427.031 59.4688 425.562 58.5938 424.375 57.7812C423.25 56.9062 422.625 56.125 422.5 55.4375C422.375 54.4375 422.281 53.3438 422.219 52.1562C422.156 50.9062 422.219 49.6875 422.406 48.5C422.656 47.25 423.094 46.0625 423.719 44.9375C424.406 43.8125 425.406 42.875 426.719 42.125C427.594 41.625 428.75 41.25 430.188 41C431.625 40.75 433.219 40.625 434.969 40.625C436.719 40.5625 438.531 40.625 440.406 40.8125C442.281 40.9375 444.062 41.125 445.75 41.375C447.5 41.5625 449.062 41.8125 450.438 42.125C451.875 42.4375 452.969 42.7188 453.719 42.9688C454.594 43.2812 455.531 43.3125 456.531 43.0625C457.406 42.875 458.344 42.4688 459.344 41.8438C460.344 41.2188 461.375 40.0938 462.438 38.4688ZM464.688 32.9375C466.562 33.125 468.125 33.2812 469.375 33.4062C470.688 33.5312 471.75 33.625 472.562 33.6875C473.5 33.75 474.25 33.7812 474.812 33.7812C475.375 33.8438 476.125 33.8438 477.062 33.7812C477.875 33.7188 478.938 33.6562 480.25 33.5938C481.562 33.4688 483.219 33.2812 485.219 33.0312C484.781 33.6562 484.438 34.2188 484.188 34.7188C483.938 35.1562 483.719 35.5625 483.531 35.9375L482.969 37.0625C482.844 37.4375 482.719 37.8125 482.594 38.1875C482.469 38.5 482.344 38.875 482.219 39.3125C482.156 39.75 482.094 40.2188 482.031 40.7188H496.469L495.156 48.3125L481.938 47.5625C481.625 50.75 481.406 53.2188 481.281 54.9688C481.156 56.7188 481.031 58 480.906 58.8125L480.719 60.5C480.531 62.875 480.344 65.4688 480.156 68.2812C479.969 71.0312 479.906 73.5938 479.969 75.9688C480.031 78.3438 480.25 80.3438 480.625 81.9688C481 83.5312 481.656 84.3125 482.594 84.3125C483.531 84.3125 484.406 84.0625 485.219 83.5625C486.031 83.0625 486.719 82.4688 487.281 81.7812C487.906 81.0938 488.375 80.4062 488.688 79.7188C489 78.9688 489.156 78.4062 489.156 78.0312C489.156 77.6562 489.062 77.2188 488.875 76.7188C488.562 75.7812 488 74.5938 487.188 73.1562C489 73.5938 490.594 74.0312 491.969 74.4688C492.656 74.7188 493.281 74.9688 493.844 75.2188C494.469 75.4688 495.188 75.75 496 76.0625C496.688 76.375 497.562 76.75 498.625 77.1875C499.688 77.625 500.938 78.1562 502.375 78.7812C501 79.0312 500 79.4375 499.375 80C499 80.25 498.719 80.5312 498.531 80.8438C498.094 81.5312 497.594 82.4688 497.031 83.6562C496.469 84.7812 495.625 85.9062 494.5 87.0312C493.375 88.1562 491.844 89.1562 489.906 90.0312C488.031 90.9062 485.5 91.4062 482.312 91.5312C479 91.6562 476.469 91.0938 474.719 89.8438C473.031 88.5938 471.781 87.1562 470.969 85.5312C470.219 83.8438 469.781 82.1875 469.656 80.5625C469.531 78.9375 469.438 77.8438 469.375 77.2812C469.312 76.7188 469.312 75.3125 469.375 73.0625C469.438 70.8125 469.531 68.3438 469.656 65.6562C469.781 62.9062 469.906 60.2812 470.031 57.7812C470.156 55.2188 470.219 53.3438 470.219 52.1562C470.219 51.5312 470.25 50.875 470.312 50.1875C470.312 49.625 470.312 49.0312 470.312 48.4062C470.375 47.7188 470.406 47.0625 470.406 46.4375L456.812 46.3438L456.25 41L469.938 41.375C469.812 40.6875 469.656 40.0625 469.469 39.5C469.344 38.875 469.219 38.375 469.094 38C468.906 37.5625 468.719 37.1875 468.531 36.875C468.281 36.5625 468 36.2188 467.688 35.8438C467.375 35.5312 466.969 35.125 466.469 34.625C465.969 34.125 465.375 33.5625 464.688 32.9375Z" fill="black"/>
</svg>
